<?xml version="1.0" encoding="UTF-8"?><svg xmlns="http://www.w3.org/2000/svg" xmlns:xlink="http://www.w3.org/1999/xlink" viewBox="0 0 19 19"><defs><style>.g{fill:#fff;}.h{fill:#0c2738;}.h,.i,.j,.k,.l,.m{fill-rule:evenodd;}.n{isolation:isolate;}.i{fill:url(#c);}.j{fill:url(#f);}.k{fill:#1f71b2;mix-blend-mode:screen;}.l{fill:url(#e);}.m{fill:url(#d);}</style><linearGradient id="c" x1="9.5" y1="17.72" x2="9.5" y2="1.28" gradientTransform="matrix(1, 0, 0, 1, 0, 0)" gradientUnits="userSpaceOnUse"><stop offset="0" stop-color="#3a597d"/><stop offset="1" stop-color="#81b0ef"/></linearGradient><linearGradient id="d" x1="9.5" y1="17.72" x2="9.5" y2="1.28" gradientTransform="matrix(1, 0, 0, 1, 0, 0)" gradientUnits="userSpaceOnUse"><stop offset="0" stop-color="#81b0ef"/><stop offset="1" stop-color="#3a597d"/></linearGradient><linearGradient id="e" x1="9.5" y1="16.73" x2="9.5" y2="2.27" gradientTransform="matrix(1, 0, 0, 1, 0, 0)" gradientUnits="userSpaceOnUse"><stop offset="0" stop-color="#00164f"/><stop offset=".42" stop-color="#042474"/><stop offset=".78" stop-color="#062d8e"/><stop offset="1" stop-color="#083198"/></linearGradient><linearGradient id="f" x1="9.5" y1="15.82" x2="9.5" y2="3.18" gradientTransform="matrix(1, 0, 0, 1, 0, 0)" gradientUnits="userSpaceOnUse"><stop offset="0" stop-color="#001e6b"/><stop offset="1" stop-color="#0056b9"/></linearGradient></defs><g class="n"><g id="a"/><g id="b"><g><g><path class="h" d="M9.5,1.28c4.54,0,8.22,3.68,8.22,8.22s-3.68,8.22-8.22,8.22S1.28,14.04,1.28,9.5,4.96,1.28,9.5,1.28h0Z"/><path class="i" d="M9.5,1.28c4.54,0,8.22,3.68,8.22,8.22s-3.68,8.22-8.22,8.22S1.28,14.04,1.28,9.5,4.96,1.28,9.5,1.28h0Zm9.22,8.22C18.72,4.41,14.59,.28,9.5,.28S.28,4.41,.28,9.5s4.13,9.22,9.22,9.22,9.22-4.13,9.22-9.22h0Z"/><path class="m" d="M17.72,9.5c0-4.54-3.68-8.22-8.22-8.22S1.28,4.96,1.28,9.5s3.68,8.22,8.22,8.22,8.22-3.68,8.22-8.22h0ZM9.5,2.27c3.99,0,7.23,3.24,7.23,7.23s-3.24,7.23-7.23,7.23-7.23-3.24-7.23-7.23S5.51,2.27,9.5,2.27h0Z"/><path class="l" d="M9.5,2.27c3.99,0,7.23,3.24,7.23,7.23s-3.24,7.23-7.23,7.23-7.23-3.24-7.23-7.23S5.51,2.27,9.5,2.27h0Z"/><path class="k" d="M4.91,4.91c2.44-2.44,6.48-2.36,9.01,.17,2.54,2.54,2.61,6.57,.17,9.01-2.44,2.44-6.47,2.36-9.01-.17-2.54-2.54-2.61-6.57-.17-9.01h0Z"/><path class="j" d="M9.5,3.18c3.49,0,6.32,2.83,6.32,6.32s-2.83,6.32-6.32,6.32-6.32-2.83-6.32-6.32S6.01,3.18,9.5,3.18h0Z"/></g><rect class="g" x="4.9" y="8.42" width="8.76" height="1.95"/><rect class="g" x="4.9" y="8.42" width="8.76" height="1.95" transform="translate(18.67 .11) rotate(90)"/></g></g></g></svg>