<?xml version="1.0" encoding="UTF-8"?><svg xmlns="http://www.w3.org/2000/svg" xmlns:xlink="http://www.w3.org/1999/xlink" viewBox="0 0 68 67"><defs><style>.w{fill:url(#r);}.w,.x,.y,.a`,.aa,.ab,.ac,.ad,.ae,.af,.ag,.ah,.ai,.aj,.ak,.al,.am,.an{fill-rule:evenodd;}.x{fill:url(#j);}.y{fill:url(#t);}.a`{fill:url(#g);}.ao{fill:url(#u);}.aa{fill:url(#p);}.ap{isolation:isolate;}.aq{fill:url(#v);}.ab{fill:url(#q);}.ac{fill:url(#h);}.ad{fill:url(#c);}.ae{fill:url(#k);}.af{fill:url(#f);}.ag{fill:url(#m);}.ah{fill:url(#s);}.ai{fill:url(#i);}.aj{fill:url(#d);mix-blend-mode:screen;}.ak{fill:url(#e);}.al{fill:url(#l);}.am{fill:url(#n);}.an{fill:url(#o);}</style><linearGradient id="c" x1="33.85" y1="64.32" x2="33.85" y2="2.68" gradientTransform="matrix(1, 0, 0, 1, 0, 0)" gradientUnits="userSpaceOnUse"><stop offset="0" stop-color="#0a1c4a"/><stop offset=".16" stop-color="#081d4f"/><stop offset=".38" stop-color="#052060"/><stop offset=".49" stop-color="#04226b"/><stop offset=".59" stop-color="#032671"/><stop offset=".73" stop-color="#023182"/><stop offset=".88" stop-color="#01449f"/><stop offset="1" stop-color="#0056b9"/></linearGradient><radialGradient id="d" cx="33.85" cy="33.5" fx="33.85" fy="33.5" r="51.3" gradientTransform="matrix(1, 0, 0, 1, 0, 0)" gradientUnits="userSpaceOnUse"><stop offset=".59" stop-color="#000"/><stop offset=".68" stop-color="#000102"/><stop offset=".74" stop-color="#00040b"/><stop offset=".78" stop-color="#010b1a"/><stop offset=".83" stop-color="#02142f"/><stop offset=".87" stop-color="#04204a"/><stop offset=".9" stop-color="#052e6b"/><stop offset=".94" stop-color="#083f93"/><stop offset=".97" stop-color="#0a52bf"/><stop offset="1" stop-color="#0d65ea"/></radialGradient><linearGradient id="e" x1="1.77" y1="3.18" x2="1.77" y2="-.2" gradientTransform="matrix(1, 0, 0, 1, 0, 0)" gradientUnits="userSpaceOnUse"><stop offset="0" stop-color="#6581c3"/><stop offset="1" stop-color="#3c597d"/></linearGradient><linearGradient id="f" x1="3.66" y1="4.57" x2="3.66" y2="2.19" xlink:href="#e"/><linearGradient id="g" x1="33.85" y1="64.81" x2="33.85" y2="62.43" gradientTransform="matrix(1, 0, 0, 1, 0, 0)" gradientUnits="userSpaceOnUse"><stop offset="0" stop-color="#81b0ef"/><stop offset="1" stop-color="#4e76a0"/></linearGradient><linearGradient id="h" x1="62.84" y1="33.5" x2="65.23" y2="33.5" gradientTransform="matrix(1, 0, 0, 1, 0, 0)" gradientUnits="userSpaceOnUse"><stop offset="0" stop-color="#4e76a0"/><stop offset="1" stop-color="#81b0ef"/></linearGradient><linearGradient id="i" x1="2.47" y1="33.5" x2="4.85" y2="33.5" gradientTransform="matrix(1, 0, 0, 1, 0, 0)" gradientUnits="userSpaceOnUse"><stop offset="0" stop-color="#335d8e"/><stop offset="1" stop-color="#1f4270"/></linearGradient><linearGradient id="j" x1="33.85" y1="4.57" x2="33.85" y2="2.19" gradientTransform="matrix(1, 0, 0, 1, 0, 0)" gradientUnits="userSpaceOnUse"><stop offset="0" stop-color="#1f4270"/><stop offset="1" stop-color="#335d8e"/></linearGradient><linearGradient id="k" x1="65.93" y1="67.2" x2="65.93" y2="63.82" xlink:href="#e"/><linearGradient id="l" x1="64.04" y1="64.81" x2="64.04" y2="62.43" xlink:href="#e"/><linearGradient id="m" y1="67.2" y2="63.82" xlink:href="#e"/><linearGradient id="n" x1="3.66" y1="64.81" x2="3.66" y2="62.43" xlink:href="#e"/><linearGradient id="o" x1="65.93" x2="65.93" xlink:href="#e"/><linearGradient id="p" x1="64.04" y1="4.57" x2="64.04" y2="2.19" xlink:href="#e"/><linearGradient id="q" x1=".08" y1="33.5" x2="2.47" y2="33.5" xlink:href="#h"/><linearGradient id="r" x1="65.23" y1="33.5" x2="67.61" y2="33.5" xlink:href="#i"/><linearGradient id="s" x1="33.85" y1="67.2" x2="33.85" y2="64.81" xlink:href="#j"/><linearGradient id="t" x1="33.85" y1="2.19" x2="33.85" y2="-.2" xlink:href="#h"/><linearGradient id="u" x1="67.17" y1="18.04" x2="67.17" y2="16.5" gradientTransform="matrix(1, 0, 0, 1, 0, 0)" gradientUnits="userSpaceOnUse"><stop offset="0" stop-color="#8d825d"/><stop offset="1" stop-color="#2d507a"/></linearGradient><linearGradient id="v" x1="67.17" y1="50.7" x2="67.17" y2="49.16" gradientTransform="matrix(1, 0, 0, 1, 0, 0)" gradientUnits="userSpaceOnUse"><stop offset="0" stop-color="#93acb9"/><stop offset="1" stop-color="#95b767"/></linearGradient></defs><g class="ap"><g id="a"/><g id="b"><g><path class="ad" d="M2.96,2.68H62.42c1.28,0,2.32,1.04,2.32,2.32V62c0,1.28-1.04,2.32-2.32,2.32H2.96V2.68h0Z"/><path class="aj" d="M2.96,2.68H62.42c1.28,0,2.32,1.04,2.32,2.32V62c0,1.28-1.04,2.32-2.32,2.32H2.96V2.68h0Z"/><polygon class="ak" points=".08 2.19 2.47 3.18 3.46 2.19 2.47 -.2 .08 2.19 .08 2.19"/><polygon class="af" points="3.46 2.19 2.47 3.18 4.85 4.57 3.46 2.19 3.46 2.19"/><path class="a`" d="M3.46,64.81h60.78l-.73-1.24c-.42-.71-1.18-1.15-2-1.15H4.85l-1.4,2.39h0Z"/><path class="ac" d="M62.84,4.57V61.1c0,.82,.44,1.58,1.15,2l1.24,.73V3.18l-2.39,1.4h0Z"/><polygon class="ai" points="4.85 4.57 4.85 62.43 2.47 63.82 2.47 3.18 4.85 4.57 4.85 4.57"/><path class="x" d="M3.46,2.19h60.78l-.73,1.24c-.42,.71-1.18,1.15-2,1.15H4.85l-1.4-2.39h0Z"/><polygon class="ae" points="67.61 64.81 65.23 63.82 64.24 64.81 65.23 67.2 67.61 64.81 67.61 64.81"/><polygon class="al" points="64.24 64.81 65.23 63.82 62.84 62.43 64.24 64.81 64.24 64.81"/><polygon class="ag" points=".08 64.81 2.47 63.82 3.46 64.81 2.47 67.2 .08 64.81 .08 64.81"/><polygon class="am" points="3.46 64.81 2.47 63.82 4.85 62.43 3.46 64.81 3.46 64.81"/><polygon class="an" points="67.61 2.19 65.23 3.18 64.24 2.19 65.23 -.2 67.61 2.19 67.61 2.19"/><polygon class="aa" points="64.24 2.19 65.23 3.18 62.84 4.57 64.24 2.19 64.24 2.19"/><polyline class="ab" points=".08 53.36 .08 64.81 2.47 63.82 2.47 54.75 2.47 12.25 2.47 3.18 .08 2.19 .08 13.64"/><path class="w" d="M67.61,12.92V2.19l-.96,.4c-.87,.36-1.43,1.2-1.43,2.14V62.28c0,.94,.56,1.78,1.43,2.14l.96,.4v-10.54"/><polyline class="ah" points="65.23 67.2 64.24 64.81 64.24 64.81 3.46 64.81 2.47 67.2"/><polyline class="y" points="65.23 -.2 64.24 2.19 64.24 2.19 3.46 2.19 2.47 -.2"/><line class="ao" x1="67.61" y1="18.04" x2="66.72" y2="16.5"/><line class="aq" x1="67.61" y1="49.16" x2="66.72" y2="50.7"/></g></g></g></svg>