<?xml version="1.0" encoding="UTF-8"?><svg xmlns="http://www.w3.org/2000/svg" xmlns:xlink="http://www.w3.org/1999/xlink" viewBox="0 0 1318 846"><defs><style>.ac{fill:url(#v);}.ac,.ad,.ae,.af,.ag,.ah,.ai,.aj,.ak,.al,.am,.an,.ao,.ap,.aq,.ar,.as,.at,.au,.av,.aw,.ax{fill-rule:evenodd;}.ad{fill:url(#r);}.ae{fill:url(#j);}.af{fill:url(#t);}.ag{fill:url(#g);}.ah{fill:url(#p);}.ay{isolation:isolate;}.ai{fill:url(#q);}.aj{fill:url(#aa);}.aj,.ar,.b`,.ax{mix-blend-mode:screen;}.aj,.b`{opacity:.75;}.ak{fill:url(#h);}.al{fill:url(#c);}.am{fill:url(#k);}.an{fill:url(#f);}.ao{fill:url(#u);}.ba{clip-path:url(#ab);}.ap{fill:url(#m);}.aq{fill:url(#s);}.ar{fill:url(#y);}.as{fill:url(#i);}.bb{fill:url(#d);}.bc{fill:none;}.at{fill:url(#e);}.au{fill:url(#l);}.bd{fill:url(#w);}.av{fill:url(#n);}.b`{fill:url(#x);}.aw{fill:url(#o);}.ax{fill:url(#a`);opacity:.3;}</style><radialGradient id="c" cx="73.71" cy="96.86" fx="73.71" fy="96.86" r="1385.93" gradientTransform="matrix(1, 0, 0, 1, 0, 0)" gradientUnits="userSpaceOnUse"><stop offset="0" stop-color="#7bffff"/><stop offset=".15" stop-color="#69e3fd"/><stop offset=".41" stop-color="#4ebcfb"/><stop offset=".65" stop-color="#3b9ffa"/><stop offset=".85" stop-color="#308ef9"/><stop offset="1" stop-color="#2c88f9"/></radialGradient><radialGradient id="d" cx="76.95" cy="100.32" fx="76.95" fy="100.32" r="1376.74" gradientTransform="matrix(1, 0, 0, 1, 0, 0)" gradientUnits="userSpaceOnUse"><stop offset="0" stop-color="#05719b"/><stop offset=".18" stop-color="#12538e"/><stop offset=".38" stop-color="#203683"/><stop offset=".56" stop-color="#28257c"/><stop offset=".7" stop-color="#2b1f7a"/><stop offset=".75" stop-color="#2b1676"/><stop offset=".89" stop-color="#2b0570"/><stop offset="1" stop-color="#2b006e"/></radialGradient><radialGradient id="e" cx="433.25" cy="-.64" fx="433.25" fy="-.64" r="1217.78" gradientTransform="matrix(1, 0, 0, 1, 0, 0)" gradientUnits="userSpaceOnUse"><stop offset="0" stop-color="#fcdd73"/><stop offset=".08" stop-color="#f3ca5f"/><stop offset=".27" stop-color="#e1a238"/><stop offset=".44" stop-color="#d4861b"/><stop offset=".59" stop-color="#cc750a"/><stop offset=".7" stop-color="#ca6f04"/><stop offset=".7" stop-color="#c76d03"/><stop offset=".77" stop-color="#975302"/><stop offset=".84" stop-color="#713f01"/><stop offset=".9" stop-color="#563000"/><stop offset=".96" stop-color="#452800"/><stop offset="1" stop-color="#402500"/></radialGradient><linearGradient id="f" x1="305.61" y1="67.84" x2="362.11" y2="67.84" gradientTransform="matrix(1, 0, 0, 1, 0, 0)" gradientUnits="userSpaceOnUse"><stop offset="0" stop-color="#fcdd73"/><stop offset=".08" stop-color="#f3ca5f"/><stop offset=".27" stop-color="#e1a238"/><stop offset=".44" stop-color="#d4861b"/><stop offset=".59" stop-color="#cc750a"/><stop offset=".7" stop-color="#ca6f04"/><stop offset=".7" stop-color="#c76d03"/><stop offset=".77" stop-color="#975302"/><stop offset=".84" stop-color="#713f01"/><stop offset=".9" stop-color="#563000"/><stop offset=".96" stop-color="#452800"/><stop offset="1" stop-color="#402500"/></linearGradient><linearGradient id="g" x1="955.89" x2="1012.39" xlink:href="#f"/><linearGradient id="h" x1="356.23" x2="374.77" xlink:href="#f"/><linearGradient id="i" x1="368.89" x2="387.42" xlink:href="#f"/><linearGradient id="j" x1="943.23" x2="961.77" xlink:href="#f"/><linearGradient id="k" x1="930.58" x2="949.12" xlink:href="#f"/><linearGradient id="l" x1="163.38" y1="837.18" x2="190.46" y2="837.18" xlink:href="#f"/><linearGradient id="m" x1="268.09" y1="837.18" x2="295.17" y2="837.18" xlink:href="#f"/><linearGradient id="n" x1="1022.83" y1="837.18" x2="1049.91" y2="837.18" xlink:href="#f"/><linearGradient id="o" x1="1127.54" y1="837.18" x2="1154.62" y2="837.18" xlink:href="#f"/><linearGradient id="p" x1="409.66" y1="828.06" x2="436.75" y2="828.06" xlink:href="#f"/><linearGradient id="q" x1="881.25" y1="828.06" x2="908.34" y2="828.06" xlink:href="#f"/><linearGradient id="r" x1="429.71" y1="815.01" x2="517.21" y2="815.01" xlink:href="#f"/><linearGradient id="s" x1="800.79" y1="815.01" x2="888.29" y2="815.01" xlink:href="#f"/><radialGradient id="t" cx="51.01" cy="605.51" fx="51.01" fy="605.51" r="178.38" gradientTransform="matrix(1, 0, 0, 1, 0, 0)" gradientUnits="userSpaceOnUse"><stop offset="0" stop-color="aqua"/><stop offset="1" stop-color="#2c88f9"/></radialGradient><radialGradient id="u" cx="1335.96" cy="397.53" fx="1335.96" fy="397.53" r="235.42" xlink:href="#t"/><linearGradient id="v" x1="890.73" y1="82.94" x2="906.24" y2="82.94" xlink:href="#f"/><radialGradient id="w" cx="440.91" cy="-26.34" fx="440.91" fy="-26.34" r="516.82" gradientTransform="matrix(1, 0, 0, 1, 0, 0)" gradientUnits="userSpaceOnUse"><stop offset="0" stop-color="#9400f9"/><stop offset=".17" stop-color="#7b1ff9"/><stop offset=".55" stop-color="#3c6ff9"/><stop offset=".55" stop-color="#3b71f9"/><stop offset=".66" stop-color="#366cf4"/><stop offset=".78" stop-color="#295ee8"/><stop offset=".91" stop-color="#1347d5"/><stop offset="1" stop-color="#0032c3"/></radialGradient><radialGradient id="x" cx="760.37" cy="143.07" fx="760.37" fy="143.07" r="362.15" gradientTransform="matrix(1, 0, 0, 1, 0, 0)" gradientUnits="userSpaceOnUse"><stop offset="0" stop-color="#1c1c1b"/><stop offset=".09" stop-color="#222524"/><stop offset=".25" stop-color="#343e3d"/><stop offset=".44" stop-color="#516867"/><stop offset=".67" stop-color="#79a1a1"/><stop offset=".93" stop-color="#ace9e9"/><stop offset="1" stop-color="#bff"/></radialGradient><radialGradient id="y" cx="307.05" cy="-304.48" fx="307.05" fy="-304.48" r="1020.55" gradientTransform="matrix(1, 0, 0, 1, 0, 0)" gradientUnits="userSpaceOnUse"><stop offset="0" stop-color="#2b1f7a"/><stop offset=".43" stop-color="#191248"/><stop offset="1" stop-color="#000"/></radialGradient><radialGradient id="a`" cx="1121.53" cy="-17.41" fx="1121.53" fy="-17.41" r="840.64" xlink:href="#y"/><radialGradient id="aa" cx="458.44" cy="113.62" fx="458.44" fy="113.62" r="638.62" xlink:href="#y"/><clipPath id="ab"><rect class="bc" x="-1400.21" y="-27.82" width="1224.37" height="685.73"/></clipPath></defs><g class="ay"><g id="a"/><g id="b"><g><polygon class="al" points="43.4 101.76 1274.6 101.76 1274.6 794.31 43.4 794.31 43.4 101.76 43.4 101.76"/><rect class="bb" x="46.81" y="105.17" width="1224.37" height="685.73"/><path class="at" d="M1040.04,828.5l16.2,11.57h64.97l16.2-11.57h72.48l19.43,13.89h68.86l10.61-10.61v-51.95l9.26-12.96v-93.89l-9.26-12.96v-52.27l8.94-12.51v-161.31l-8.94-12.51v-52.27l9.26-12.96V143.1l-9.26-12.96v-51.95l-10.61-10.61h-209.42l-13.87-9.91h-28.61l-10.63-7.59h-129.41V23.34l-9.26-9.26h-239.35l-19.71-14.08h-216.9l-9.26,9.26V50.08h-129.41l-10.63,7.59h-28.61l-13.87,9.91H19.83l-10.61,10.61v51.95L-.04,143.1v213.09l9.26,12.96v52.27L.28,433.93v161.31l8.94,12.51v52.27L-.04,672.98v93.89l9.26,12.96v51.95l10.61,10.61H88.68l19.43-13.89h72.48l16.2,11.57h64.97l16.19-11.57h72.48l24.49,17.5H943.07l24.49-17.5h72.48ZM421.02,90.7h462.08l23.14-23.14v-12.85h90.92l24.49,17.5h69.61l20.69,14.78h175.03l2.41,2.41V398.22h0l14.78,20.68v191.35l-14.78,20.68h0v186.12h-65.68l-11.15-7.97c-103.66,.09-207.33,0-310.99,0l-27.36,19.55h-59.31l-27.36-19.55c-40.16,.03-80.33,.05-120.49,.05h-16.06c-40.16,0-80.33-.02-120.49-.05l-27.36,19.55h-59.31l-27.36-19.55H105.45l-11.15,7.97H28.62v-186.11l-14.78-20.68v-191.35l14.78-20.68V89.39l2.41-2.41H206.06l20.68-14.78h69.61l24.49-17.5h90.92v26.74l9.26,9.26h0Zm-187.8-23.12h24.64l10.63-7.59h-24.64l-10.63,7.59h0Zm816.29-7.59l10.63,7.59h24.64l-10.63-7.59h-24.63Zm259.27,365.4v178.39l6.63-9.27v-159.85l-6.63-9.27h0ZM9.21,603.78v-178.39l-6.63,9.27v159.85l6.63,9.27h0ZM222.78,72.21H21.74l-7.9,7.9V414.94l12.47-17.45V88.44l3.76-3.76H205.33l17.45-12.47h0ZM13.84,614.23v215.63l7.9,7.9H87.22l19.43-13.89h245.24l24.49,17.5h144.53l16.19-11.57h243.78l16.19,11.57h144.53l24.49-17.5h245.24l19.43,13.89h65.48l7.9-7.9v-215.63l-12.46,17.44v191.9l-3.76,3.76h-53.81l-22.3-15.94h-261.18l-14.14,10.1h-48.35l-13.23,9.45h-60.77l-27.36-19.55h-58.98l-6.96,4.97h-123.7l-6.96-4.97h-58.98l-27.37,19.55h-60.77l-13.23-9.45h-48.35l-14.14-10.1H106.18l-22.3,15.94H30.07l-3.76-3.76v-191.9l-12.47-17.45h0Zm1290.31-199.29V80.11l-7.9-7.9h-201.03l17.45,12.47h175.26l3.76,3.76V397.49l12.46,17.44h0ZM422.94,86.07h458.24l20.43-20.43V25.26l-6.55-6.55H422.94l-6.55,6.55v54.27l6.55,6.55h0ZM636.52,3.52h-6.33l14.78,10.56h6.33l-14.78-10.56h0Zm-12.66,0h-6.33l14.78,10.56h6.33l-14.78-10.56h0Zm-12.65,0h-6.33l14.78,10.56h6.33l-14.78-10.56h0Z"/><polygon class="an" points="317.82 63.48 305.61 72.21 349.9 72.21 362.11 63.48 317.82 63.48 317.82 63.48"/><polygon class="ag" points="1000.18 63.48 1012.39 72.21 968.1 72.21 955.89 63.48 1000.18 63.48 1000.18 63.48"/><polygon class="ak" points="368.44 63.48 374.77 63.48 362.56 72.21 356.23 72.21 368.44 63.48 368.44 63.48"/><polygon class="as" points="381.09 63.48 387.42 63.48 375.21 72.21 368.89 72.21 381.09 63.48 381.09 63.48"/><polygon class="ae" points="949.56 63.48 943.23 63.48 955.44 72.21 961.77 72.21 949.56 63.48 949.56 63.48"/><polygon class="am" points="936.9 63.48 930.58 63.48 942.79 72.21 949.12 72.21 936.9 63.48 936.9 63.48"/><path class="au" d="M171.48,840.07h6.33l-8.1-5.79h-6.33l8.1,5.79h0Zm12.66,0h6.33l-8.1-5.79h-6.33l8.1,5.79h0Z"/><path class="ap" d="M287.07,840.07h-6.33l8.1-5.79h6.33l-8.1,5.79h0Zm-12.66,0h-6.33l8.1-5.79h6.33l-8.1,5.79h0Z"/><path class="av" d="M1030.92,840.07h6.33l-8.1-5.79h-6.33l8.1,5.79h0Zm12.66,0h6.33l-8.1-5.79h-6.33l8.1,5.79h0Z"/><path class="aw" d="M1146.52,840.07h-6.33l8.1-5.79h6.33l-8.1,5.79h0Zm-12.66,0h-6.33l8.1-5.79h6.33l-8.1,5.79h0Z"/><path class="ah" d="M428.65,825.17h-6.33l8.1,5.79h6.33l-8.1-5.79h0Zm-12.66,0h-6.33l8.1,5.79h6.33l-8.1-5.79h0Z"/><path class="ai" d="M889.35,825.17h6.33l-8.1,5.79h-6.33l8.1-5.79h0Zm12.66,0h6.33l-8.1,5.79h-6.33l8.1-5.79h0Z"/><polygon class="ad" points="517.21 809.09 429.71 809.09 446.28 820.93 500.64 820.93 517.21 809.09 517.21 809.09"/><polygon class="aq" points="888.29 809.09 800.79 809.09 817.36 820.93 871.72 820.93 888.29 809.09 888.29 809.09"/><polygon class="af" points="28.62 426 23.24 433.54 23.24 595.63 28.62 603.17 28.62 426 28.62 426"/><polygon class="ao" points="1289.38 426 1294.76 433.54 1294.76 595.63 1289.38 603.17 1289.38 426 1289.38 426"/><polygon class="ac" points="906.24 75.19 906.24 90.7 890.73 90.7 906.24 75.19 906.24 75.19"/><polygon class="bd" points="424.85 81.44 879.26 81.44 896.98 63.72 896.98 27.18 893.15 23.34 424.85 23.34 421.02 27.18 421.02 77.61 424.85 81.44 424.85 81.44"/><path class="b`" d="M427.21,75.75l-.5-.5V29.53l.5-.5h463.58l.5,.5v31.83l-14.39,14.39H427.21Zm448.51-2.85l12.72-12.72V31.88H440.94v41.03h434.79Z"/><g><polygon class="ar" points="143.34 790.9 583.44 105.17 938.99 105.17 498.9 790.9 143.34 790.9"/><polygon class="ax" points="572.98 790.9 1013.08 105.17 1146.11 105.17 706.01 790.9 572.98 790.9"/><polygon class="aj" points="46.81 367.03 214.87 105.17 429.71 105.17 46.81 701.78 46.81 367.03"/></g></g><g class="ba"><image transform="translate(-1400.21 -27.82) scale(.83)" xlink:href="Soy Henry/06 - PG/Diseño/web general/playroom/protoss.jpg"/></g></g></g></svg>