<?xml version="1.0" encoding="UTF-8"?><svg xmlns="http://www.w3.org/2000/svg" xmlns:xlink="http://www.w3.org/1999/xlink" viewBox="0 0 216 78"><defs><style>.j{opacity:.75;}.j,.k,.l,.m,.n,.o,.p,.q{fill-rule:evenodd;}.j,.l,.q{fill:#fff;mix-blend-mode:screen;}.k{fill:url(#g);}.r{isolation:isolate;}.m{fill:url(#h);}.n{fill:url(#c);}.o{fill:url(#f);}.p{fill:url(#i);}.s{fill:url(#d);}.q{opacity:.3;}.t{fill:url(#e);}.u{opacity:.09;}</style><linearGradient id="c" x1="203.37" y1="36.66" x2="12.79" y2="36.66" gradientTransform="matrix(1, 0, 0, 1, 0, 0)" gradientUnits="userSpaceOnUse"><stop offset="0" stop-color="#ff3f45"/><stop offset=".19" stop-color="#de2635"/><stop offset=".39" stop-color="#c11127"/><stop offset=".57" stop-color="#b0041e"/><stop offset=".7" stop-color="#aa001c"/><stop offset=".7" stop-color="#aa001b"/><stop offset=".87" stop-color="#b9000a"/><stop offset="1" stop-color="#bf0005"/></linearGradient><linearGradient id="d" x1="216.16" y1="38.82" x2="0" y2="38.82" xlink:href="#c"/><linearGradient id="e" x1="207.61" y1="36.66" x2="8.55" y2="36.66" xlink:href="#c"/><linearGradient id="f" x1="207.61" y1="10.73" x2="189.75" y2="10.73" xlink:href="#c"/><linearGradient id="g" x1="192.69" y1="10.73" x2="183.42" y2="10.73" xlink:href="#c"/><linearGradient id="h" x1="186.36" y1="10.73" x2="177.09" y2="10.73" xlink:href="#c"/><linearGradient id="i" x1="7.76" y1="69.45" x2="0" y2="69.45" xlink:href="#c"/></defs><g class="r"><g id="a"/><g id="b"><polygon class="n" points="203.37 60.54 203.37 19.03 181.3 19.03 172.57 12.79 12.79 12.79 12.79 56.55 16.78 60.54 203.37 60.54 203.37 60.54"/><path class="s" d="M12.44,71.01H209.12l4.72-4.72V7.04l-4.72-4.72H7.04L2.31,7.04V60.89l10.12,10.12h0Zm131.14,2.31l-6.04,4.32h-58.92l-6.04-4.32H11.48L0,61.85V6.08L6.08,0H210.08l6.08,6.08v61.17l-6.08,6.08h-66.5Z"/><path class="t" d="M15.5,63.62H205.25l1.2-1.2V15.94h-24.16l-8.73-6.24H10.91l-1.2,1.2V57.83l5.79,5.79h0Zm189.99,1.16H15.02l-6.47-6.47V10.43l1.88-1.88H173.93l8.73,6.24h24.96V62.9l-1.88,1.88h-.24Z"/><polygon class="o" points="207.61 8.55 207.61 12.91 195.86 12.91 189.75 8.55 207.61 8.55 207.61 8.55"/><polygon class="k" points="186.59 8.55 183.42 8.55 189.53 12.91 192.69 12.91 186.59 8.55 186.59 8.55"/><polygon class="m" points="180.26 8.55 177.09 8.55 183.2 12.91 186.36 12.91 180.26 8.55 180.26 8.55"/><polygon class="p" points="0 65.57 0 73.33 7.76 73.33 0 65.57 0 65.57"/><g class="u"><polygon class="l" points="34.33 60.54 64.97 12.79 131.44 12.79 100.8 60.54 34.33 60.54"/><polygon class="q" points="105.95 60.54 136.6 12.79 158.43 12.79 127.78 60.54 105.95 60.54"/><polygon class="j" points="12.79 54.11 39.31 12.79 54.27 12.79 23.62 60.54 16.78 60.54 12.79 56.55 12.79 54.11"/></g></g></g></svg>