<?xml version="1.0" encoding="UTF-8"?><svg xmlns="http://www.w3.org/2000/svg" xmlns:xlink="http://www.w3.org/1999/xlink" viewBox="0 0 20 20"><defs><style>.f{fill:#0c2738;}.f,.g,.h,.i,.j,.k{fill-rule:evenodd;}.l{fill:#c1272d;}.m{isolation:isolate;}.g{fill:url(#c);}.h{fill:#1f71b2;mix-blend-mode:screen;}.i{fill:url(#b);}.j{fill:url(#e);}.k{fill:url(#d);}</style><linearGradient id="b" x1="-103.77" y1="-219.8" x2="-103.77" y2="-237.37" gradientTransform="translate(-78.26 245.01) rotate(45)" gradientUnits="userSpaceOnUse"><stop offset="0" stop-color="#3a597d"/><stop offset="1" stop-color="#81b0ef"/></linearGradient><linearGradient id="c" x1="-103.77" y1="-219.8" x2="-103.77" y2="-237.37" gradientTransform="translate(-78.26 245.01) rotate(45)" gradientUnits="userSpaceOnUse"><stop offset="0" stop-color="#81b0ef"/><stop offset="1" stop-color="#3a597d"/></linearGradient><linearGradient id="d" x1="-103.77" y1="-220.86" x2="-103.77" y2="-236.3" gradientTransform="translate(-78.26 245.01) rotate(45)" gradientUnits="userSpaceOnUse"><stop offset="0" stop-color="#00164f"/><stop offset=".42" stop-color="#042474"/><stop offset=".78" stop-color="#062d8e"/><stop offset="1" stop-color="#083198"/></linearGradient><linearGradient id="e" x1="-103.77" y1="-221.83" x2="-103.77" y2="-235.34" gradientTransform="translate(-78.26 245.01) rotate(45)" gradientUnits="userSpaceOnUse"><stop offset="0" stop-color="#001e6b"/><stop offset="1" stop-color="#0056b9"/></linearGradient></defs><g class="m"><g id="a"><g><g><path class="f" d="M16.21,3.79c3.43,3.43,3.43,8.99,0,12.42s-8.99,3.43-12.42,0-3.43-8.99,0-12.42,8.99-3.43,12.42,0h0Z"/><path class="i" d="M16.21,3.79c3.43,3.43,3.43,8.99,0,12.42s-8.99,3.43-12.42,0-3.43-8.99,0-12.42,8.99-3.43,12.42,0h0Zm.75,13.18c3.85-3.85,3.85-10.08,0-13.93-3.85-3.85-10.08-3.85-13.93,0s-3.85,10.08,0,13.93c3.85,3.85,10.08,3.85,13.93,0h0Z"/><path class="g" d="M16.21,16.21c3.43-3.43,3.43-8.99,0-12.42-3.43-3.43-8.99-3.43-12.42,0s-3.43,8.99,0,12.42,8.99,3.43,12.42,0h0Zm-.75-11.67c3.02,3.02,3.01,7.9,0,10.92-3.02,3.02-7.9,3.02-10.92,0s-3.02-7.9,0-10.92,7.9-3.01,10.92,0h0Z"/><path class="k" d="M15.46,4.54c3.02,3.02,3.01,7.9,0,10.92-3.02,3.02-7.9,3.02-10.92,0s-3.02-7.9,0-10.92,7.9-3.02,10.92,0h0Z"/><path class="h" d="M10,3.06c3.69,0,6.68,3.11,6.68,6.94,0,3.83-2.99,6.94-6.68,6.94-3.69,0-6.68-3.11-6.68-6.94,0-3.83,2.99-6.94,6.68-6.94h0Z"/><path class="j" d="M14.78,5.22c2.64,2.64,2.64,6.92,0,9.55s-6.92,2.64-9.55,0-2.64-6.92,0-9.55,6.92-2.64,9.55,0h0Z"/></g><rect class="l" x="5.24" y="8.71" width="9.36" height="2.08" transform="translate(9.8 -4.16) rotate(45)"/><rect class="l" x="5.24" y="8.71" width="9.36" height="2.08" transform="translate(23.83 9.64) rotate(135)"/></g></g></g></svg>