<?xml version="1.0" encoding="UTF-8"?><svg xmlns="http://www.w3.org/2000/svg" xmlns:xlink="http://www.w3.org/1999/xlink" viewBox="0 0 316 78"><defs><style>.m{fill:url(#j);}.m,.n,.o,.p,.q,.r,.s,.t{fill-rule:evenodd;}.m,.n,.s{mix-blend-mode:screen;}.n{fill:url(#k);opacity:.3;}.o{fill:url(#g);}.u{isolation:isolate;}.p{fill:url(#h);}.q{fill:url(#c);}.r{fill:url(#f);}.s{fill:url(#l);opacity:.75;}.t{fill:url(#i);}.v{fill:url(#d);}.w{fill:url(#e);}</style><linearGradient id="c" x1="12.79" y1="36.66" x2="303.37" y2="36.66" gradientTransform="matrix(1, 0, 0, 1, 0, 0)" gradientUnits="userSpaceOnUse"><stop offset="0" stop-color="#0a1c4a"/><stop offset=".16" stop-color="#081d4f"/><stop offset=".38" stop-color="#052060"/><stop offset=".49" stop-color="#04226b"/><stop offset=".59" stop-color="#032671"/><stop offset=".73" stop-color="#023182"/><stop offset=".88" stop-color="#01449f"/><stop offset="1" stop-color="#0056b9"/></linearGradient><linearGradient id="d" x1="0" y1="38.82" x2="316.16" y2="38.82" xlink:href="#c"/><linearGradient id="e" x1="8.55" y1="36.67" x2="307.61" y2="36.67" xlink:href="#c"/><linearGradient id="f" x1="289.75" y1="10.73" x2="307.61" y2="10.73" xlink:href="#c"/><linearGradient id="g" x1="283.42" y1="10.73" x2="292.69" y2="10.73" xlink:href="#c"/><linearGradient id="h" x1="277.09" y1="10.73" x2="286.36" y2="10.73" xlink:href="#c"/><linearGradient id="i" x1="0" y1="69.45" x2="7.76" y2="69.45" xlink:href="#c"/><radialGradient id="j" cx="54.31" cy="-15.73" fx="54.31" fy="-15.73" r="87.54" gradientTransform="matrix(1, 0, 0, 1, 0, 0)" gradientUnits="userSpaceOnUse"><stop offset="0" stop-color="#2b1f7a"/><stop offset=".43" stop-color="#191248"/><stop offset="1" stop-color="#000"/></radialGradient><radialGradient id="k" cx="156.18" cy="4.26" fx="156.18" fy="4.26" r="58.55" xlink:href="#j"/><radialGradient id="l" cx="57.38" cy="13.47" fx="57.38" fy="13.47" r="51.16" xlink:href="#j"/></defs><g class="u"><g id="a"/><g id="b"><polygon class="q" points="303.37 60.54 303.37 19.03 281.3 19.03 272.57 12.79 12.79 12.79 12.79 56.55 16.78 60.54 303.37 60.54 303.37 60.54"/><path class="v" d="M12.44,71.01H309.12l4.72-4.72V7.04l-4.72-4.72H7.04L2.31,7.04V60.89l10.12,10.12h0Zm176.14,2.31l-6.04,4.32h-58.92l-6.04-4.32H11.48L0,61.85V6.08L6.08,0H310.08l6.08,6.08v61.17l-6.08,6.08h-121.5Z"/><path class="w" d="M15.5,63.62H305.25l1.2-1.2V15.94h-24.16l-8.73-6.24H10.91l-1.2,1.2V57.83l5.79,5.79h0Zm289.99,1.16H15.02l-6.47-6.47V10.43l1.88-1.88H273.93l8.73,6.24h24.96V62.9l-1.88,1.88h-.24Z"/><polygon class="r" points="307.61 8.55 307.61 12.91 295.86 12.91 289.75 8.55 307.61 8.55 307.61 8.55"/><polygon class="o" points="286.59 8.55 283.42 8.55 289.53 12.91 292.69 12.91 286.59 8.55 286.59 8.55"/><polygon class="p" points="280.26 8.55 277.09 8.55 283.2 12.91 286.36 12.91 280.26 8.55 280.26 8.55"/><polygon class="t" points="0 65.57 0 73.33 7.76 73.33 0 65.57 0 65.57"/><g><polygon class="m" points="34.33 60.54 64.97 12.79 131.44 12.79 100.8 60.54 34.33 60.54"/><polygon class="n" points="105.95 60.54 136.6 12.79 158.43 12.79 127.78 60.54 105.95 60.54"/><polygon class="s" points="12.79 54.11 39.31 12.79 54.27 12.79 23.62 60.54 16.78 60.54 12.79 56.55 12.79 54.11"/></g></g></g></svg>