<?xml version="1.0" encoding="UTF-8"?><svg xmlns="http://www.w3.org/2000/svg" xmlns:xlink="http://www.w3.org/1999/xlink" viewBox="0 0 316 78"><defs><style>.m{fill:url(#j);}.m,.n,.o,.p,.q,.r,.s,.t{fill-rule:evenodd;}.m,.n,.s{mix-blend-mode:screen;}.n{fill:url(#k);opacity:.3;}.o{fill:url(#g);}.u{isolation:isolate;}.p{fill:url(#h);}.q{fill:url(#c);}.r{fill:url(#f);}.s{fill:url(#l);opacity:.75;}.t{fill:url(#i);}.v{fill:url(#d);}.w{fill:url(#e);}</style><linearGradient id="c" x1="303.37" y1="36.66" x2="12.79" y2="36.66" gradientTransform="matrix(1, 0, 0, 1, 0, 0)" gradientUnits="userSpaceOnUse"><stop offset="0" stop-color="#fcdd73"/><stop offset=".08" stop-color="#f3ca5f"/><stop offset=".27" stop-color="#e1a238"/><stop offset=".44" stop-color="#d4861b"/><stop offset=".59" stop-color="#cc750a"/><stop offset=".7" stop-color="#ca6f04"/><stop offset=".7" stop-color="#c76d03"/><stop offset=".77" stop-color="#975302"/><stop offset=".84" stop-color="#713f01"/><stop offset=".9" stop-color="#563000"/><stop offset=".96" stop-color="#452800"/><stop offset="1" stop-color="#402500"/></linearGradient><linearGradient id="d" x1="316.16" y1="38.82" x2="0" y2="38.82" xlink:href="#c"/><linearGradient id="e" x1="307.61" y1="36.67" x2="8.55" y2="36.67" xlink:href="#c"/><linearGradient id="f" x1="307.61" y1="10.73" x2="289.75" y2="10.73" xlink:href="#c"/><linearGradient id="g" x1="292.69" y1="10.73" x2="283.42" y2="10.73" xlink:href="#c"/><linearGradient id="h" x1="286.36" y1="10.73" x2="277.09" y2="10.73" xlink:href="#c"/><linearGradient id="i" x1="7.76" y1="69.45" x2="0" y2="69.45" xlink:href="#c"/><linearGradient id="j" x1="131.44" x2="34.33" y2="36.66" xlink:href="#c"/><linearGradient id="k" x1="158.43" x2="105.95" y2="36.66" xlink:href="#c"/><linearGradient id="l" x1="54.27" y2="36.66" xlink:href="#c"/></defs><g class="u"><g id="a"/><g id="b"><polygon class="q" points="303.37 60.54 303.37 19.03 281.3 19.03 272.57 12.79 12.79 12.79 12.79 56.55 16.78 60.54 303.37 60.54 303.37 60.54"/><path class="v" d="M12.44,71.01H309.12l4.72-4.72V7.04l-4.72-4.72H7.04L2.31,7.04V60.89l10.12,10.12h0Zm176.14,2.31l-6.04,4.32h-58.92l-6.04-4.32H11.48L0,61.85V6.08L6.08,0H310.08l6.08,6.08v61.17l-6.08,6.08h-121.5Z"/><path class="w" d="M15.5,63.62H305.25l1.2-1.2V15.94h-24.16l-8.73-6.24H10.91l-1.2,1.2V57.83l5.79,5.79h0Zm289.99,1.16H15.02l-6.47-6.47V10.43l1.88-1.88H273.93l8.73,6.24h24.96V62.9l-1.88,1.88h-.24Z"/><polygon class="r" points="307.61 8.55 307.61 12.91 295.86 12.91 289.75 8.55 307.61 8.55 307.61 8.55"/><polygon class="o" points="286.59 8.55 283.42 8.55 289.53 12.91 292.69 12.91 286.59 8.55 286.59 8.55"/><polygon class="p" points="280.26 8.55 277.09 8.55 283.2 12.91 286.36 12.91 280.26 8.55 280.26 8.55"/><polygon class="t" points="0 65.57 0 73.33 7.76 73.33 0 65.57 0 65.57"/><g><polygon class="m" points="34.33 60.54 64.97 12.79 131.44 12.79 100.8 60.54 34.33 60.54"/><polygon class="n" points="105.95 60.54 136.6 12.79 158.43 12.79 127.78 60.54 105.95 60.54"/><polygon class="s" points="12.79 54.11 39.31 12.79 54.27 12.79 23.62 60.54 16.78 60.54 12.79 56.55 12.79 54.11"/></g></g></g></svg>