<svg xmlns="http://www.w3.org/2000/svg" xmlns:xlink="http://www.w3.org/1999/xlink" viewBox="0 0 171 173"><defs><style>.au{fill:url(#y);}.au,.av,.aw,.ax,.ay,.b`,.ba,.bb,.bc,.bd,.be,.bf,.bg,.bh,.bi,.bj,.bk,.bl,.bm,.bn,.bo,.bp,.bq,.br,.bs,.bt,.bu,.bv,.bw,.bx,.by,.c`,.ca,.cb,.cc,.cd,.ce,.cf,.cg,.ch,.ci{fill-rule:evenodd;}.av{fill:url(#v);}.aw{fill:url(#an);opacity:.2;}.aw,.ay,.bg,.bk,.bo,.bq,.br,.bu,.bw,.ca,.ce,.ch,.ci{mix-blend-mode:screen;}.ax{fill:url(#r);}.ay{fill:url(#j);}.b`{fill:url(#t);}.ba{fill:url(#g);}.bb{fill:url(#af);}.bc{fill:url(#ae);}.cj{fill:url(#ah);}.bd{fill:url(#p);}.ck{isolation:isolate;}.be{fill:url(#h);}.bf{fill:url(#c);}.cl{fill:url(#ao);}.bg{fill:url(#ac);}.bh{fill:url(#k);}.bi{fill:url(#f);}.bj{fill:url(#u);}.bk{fill:url(#w);}.bl{fill:url(#m);}.bm{fill:url(#s);}.bn{fill:url(#ab);}.bo{fill:url(#aq);}.bp{fill:url(#ag);}.bq{fill:url(#ak);}.br{fill:url(#ai);}.bs{fill:url(#am);}.bt{fill:url(#i);}.bu{fill:url(#aj);}.bv{fill:url(#ad);}.bw{fill:url(#al);}.bx{fill:url(#x);}.by{fill:url(#aa);}.c`{fill:url(#e);}.ca{fill:url(#q);}.cm{fill:url(#at);}.cb{fill:url(#l);}.cc{fill:url(#d);}.cd{fill:url(#n);}.ce{fill:url(#ap);}.cf{fill:url(#o);}.cg{fill:url(#a`);}.ch{fill:url(#as);}.ci{fill:url(#ar);}</style><linearGradient id="c" x1="150.49" y1="151.49" x2="142.55" y2="143.55" gradientTransform="matrix(1, 0, 0, 1, 0, 0)" gradientUnits="userSpaceOnUse"><stop offset="0" stop-color="#4e6886"/><stop offset="1" stop-color="#283f5e"/></linearGradient><linearGradient id="d" x1="20.51" y1="151.49" x2="28.45" y2="143.55" xlink:href="#c"/><linearGradient id="e" x1="28.45" y1="29.45" x2="20.51" y2="21.51" gradientTransform="matrix(1, 0, 0, 1, 0, 0)" gradientUnits="userSpaceOnUse"><stop offset="0" stop-color="#283f5e"/><stop offset="1" stop-color="#4e6886"/></linearGradient><linearGradient id="f" x1="142.55" y1="29.45" x2="150.49" y2="21.51" xlink:href="#e"/><linearGradient id="g" x1="85.5" y1="171.58" x2="85.5" y2="1.42" gradientTransform="matrix(1, 0, 0, 1, 0, 0)" gradientUnits="userSpaceOnUse"><stop offset="0" stop-color="#81b0ef"/><stop offset="1" stop-color="#3a597d"/></linearGradient><linearGradient id="h" x1="85.5" y1="171.58" x2="85.5" y2="1.42" gradientTransform="matrix(1, 0, 0, 1, 0, 0)" gradientUnits="userSpaceOnUse"><stop offset="0" stop-color="#3a597d"/><stop offset="1" stop-color="#81b0ef"/></linearGradient><radialGradient id="i" cx="23.72" cy="24.72" fx="23.72" fy="24.72" r="10.24" gradientTransform="matrix(1, 0, 0, 1, 0, 0)" gradientUnits="userSpaceOnUse"><stop offset="0" stop-color="#f2f680"/><stop offset="1" stop-color="#e7c821"/></radialGradient><radialGradient id="j" cx="23.42" cy="24.42" fx="23.42" fy="24.42" r="9.21" gradientTransform="matrix(1, 0, 0, 1, 0, 0)" gradientUnits="userSpaceOnUse"><stop offset="0" stop-color="#e7ff57"/><stop offset="1" stop-color="#000"/></radialGradient><linearGradient id="k" x1="12.84" y1="35.41" x2="14.45" y2="32.6" gradientTransform="matrix(1, 0, 0, 1, 0, 0)" gradientUnits="userSpaceOnUse"><stop offset="0" stop-color="#7596aa"/><stop offset="1" stop-color="#476b90"/></linearGradient><linearGradient id="l" x1="21.9" y1="32.04" x2="21.9" y2="13.75" gradientTransform="matrix(1, 0, 0, 1, 0, 0)" gradientUnits="userSpaceOnUse"><stop offset="0" stop-color="#6581c3"/><stop offset="1" stop-color="#3c597d"/></linearGradient><linearGradient id="m" x1="24.86" y1="25.86" x2="23.52" y2="24.52" gradientTransform="matrix(1, 0, 0, 1, 0, 0)" gradientUnits="userSpaceOnUse"><stop offset="0" stop-color="#93acb9"/><stop offset="1" stop-color="#95b767"/></linearGradient><linearGradient id="n" x1="30.93" y1="14.67" x2="35.31" y2="14.67" gradientTransform="matrix(1, 0, 0, 1, 0, 0)" gradientUnits="userSpaceOnUse"><stop offset="0" stop-color="#476b90"/><stop offset="1" stop-color="#7596aa"/></linearGradient><linearGradient id="o" x1="85.5" y1="170.3" x2="85.5" y2="2.72" xlink:href="#g"/><radialGradient id="p" cx="-1039.43" fx="-1039.43" r="10.24" gradientTransform="translate(-892.15) rotate(-180) scale(1 -1)" xlink:href="#i"/><radialGradient id="q" cx="-1039.74" fx="-1039.74" gradientTransform="translate(-892.15) rotate(-180) scale(1 -1)" xlink:href="#j"/><linearGradient id="r" x1="-1050.32" y1="35.41" x2="-1048.7" y2="32.6" gradientTransform="translate(-892.15) rotate(-180) scale(1 -1)" xlink:href="#k"/><linearGradient id="s" x1="-1041.26" y1="32.04" x2="-1041.26" y2="13.75" gradientTransform="translate(-892.15) rotate(-180) scale(1 -1)" xlink:href="#l"/><linearGradient id="t" x1="-1038.3" y1="25.86" x2="-1039.64" y2="24.52" gradientTransform="translate(-892.15) rotate(-180) scale(1 -1)" xlink:href="#m"/><linearGradient id="u" x1="-1032.22" x2="-1027.84" gradientTransform="translate(-892.15) rotate(-180) scale(1 -1)" xlink:href="#n"/><radialGradient id="v" cx="-1039.43" cy="3325.09" fx="-1039.43" fy="3325.09" r="10.24" gradientTransform="translate(-892.15 3473.37) rotate(-180)" xlink:href="#i"/><radialGradient id="w" cx="-1039.74" cy="3324.78" fx="-1039.74" fy="3324.78" r="9.21" gradientTransform="translate(-892.15 3473.37) rotate(-180)" xlink:href="#j"/><linearGradient id="x" x1="-1050.32" y1="3335.77" x2="-1048.7" y2="3332.97" gradientTransform="translate(-892.15 3473.37) rotate(-180)" xlink:href="#k"/><linearGradient id="y" x1="-1041.26" y1="3332.41" x2="-1041.26" y2="3314.12" gradientTransform="translate(-892.15 3473.37) rotate(-180)" xlink:href="#m"/><linearGradient id="a`" x1="-1038.3" y1="3326.22" x2="-1039.64" y2="3324.88" gradientTransform="translate(-892.15 3473.37) rotate(-180)" xlink:href="#l"/><linearGradient id="aa" x1="-1032.22" y1="3315.03" x2="-1027.84" y2="3315.03" gradientTransform="translate(-892.15 3473.37) rotate(-180)" xlink:href="#n"/><radialGradient id="ab" cx="61.74" cy="3325.09" fx="61.74" fy="3325.09" r="10.24" gradientTransform="translate(-38.02 3473.37) scale(1 -1)" xlink:href="#i"/><radialGradient id="ac" cx="61.44" cy="3324.78" fx="61.44" fy="3324.78" r="9.21" gradientTransform="translate(-38.02 3473.37) scale(1 -1)" xlink:href="#j"/><linearGradient id="ad" x1="50.86" y1="3335.77" x2="52.48" y2="3332.97" gradientTransform="translate(-38.02 3473.37) scale(1 -1)" xlink:href="#k"/><linearGradient id="ae" x1="59.92" y1="3332.41" x2="59.92" y2="3314.12" gradientTransform="translate(-38.02 3473.37) scale(1 -1)" xlink:href="#m"/><linearGradient id="af" x1="62.88" y1="3326.22" x2="61.54" y2="3324.88" gradientTransform="translate(-38.02 3473.37) scale(1 -1)" xlink:href="#l"/><linearGradient id="ag" x1="68.96" y1="3315.03" x2="73.33" y2="3315.03" gradientTransform="translate(-38.02 3473.37) scale(1 -1)" xlink:href="#n"/><radialGradient id="ah" cx="154.21" cy="85.65" fx="154.21" fy="85.65" r="126.24" gradientTransform="matrix(1, 0, 0, 1, 0, 0)" gradientUnits="userSpaceOnUse"><stop offset="0" stop-color="#60d5fa"/><stop offset="1" stop-color="#0053af"/></radialGradient><radialGradient id="ai" cx="8780.92" cy="-5132.68" fx="8780.92" fy="-5132.68" r="135.18" gradientTransform="translate(-484.77 1467.35) rotate(-45) scale(.16 .13)" gradientUnits="userSpaceOnUse"><stop offset="0" stop-color="#c6c617"/><stop offset=".19" stop-color="#8f8f10"/><stop offset=".39" stop-color="#5c5c0a"/><stop offset=".57" stop-color="#343406"/><stop offset=".74" stop-color="#171702"/><stop offset=".89" stop-color="#060600"/><stop offset="1" stop-color="#000"/></radialGradient><radialGradient id="aj" cx="8780.92" cy="-3774.85" fx="8780.92" fy="-3774.85" r="135.18" xlink:href="#ai"/><radialGradient id="ak" cx="-5672.01" cy="-10877.77" fx="-5672.01" fy="-10877.77" r="135.18" gradientTransform="translate(-212.44 1644.76) rotate(45) scale(.16 .13)" xlink:href="#ai"/><radialGradient id="al" cx="-5672.01" cy="-9519.94" fx="-5672.01" fy="-9519.94" r="135.18" gradientTransform="translate(-212.44 1644.76) rotate(45) scale(.16 .13)" xlink:href="#ai"/><radialGradient id="am" cx="84.3" cy="5.27" fx="84.3" fy="5.27" r="161.6" gradientTransform="matrix(1, 0, 0, 1, 0, 0)" gradientUnits="userSpaceOnUse"><stop offset="0" stop-color="#0056b9"/><stop offset=".12" stop-color="#01449f"/><stop offset=".27" stop-color="#023182"/><stop offset=".41" stop-color="#032671"/><stop offset=".51" stop-color="#04226b"/><stop offset=".62" stop-color="#052060"/><stop offset=".84" stop-color="#081d4f"/><stop offset="1" stop-color="#0a1c4a"/></radialGradient><radialGradient id="an" cx="52.8" cy="2.42" fx="52.8" fy="2.42" r="191.27" gradientTransform="matrix(1, 0, 0, 1, 0, 0)" gradientUnits="userSpaceOnUse"><stop offset="0" stop-color="#274580"/><stop offset="1" stop-color="#000"/></radialGradient><radialGradient id="ao" cx="35.84" cy="84.77" fx="35.84" fy="84.77" r="109.31" xlink:href="#ah"/><linearGradient id="ap" x1="18.16" y1="125.09" x2="18.16" y2="47.91" gradientTransform="matrix(1, 0, 0, 1, 0, 0)" gradientUnits="userSpaceOnUse"><stop offset="0" stop-color="#006e78"/><stop offset="1" stop-color="#000"/></linearGradient><linearGradient id="aq" x1="46.91" y1="19.17" x2="124.09" y2="19.17" xlink:href="#ap"/><linearGradient id="ar" x1="152.84" y1="125.09" x2="152.84" y2="47.91" gradientTransform="matrix(1, 0, 0, 1, 0, 0)" gradientUnits="userSpaceOnUse"><stop offset="0" stop-color="#000"/><stop offset="1" stop-color="#006e78"/></linearGradient><linearGradient id="as" x1="46.91" y1="153.83" x2="124.09" y2="153.83" xlink:href="#ar"/><radialGradient id="at" cx="37.14" cy="36.11" fx="37.14" fy="36.11" r="144.92" gradientTransform="matrix(1, 0, 0, 1, 0, 0)" gradientUnits="userSpaceOnUse"><stop offset="0" stop-color="#60d5fa"/><stop offset="1" stop-color="#0268d8"/></radialGradient></defs><g class="ck"><g id="a"/><g id="b"><g><path class="bf" d="M158.59,127.5l-16.05,16.05-16.05,16.05,12.92,1.71c.62,.08,1.2-.07,1.66-.4l9.36-9.46,9.46-9.36c.34-.46,.48-1.04,.4-1.66l-1.71-12.92h0Z"/><path class="cc" d="M44.5,159.59l-16.05-16.05-16.05-16.05-1.71,12.92c-.08,.62,.07,1.2,.4,1.66l9.46,9.36,9.36,9.46c.46,.34,1.04,.48,1.66,.4l12.92-1.71h0Z"/><path class="c`" d="M12.41,45.5L28.45,29.45,44.5,13.41l-12.92-1.71c-.62-.08-1.2,.07-1.66,.4l-9.36,9.46-9.46,9.36c-.34,.46-.48,1.04-.4,1.66l1.71,12.92h0Z"/><path class="bi" d="M126.5,13.41l16.05,16.05,16.05,16.05,1.71-12.92c.08-.62-.07-1.2-.4-1.66l-9.46-9.36-9.36-9.46c-.46-.34-1.04-.48-1.66-.4l-12.92,1.71h0Z"/><path class="ba" d="M85.5,1.42c46.99,0,85.08,38.09,85.08,85.08s-38.09,85.08-85.08,85.08S.42,133.49,.42,86.5,38.51,1.42,85.5,1.42h0Zm0,2.58c45.56,0,82.5,36.94,82.5,82.5s-36.94,82.5-82.5,82.5S3,132.06,3,86.5,39.94,4,85.5,4h0Z"/><path class="be" d="M85.5,2.71c17.85,0,34.38,5.58,47.97,15.09l20.72,20.72c9.51,13.59,15.09,30.13,15.09,47.97s-5.58,34.38-15.09,47.97l-20.72,20.72c-13.59,9.51-30.13,15.09-47.97,15.09s-34.38-5.58-47.97-15.09l-20.72-20.72C7.29,120.89,1.71,104.35,1.71,86.5s5.58-34.38,15.09-47.97l20.72-20.72c13.59-9.51,30.13-15.09,47.97-15.09h0ZM13.92,132.5l-3.04,8.05c-.2,.53-.12,1.08,.22,1.54,2.63,3.51,5.55,6.88,8.74,10.08,3.19,3.2,6.56,6.11,10.08,8.74,.45,.34,1,.42,1.54,.22l8.05-3.04c13.26,8.54,29.05,13.5,46,13.5s32.73-4.96,46-13.5l8.05,3.04c.53,.2,1.08,.12,1.54-.22,3.51-2.63,6.88-5.55,10.08-8.74,3.19-3.2,6.11-6.56,8.74-10.08,.34-.45,.42-1,.22-1.54l-3.04-8.05c8.54-13.26,13.5-29.05,13.5-46s-4.96-32.74-13.5-46l3.04-8.05c.2-.53,.12-1.08-.22-1.54-2.63-3.51-5.55-6.88-8.74-10.08-3.2-3.2-6.57-6.11-10.08-8.74-.45-.34-1-.42-1.54-.22l-8.05,3.04C118.24,6.38,102.45,1.42,85.5,1.42S52.76,6.38,39.5,14.92l-8.05-3.04c-.53-.2-1.08-.12-1.54,.22-3.51,2.63-6.88,5.55-10.08,8.74-3.2,3.2-6.11,6.57-8.74,10.08-.34,.45-.42,1-.22,1.54l3.04,8.05C5.38,53.76,.42,69.55,.42,86.5s4.96,32.74,13.5,46h0Z"/><g><path class="bt" d="M14.58,34.96c2.7-3.71,5.69-7.2,8.94-10.44,3.24-3.25,6.74-6.23,10.44-8.94l-2.92-1.1c-3.31,2.51-6.44,5.25-9.38,8.18-2.94,2.94-5.67,6.07-8.18,9.38l1.1,2.92h0Z"/><path class="ay" d="M14.77,33.62c2.53-3.38,5.31-6.58,8.29-9.56,2.99-2.99,6.18-5.76,9.56-8.29l-1.48-.56c-3.18,2.43-6.2,5.08-9.03,7.91-2.83,2.83-5.48,5.85-7.91,9.03l.56,1.48h0Z"/><polygon class="bh" points="14.58 34.96 13.48 32.04 12.75 31.93 14.4 36.31 14.58 34.96 14.58 34.96"/><path class="cb" d="M13.48,32.04c2.51-3.31,5.24-6.44,8.18-9.38,2.94-2.94,6.07-5.67,9.38-8.18l-.1-.73c-3.44,2.59-6.69,5.41-9.73,8.45-3.04,3.04-5.87,6.29-8.45,9.73l.73,.11h0Z"/><path class="bl" d="M23.52,24.52c-3.25,3.25-6.24,6.74-8.94,10.44l-.18,1.35c2.86-4.04,6.07-7.83,9.57-11.34,3.5-3.5,7.3-6.71,11.34-9.57l-1.35,.18c-3.71,2.7-7.2,5.69-10.44,8.94h0Z"/><polygon class="cd" points="31.04 14.48 33.96 15.58 35.31 15.4 30.93 13.75 31.04 14.48 31.04 14.48"/></g><path class="cf" d="M85.5,2.72c46.28,0,83.79,37.51,83.79,83.79s-37.51,83.79-83.79,83.79S1.71,132.78,1.71,86.51,39.22,2.72,85.5,2.72h0Zm0,1.29c45.56,0,82.5,36.94,82.5,82.5s-36.94,82.5-82.5,82.5S3,132.07,3,86.51,39.94,4,85.5,4h0Z"/><g><path class="bd" d="M156.42,34.96c-2.7-3.71-5.69-7.2-8.94-10.44-3.24-3.25-6.74-6.23-10.44-8.94l2.92-1.1c3.31,2.51,6.44,5.25,9.38,8.18,2.94,2.94,5.67,6.07,8.18,9.38l-1.1,2.92h0Z"/><path class="ca" d="M156.23,33.62c-2.53-3.38-5.31-6.58-8.29-9.56-2.99-2.99-6.18-5.76-9.56-8.29l1.48-.56c3.18,2.43,6.2,5.08,9.03,7.91,2.83,2.83,5.48,5.85,7.91,9.03l-.56,1.48h0Z"/><polygon class="ax" points="156.42 34.96 157.52 32.04 158.25 31.93 156.6 36.31 156.42 34.96 156.42 34.96"/><path class="bm" d="M157.52,32.04c-2.51-3.31-5.24-6.44-8.18-9.38-2.94-2.94-6.07-5.67-9.38-8.18l.1-.73c3.44,2.59,6.69,5.41,9.73,8.45,3.04,3.04,5.87,6.29,8.45,9.73l-.73,.11h0Z"/><path class="b`" d="M147.48,24.52c3.25,3.25,6.24,6.74,8.94,10.44l.18,1.35c-2.86-4.04-6.07-7.83-9.57-11.34-3.5-3.5-7.3-6.71-11.34-9.57l1.35,.18c3.71,2.7,7.2,5.69,10.44,8.94h0Z"/><polygon class="bj" points="139.96 14.48 137.04 15.58 135.69 15.4 140.06 13.75 139.96 14.48 139.96 14.48"/></g><g><path class="av" d="M156.42,138.04c-2.7,3.71-5.69,7.2-8.94,10.44-3.24,3.25-6.74,6.23-10.44,8.94l2.92,1.1c3.31-2.51,6.44-5.24,9.38-8.18,2.94-2.94,5.67-6.07,8.18-9.38l-1.1-2.92h0Z"/><path class="bk" d="M156.23,139.38c-2.53,3.38-5.31,6.58-8.29,9.56-2.99,2.99-6.18,5.76-9.56,8.29l1.48,.56c3.18-2.43,6.2-5.08,9.03-7.91,2.83-2.83,5.48-5.85,7.91-9.03l-.56-1.48h0Z"/><polygon class="bx" points="156.42 138.04 157.52 140.96 158.25 141.07 156.6 136.69 156.42 138.04 156.42 138.04"/><path class="au" d="M157.52,140.96c-2.51,3.31-5.24,6.44-8.18,9.38-2.94,2.94-6.07,5.67-9.38,8.18l.1,.73c3.44-2.58,6.69-5.41,9.73-8.45,3.04-3.04,5.87-6.29,8.45-9.73l-.73-.11h0Z"/><path class="cg" d="M147.48,148.48c3.25-3.25,6.24-6.74,8.94-10.44l.18-1.35c-2.86,4.04-6.07,7.83-9.57,11.34-3.5,3.5-7.3,6.71-11.34,9.57l1.35-.18c3.71-2.7,7.2-5.69,10.44-8.94h0Z"/><polygon class="by" points="139.96 158.52 137.04 157.42 135.69 157.6 140.06 159.25 139.96 158.52 139.96 158.52"/></g><g><path class="bn" d="M14.58,138.04c2.7,3.71,5.69,7.2,8.94,10.44,3.24,3.25,6.74,6.23,10.44,8.94l-2.92,1.1c-3.31-2.51-6.44-5.24-9.38-8.18-2.94-2.94-5.67-6.07-8.18-9.38l1.1-2.92h0Z"/><path class="bg" d="M14.77,139.38c2.53,3.38,5.31,6.58,8.29,9.56,2.99,2.99,6.18,5.76,9.56,8.29l-1.48,.56c-3.18-2.43-6.2-5.08-9.03-7.91-2.83-2.83-5.48-5.85-7.91-9.03l.56-1.48h0Z"/><polygon class="bv" points="14.58 138.04 13.48 140.96 12.75 141.07 14.4 136.69 14.58 138.04 14.58 138.04"/><path class="bc" d="M13.48,140.96c2.51,3.31,5.24,6.44,8.18,9.38,2.94,2.94,6.07,5.67,9.38,8.18l-.1,.73c-3.44-2.58-6.69-5.41-9.73-8.45-3.04-3.04-5.87-6.29-8.45-9.73l.73-.11h0Z"/><path class="bb" d="M23.52,148.48c-3.25-3.25-6.24-6.74-8.94-10.44l-.18-1.35c2.86,4.04,6.07,7.83,9.57,11.34,3.5,3.5,7.3,6.71,11.34,9.57l-1.35-.18c-3.71-2.7-7.2-5.69-10.44-8.94h0Z"/><polygon class="bp" points="31.04 158.52 33.96 157.42 35.31 157.6 30.93 159.25 31.04 158.52 31.04 158.52"/></g><path class="cj" d="M153.98,86.5c0,18.91-7.67,36.03-20.06,48.42-12.39,12.39-29.51,20.06-48.42,20.06v-.68c18.72,0,35.67-7.59,47.94-19.86,12.27-12.27,19.86-29.22,19.86-47.94h.68Zm-69.17,68.48c.23,0,.46,0,.69,0v-.68c-.23,0-.45,0-.68,0v.68h0Zm-47.04-19.36c.16,.16,.33,.32,.49,.48l.47-.49c-.16-.16-.33-.31-.49-.47l-.47,.49h0Zm2.01,1.87c.17,.15,.34,.3,.51,.46l.45-.51c-.17-.15-.34-.3-.51-.45l-.45,.51h0Zm2.08,1.79c.18,.15,.35,.29,.53,.43l.43-.53c-.18-.14-.35-.29-.53-.43l-.43,.53h0Zm2.15,1.7c.18,.14,.36,.28,.55,.41l.41-.55c-.18-.14-.36-.27-.54-.41l-.41,.54h0Zm2.22,1.62c.19,.13,.37,.26,.56,.39l.39-.56c-.19-.13-.37-.26-.56-.39l-.39,.56h0Zm2.28,1.53c.19,.12,.39,.25,.58,.37l.36-.58c-.19-.12-.38-.24-.57-.36l-.37,.57h0Zm2.34,1.44c.2,.12,.4,.23,.59,.34l.34-.59c-.2-.11-.39-.23-.59-.34l-.34,.59h0Zm2.39,1.34c.2,.11,.4,.21,.61,.32l.31-.61c-.2-.1-.4-.21-.6-.32l-.32,.6h0Zm2.45,1.24c.21,.1,.41,.2,.62,.3l.29-.62c-.21-.1-.41-.19-.61-.29l-.3,.61h0Zm2.49,1.14c.21,.09,.42,.18,.63,.27l.26-.63c-.21-.09-.42-.18-.62-.27l-.27,.63h0Zm2.54,1.04c.21,.08,.43,.16,.64,.24l.24-.64c-.21-.08-.42-.16-.63-.24l-.25,.64h0Zm2.58,.94c.22,.07,.43,.15,.65,.22l.21-.65c-.22-.07-.43-.14-.64-.22l-.22,.65h0Zm2.61,.84c.22,.07,.44,.13,.66,.19l.19-.66c-.22-.06-.43-.13-.65-.19l-.19,.65h0Zm2.64,.73c.22,.06,.44,.11,.66,.17l.16-.66c-.22-.05-.44-.11-.66-.16l-.17,.66h0Zm2.67,.63c.22,.05,.45,.1,.67,.14l.13-.67c-.22-.05-.44-.09-.66-.14l-.14,.67h0Zm2.69,.52c.23,.04,.45,.08,.68,.11l.11-.67c-.22-.04-.45-.07-.67-.11l-.12,.67h0Zm2.71,.41c.23,.03,.45,.06,.68,.09l.08-.68c-.22-.03-.45-.06-.67-.08l-.09,.68h0Zm2.73,.3c.23,.02,.46,.04,.68,.06l.05-.68c-.23-.02-.45-.04-.68-.06l-.06,.68h0Zm2.74,.19c.23,.01,.46,.02,.69,.03l.03-.68c-.23,0-.45-.02-.68-.03l-.03,.68h0Z"/></g><path class="bs" d="M85.5,4c45.57,0,82.51,36.94,82.51,82.5s-36.94,82.5-82.51,82.5S2.99,132.06,2.99,86.5,39.93,4,85.5,4h0Z"/><path class="aw" d="M144.75,24.64L26.25,143.14c15.16,15.16,36.11,24.54,59.25,24.54,46.28,0,83.79-37.51,83.79-83.78,0-23.14-9.38-44.08-24.54-59.25h0Z"/><path class="cl" d="M17.02,86.5c0-18.91,7.67-36.03,20.06-48.42,12.39-12.39,29.51-20.06,48.42-20.06v.68c-18.72,0-35.67,7.59-47.94,19.86-12.27,12.27-19.86,29.22-19.86,47.94h-.68ZM86.19,18.02c-.23,0-.46,0-.68,0v.68c.23,0,.45,0,.68,0v-.68h0Zm47.04,19.36c-.16-.16-.33-.32-.49-.48l-.47,.49c.16,.16,.33,.31,.49,.47l.47-.49h0Zm-2-1.87c-.17-.15-.34-.3-.51-.45l-.45,.51c.17,.15,.34,.3,.51,.45l.46-.51h0Zm-2.08-1.79c-.18-.15-.35-.29-.53-.43l-.43,.53c.18,.14,.35,.29,.53,.43l.43-.53h0Zm-2.15-1.7c-.18-.14-.36-.28-.55-.41l-.41,.55c.18,.14,.36,.27,.54,.41l.41-.54h0Zm-2.21-1.62c-.19-.13-.37-.26-.56-.39l-.39,.56c.19,.13,.37,.26,.56,.39l.39-.56h0Zm-2.28-1.53c-.19-.12-.38-.25-.58-.37l-.36,.58c.19,.12,.38,.24,.57,.36l.37-.57h0Zm-2.34-1.44c-.2-.12-.4-.23-.59-.34l-.34,.59c.2,.11,.39,.23,.59,.34l.34-.59h0Zm-2.39-1.34c-.2-.11-.4-.21-.61-.32l-.31,.61c.2,.1,.4,.21,.6,.32l.32-.6h0Zm-2.45-1.24c-.21-.1-.41-.2-.62-.3l-.29,.62c.2,.1,.41,.19,.61,.29l.3-.61h0Zm-2.49-1.14c-.21-.09-.42-.18-.63-.27l-.26,.63c.21,.09,.42,.18,.62,.27l.27-.63h0Zm-2.54-1.04c-.21-.08-.43-.16-.64-.25l-.24,.64c.21,.08,.42,.16,.63,.24l.25-.64h0Zm-2.58-.94c-.22-.07-.43-.15-.65-.22l-.21,.65c.21,.07,.43,.14,.64,.22l.22-.65h0Zm-2.61-.84c-.22-.07-.44-.13-.66-.19l-.19,.66c.22,.06,.43,.13,.65,.19l.19-.65h0Zm-2.64-.73c-.22-.06-.44-.11-.66-.17l-.16,.66c.22,.05,.44,.11,.66,.17l.17-.66h0Zm-2.67-.63c-.22-.05-.45-.1-.67-.14l-.13,.67c.22,.05,.44,.09,.66,.14l.14-.67h0Zm-2.69-.52c-.23-.04-.45-.08-.68-.11l-.11,.67c.22,.04,.45,.07,.67,.11l.12-.67h0Zm-2.71-.41c-.23-.03-.45-.06-.68-.09l-.08,.68c.22,.03,.45,.06,.67,.08l.09-.68h0Zm-2.73-.3c-.23-.02-.46-.04-.68-.06l-.05,.68c.23,.02,.45,.04,.68,.06l.06-.68h0Zm-2.74-.19c-.23-.01-.46-.02-.69-.03l-.03,.68c.23,0,.45,.02,.68,.03l.03-.68h0Z"/><path class="ce" d="M13.98,86.5c0-14.21,4.15-27.45,11.29-38.59l-4.34,1.52c-6.59,11.48-9.89,24.28-9.89,37.07,0,12.8,3.29,25.59,9.88,37.07l4.35,1.52c-7.15-11.13-11.3-24.38-11.3-38.59h0Z"/><path class="bo" d="M46.91,26.28c11.13-7.15,24.38-11.3,38.59-11.3s27.45,4.15,38.59,11.29l-1.52-4.34c-11.48-6.59-24.28-9.89-37.07-9.89-12.8,0-25.59,3.29-37.07,9.88l-1.52,4.35h0Z"/><path class="ci" d="M157.02,86.5c0,14.21-4.15,27.45-11.29,38.59l4.34-1.52c6.59-11.48,9.89-24.28,9.89-37.07,0-12.8-3.29-25.59-9.88-37.07l-4.35-1.52c7.15,11.13,11.3,24.38,11.3,38.59h0Z"/><path class="ch" d="M124.09,146.72c-11.13,7.15-24.38,11.3-38.59,11.3s-27.46-4.15-38.59-11.29l1.52,4.34c11.48,6.59,24.28,9.89,37.07,9.89,12.8,0,25.59-3.29,37.07-9.88l1.52-4.35h0Z"/><path class="cm" d="M85.5,14.99c14.21,0,27.45,4.15,38.59,11.29l-1.52-4.34c-11.48-6.59-24.28-9.89-37.07-9.89-12.8,0-25.59,3.29-37.07,9.88l-1.52,4.35c11.13-7.15,24.38-11.3,38.59-11.3h0Zm39.91,12.17c3.83,2.58,7.4,5.52,10.66,8.78,3.25,3.25,6.19,6.82,8.78,10.65l5.87,2.06,.09,.16c6.73,11.67,10.1,24.69,10.1,37.71,0,13.02-3.37,26.04-10.1,37.71l-.09,.15-5.87,2.05c-2.58,3.83-5.52,7.4-8.78,10.65-3.25,3.25-6.82,6.2-10.65,8.78l-2.06,5.88-.16,.09c-11.67,6.73-24.69,10.1-37.71,10.1-13.02,0-26.04-3.37-37.71-10.1l-.15-.09-2.05-5.87c-3.83-2.58-7.4-5.52-10.66-8.78-3.25-3.25-6.19-6.82-8.78-10.65l-5.88-2.06-.09-.16c-6.74-11.67-10.1-24.69-10.1-37.71,0-13.02,3.37-26.04,10.1-37.71l.09-.15,5.87-2.05c2.58-3.83,5.52-7.4,8.78-10.65,3.25-3.25,6.82-6.2,10.65-8.78l2.06-5.88,.16-.09c11.67-6.73,24.69-10.1,37.71-10.1,13.02,0,26.04,3.37,37.71,10.1l.15,.09,2.05,5.87h0Zm9.97,9.46c-12.77-12.77-30.4-20.66-49.89-20.66s-37.12,7.9-49.89,20.66c-12.77,12.77-20.66,30.4-20.66,49.88s7.9,37.12,20.66,49.88c12.77,12.77,30.41,20.66,49.89,20.66s37.12-7.9,49.89-20.66c12.77-12.77,20.66-30.4,20.66-49.88s-7.9-37.12-20.66-49.88h0Zm10.33,11.29c7.15,11.13,11.3,24.38,11.3,38.59s-4.15,27.45-11.29,38.59l4.34-1.52c6.59-11.48,9.89-24.28,9.89-37.07,0-12.8-3.29-25.59-9.88-37.07l-4.35-1.52h0Zm-21.63,98.81c-11.13,7.15-24.38,11.3-38.59,11.3s-27.46-4.15-38.59-11.29l1.52,4.34c11.48,6.59,24.28,9.89,37.07,9.89,12.8,0,25.59-3.29,37.07-9.88l1.52-4.35h0ZM25.28,125.09c-7.15-11.13-11.3-24.38-11.3-38.59s4.15-27.45,11.29-38.59l-4.34,1.52c-6.59,11.48-9.89,24.28-9.89,37.07,0,12.8,3.29,25.59,9.88,37.07l4.35,1.52h0Z"/></g></g></svg>