<?xml version="1.0" encoding="UTF-8"?><svg id="a" xmlns="http://www.w3.org/2000/svg" xmlns:xlink="http://www.w3.org/1999/xlink" viewBox="0 0 68 68"><defs><style>.t{fill:#fff;}.u{fill:url(#r);}.v{fill:url(#l);}.w{fill:url(#c);}.x{fill:url(#m);}.y{fill:url(#f);}.a`{fill:url(#p);}.aa{fill:url(#g);}.ab{fill:url(#i);}.ac{fill:url(#h);}.ad{fill:url(#d);}.ae{fill:url(#e);}.af{fill:none;}.ag{fill:url(#s);}.ah{fill:url(#n);}.ai{fill:url(#j);}.aj{fill:url(#o);}.ak{fill:url(#q);}.al{fill:url(#k);}</style><linearGradient id="c" x1="33.85" y1="5.18" x2="33.85" y2="66.82" gradientTransform="translate(0 70) scale(1 -1)" gradientUnits="userSpaceOnUse"><stop offset="0" stop-color="#0a1c4a"/><stop offset=".16" stop-color="#081d4f"/><stop offset=".38" stop-color="#052060"/><stop offset=".49" stop-color="#04226b"/><stop offset=".59" stop-color="#032671"/><stop offset=".73" stop-color="#023182"/><stop offset=".88" stop-color="#01449f"/><stop offset="1" stop-color="#0056b9"/></linearGradient><linearGradient id="d" x1="2.96" y1="36" x2="64.74" y2="36" gradientTransform="translate(0 70) scale(1 -1)" gradientUnits="userSpaceOnUse"><stop offset="0" stop-color="#ff3f45"/><stop offset=".19" stop-color="#de2635"/><stop offset=".39" stop-color="#c11127"/><stop offset=".57" stop-color="#b0041e"/><stop offset=".7" stop-color="#aa001c"/><stop offset=".7" stop-color="#aa001b"/><stop offset=".87" stop-color="#b9000a"/><stop offset="1" stop-color="#bf0005"/></linearGradient><linearGradient id="e" x1="1.77" y1="66.32" x2="1.77" y2="69.7" gradientTransform="translate(0 70) scale(1 -1)" gradientUnits="userSpaceOnUse"><stop offset="0" stop-color="#6581c3"/><stop offset="1" stop-color="#3c597d"/></linearGradient><linearGradient id="f" x1="3.66" y1="64.93" x2="3.66" y2="67.31" gradientTransform="translate(0 70) scale(1 -1)" gradientUnits="userSpaceOnUse"><stop offset="0" stop-color="#6581c3"/><stop offset="1" stop-color="#3c597d"/></linearGradient><linearGradient id="g" x1="62.84" y1="35.99" x2="65.23" y2="35.99" gradientTransform="translate(0 70) scale(1 -1)" gradientUnits="userSpaceOnUse"><stop offset="0" stop-color="#4e76a0"/><stop offset="1" stop-color="#81b0ef"/></linearGradient><linearGradient id="h" x1="2.47" y1="36" x2="4.85" y2="36" gradientTransform="translate(0 70) scale(1 -1)" gradientUnits="userSpaceOnUse"><stop offset="0" stop-color="#335d8e"/><stop offset="1" stop-color="#1f4270"/></linearGradient><linearGradient id="i" x1="33.84" y1="64.93" x2="33.84" y2="67.31" gradientTransform="translate(0 70) scale(1 -1)" gradientUnits="userSpaceOnUse"><stop offset="0" stop-color="#1f4270"/><stop offset="1" stop-color="#335d8e"/></linearGradient><linearGradient id="j" x1="65.92" y1="2.3" x2="65.92" y2="5.68" gradientTransform="translate(0 70) scale(1 -1)" gradientUnits="userSpaceOnUse"><stop offset="0" stop-color="#6581c3"/><stop offset="1" stop-color="#3c597d"/></linearGradient><linearGradient id="k" x1="64.04" y1="4.69" x2="64.04" y2="7.07" gradientTransform="translate(0 70) scale(1 -1)" gradientUnits="userSpaceOnUse"><stop offset="0" stop-color="#6581c3"/><stop offset="1" stop-color="#3c597d"/></linearGradient><linearGradient id="l" x1="1.77" y1="2.3" x2="1.77" y2="5.68" gradientTransform="translate(0 70) scale(1 -1)" gradientUnits="userSpaceOnUse"><stop offset="0" stop-color="#6581c3"/><stop offset="1" stop-color="#3c597d"/></linearGradient><linearGradient id="m" x1="3.66" y1="4.69" x2="3.66" y2="7.07" gradientTransform="translate(0 70) scale(1 -1)" gradientUnits="userSpaceOnUse"><stop offset="0" stop-color="#6581c3"/><stop offset="1" stop-color="#3c597d"/></linearGradient><linearGradient id="n" x1="65.92" y1="66.32" x2="65.92" y2="69.7" gradientTransform="translate(0 70) scale(1 -1)" gradientUnits="userSpaceOnUse"><stop offset="0" stop-color="#6581c3"/><stop offset="1" stop-color="#3c597d"/></linearGradient><linearGradient id="o" x1="64.04" y1="64.93" x2="64.04" y2="67.31" gradientTransform="translate(0 70) scale(1 -1)" gradientUnits="userSpaceOnUse"><stop offset="0" stop-color="#6581c3"/><stop offset="1" stop-color="#3c597d"/></linearGradient><linearGradient id="p" x1=".08" y1="36" x2="2.47" y2="36" gradientTransform="translate(0 70) scale(1 -1)" gradientUnits="userSpaceOnUse"><stop offset="0" stop-color="#4e76a0"/><stop offset="1" stop-color="#81b0ef"/></linearGradient><linearGradient id="q" x1="65.23" y1="36" x2="67.61" y2="36" gradientTransform="translate(0 70) scale(1 -1)" gradientUnits="userSpaceOnUse"><stop offset="0" stop-color="#335d8e"/><stop offset="1" stop-color="#1f4270"/></linearGradient><linearGradient id="r" x1="33.85" y1="2.3" x2="33.85" y2="4.69" gradientTransform="translate(0 70) scale(1 -1)" gradientUnits="userSpaceOnUse"><stop offset="0" stop-color="#1f4270"/><stop offset="1" stop-color="#335d8e"/></linearGradient><linearGradient id="s" x1="33.85" y1="67.31" x2="33.85" y2="69.7" gradientTransform="translate(0 70) scale(1 -1)" gradientUnits="userSpaceOnUse"><stop offset="0" stop-color="#4e76a0"/><stop offset="1" stop-color="#81b0ef"/></linearGradient></defs><g id="b"><g><path class="w" d="M2.96,3.18H62.42c1.28,0,2.32,1.04,2.32,2.32V62.5c0,1.28-1.04,2.32-2.32,2.32H2.96V3.18h0Z"/><path class="ad" d="M2.96,3.18H62.42c1.28,0,2.32,1.04,2.32,2.32V62.5c0,1.28-1.04,2.32-2.32,2.32H2.96V3.18h0Z"/><polygon class="ae" points=".08 2.69 2.47 3.68 3.46 2.69 2.47 .3 .08 2.69 .08 2.69"/><polygon class="y" points="3.46 2.69 2.47 3.68 4.85 5.07 3.46 2.69 3.46 2.69"/><path d="M3.46,65.31h60.78l-.73-1.24c-.42-.71-1.18-1.15-2-1.15H4.85l-1.4,2.39h.01Z"/><path class="aa" d="M62.84,5.07V61.6c0,.82,.44,1.58,1.15,2l1.24,.73V3.68l-2.39,1.4h0Z"/><polygon class="ac" points="4.85 5.07 4.85 62.93 2.47 64.32 2.47 3.68 4.85 5.07 4.85 5.07"/><path class="ab" d="M3.46,2.69h60.78l-.73,1.24c-.42,.71-1.18,1.15-2,1.15H4.85l-1.4-2.39h.01Z"/><polygon class="ai" points="67.61 65.31 65.23 64.32 64.24 65.31 65.23 67.7 67.61 65.31 67.61 65.31"/><polygon class="al" points="64.24 65.31 65.23 64.32 62.84 62.93 64.24 65.31 64.24 65.31"/><polygon class="v" points=".08 65.31 2.47 64.32 3.46 65.31 2.47 67.7 .08 65.31 .08 65.31"/><polygon class="x" points="3.46 65.31 2.47 64.32 4.85 62.93 3.46 65.31 3.46 65.31"/><polygon class="ah" points="67.61 2.69 65.23 3.68 64.24 2.69 65.23 .3 67.61 2.69 67.61 2.69"/><polygon class="aj" points="64.24 2.69 65.23 3.68 62.84 5.07 64.24 2.69 64.24 2.69"/><polyline class="a`" points=".08 53.86 .08 65.31 2.47 64.32 2.47 55.25 2.47 12.75 2.47 3.68 .08 2.69 .08 14.14"/><path class="ak" d="M67.61,13.42V2.69l-.96,.4c-.87,.36-1.43,1.2-1.43,2.14V62.78c0,.94,.56,1.78,1.43,2.14l.96,.4v-10.54"/><polyline class="u" points="65.23 67.7 64.24 65.31 64.24 65.31 3.46 65.31 2.47 67.7"/><polyline class="ag" points="65.23 .3 64.24 2.69 64.24 2.69 3.46 2.69 2.47 .3"/><line class="af" x1="67.61" y1="18.54" x2="66.72" y2="17"/><line class="af" x1="67.61" y1="49.66" x2="66.72" y2="51.2"/></g></g><path class="t" d="M48.8,17.61l-9.53,15.43,10.6,17.35h-9.4l-6.58-11.9-6.41,11.9h-9.64l10.73-17.25-9.46-15.53h9.36l5.42,10.39,5.56-10.39h9.36Z"/></svg>