<?xml version="1.0" encoding="utf-8"?>
<!-- Generator: Adobe Illustrator 26.2.1, SVG Export Plug-In . SVG Version: 6.00 Build 0)  -->
<svg version="1.1" id="Capa_1" xmlns="http://www.w3.org/2000/svg" xmlns:xlink="http://www.w3.org/1999/xlink" x="0px" y="0px"
	 viewBox="0 0 68 68" style="enable-background:new 0 0 68 68;" xml:space="preserve">
<style type="text/css">
	.st0{fill:url(#SVGID_1_);}
	.st1{fill:url(#SVGID_00000083779795539761255410000010391904837621384332_);}
	.st2{fill:url(#SVGID_00000173148817826319144050000010713424249639338908_);}
	.st3{fill:url(#SVGID_00000021809745136339990680000013341280096646087327_);}
	.st4{fill:url(#SVGID_00000060731774115404754400000012697753114349538494_);}
	.st5{fill:url(#SVGID_00000125599817549470108720000009227484741517063300_);}
	.st6{fill:url(#SVGID_00000136369553582368892170000010309083141477613208_);}
	.st7{fill:url(#SVGID_00000121240927702255057770000016550720329338913693_);}
	.st8{fill:url(#SVGID_00000026130994085221594500000010605875450313430923_);}
	.st9{fill:url(#SVGID_00000092457987597399769860000009244606358545651870_);}
	.st10{fill:url(#SVGID_00000039852187532920945490000006639962919574570383_);}
	.st11{fill:url(#SVGID_00000031187580086776613380000005938891863508073139_);}
	.st12{fill:url(#SVGID_00000067225283127615771430000003751000406002046345_);}
	.st13{fill:url(#SVGID_00000023988760844670596470000005916181332771337145_);}
	.st14{fill:url(#SVGID_00000036231214235208523540000003827694014342111146_);}
	.st15{fill:url(#SVGID_00000166659568226588249960000005746983511327516592_);}
	.st16{fill:url(#SVGID_00000098179335091234914270000018436621821780215472_);}
	.st17{fill:none;}
	.st18{fill:url(#SVGID_00000126286819830497954990000007440097796905419396_);}
</style>
<g id="b">
	<g>
		
			<linearGradient id="SVGID_1_" gradientUnits="userSpaceOnUse" x1="33.85" y1="5.18" x2="33.85" y2="66.82" gradientTransform="matrix(1 0 0 -1 0 70)">
			<stop  offset="0" style="stop-color:#0A1C4A"/>
			<stop  offset="0.16" style="stop-color:#081D4F"/>
			<stop  offset="0.38" style="stop-color:#052060"/>
			<stop  offset="0.49" style="stop-color:#04226B"/>
			<stop  offset="0.59" style="stop-color:#032671"/>
			<stop  offset="0.73" style="stop-color:#023182"/>
			<stop  offset="0.88" style="stop-color:#01449F"/>
			<stop  offset="1" style="stop-color:#0056B9"/>
		</linearGradient>
		<path class="st0" d="M3,3.2h59.5c1.3,0,2.3,1,2.3,2.3v57c0,1.3-1,2.3-2.3,2.3H3V3.2L3,3.2z"/>
		
			<linearGradient id="SVGID_00000061453073731911356290000002944188556971310258_" gradientUnits="userSpaceOnUse" x1="2.96" y1="36" x2="64.74" y2="36" gradientTransform="matrix(1 0 0 -1 0 70)">
			<stop  offset="0" style="stop-color:#FF3F45"/>
			<stop  offset="0.19" style="stop-color:#DE2635"/>
			<stop  offset="0.39" style="stop-color:#C11127"/>
			<stop  offset="0.57" style="stop-color:#B0041E"/>
			<stop  offset="0.7" style="stop-color:#AA001C"/>
			<stop  offset="0.7" style="stop-color:#AA001B"/>
			<stop  offset="0.87" style="stop-color:#B9000A"/>
			<stop  offset="1" style="stop-color:#BF0005"/>
		</linearGradient>
		<path style="fill:url(#SVGID_00000061453073731911356290000002944188556971310258_);" d="M3,3.2h59.5c1.3,0,2.3,1,2.3,2.3v57
			c0,1.3-1,2.3-2.3,2.3H3V3.2L3,3.2z"/>
		
			<linearGradient id="SVGID_00000164511978388394207480000008598367734559963554_" gradientUnits="userSpaceOnUse" x1="1.77" y1="66.32" x2="1.77" y2="69.7" gradientTransform="matrix(1 0 0 -1 0 70)">
			<stop  offset="0" style="stop-color:#6581C3"/>
			<stop  offset="1" style="stop-color:#3C597D"/>
		</linearGradient>
		<polygon style="fill:url(#SVGID_00000164511978388394207480000008598367734559963554_);" points="0.1,2.7 2.5,3.7 3.5,2.7 
			2.5,0.3 0.1,2.7 		"/>
		
			<linearGradient id="SVGID_00000135664030134086632190000011418521936320129463_" gradientUnits="userSpaceOnUse" x1="3.66" y1="64.93" x2="3.66" y2="67.31" gradientTransform="matrix(1 0 0 -1 0 70)">
			<stop  offset="0" style="stop-color:#6581C3"/>
			<stop  offset="1" style="stop-color:#3C597D"/>
		</linearGradient>
		<polygon style="fill:url(#SVGID_00000135664030134086632190000011418521936320129463_);" points="3.5,2.7 2.5,3.7 4.8,5.1 
			3.5,2.7 		"/>
		
			<linearGradient id="SVGID_00000127023896908315312210000002638138682375619219_" gradientUnits="userSpaceOnUse" x1="62.84" y1="35.995" x2="65.23" y2="35.995" gradientTransform="matrix(1 0 0 -1 0 70)">
			<stop  offset="0" style="stop-color:#4E76A0"/>
			<stop  offset="1" style="stop-color:#81B0EF"/>
		</linearGradient>
		<path style="fill:url(#SVGID_00000127023896908315312210000002638138682375619219_);" d="M62.8,5.1v56.5c0,0.8,0.4,1.6,1.2,2
			l1.2,0.7V3.7L62.8,5.1L62.8,5.1L62.8,5.1z"/>
		
			<linearGradient id="SVGID_00000167383478772102675210000006028519658625539236_" gradientUnits="userSpaceOnUse" x1="2.47" y1="36" x2="4.85" y2="36" gradientTransform="matrix(1 0 0 -1 0 70)">
			<stop  offset="0" style="stop-color:#335D8E"/>
			<stop  offset="1" style="stop-color:#1F4270"/>
		</linearGradient>
		<polygon style="fill:url(#SVGID_00000167383478772102675210000006028519658625539236_);" points="4.8,5.1 4.8,62.9 2.5,64.3 
			2.5,3.7 4.8,5.1 		"/>
		
			<linearGradient id="SVGID_00000168086964546293261320000001988566801279631286_" gradientUnits="userSpaceOnUse" x1="33.845" y1="64.93" x2="33.845" y2="67.31" gradientTransform="matrix(1 0 0 -1 0 70)">
			<stop  offset="0" style="stop-color:#1F4270"/>
			<stop  offset="1" style="stop-color:#335D8E"/>
		</linearGradient>
		<path style="fill:url(#SVGID_00000168086964546293261320000001988566801279631286_);" d="M3.5,2.7h60.8l-0.7,1.2
			c-0.4,0.7-1.2,1.1-2,1.1H4.8L3.5,2.7L3.5,2.7L3.5,2.7z"/>
		
			<linearGradient id="SVGID_00000102539232081111663100000009543915324898521504_" gradientUnits="userSpaceOnUse" x1="65.925" y1="2.3" x2="65.925" y2="5.68" gradientTransform="matrix(1 0 0 -1 0 70)">
			<stop  offset="0" style="stop-color:#6581C3"/>
			<stop  offset="1" style="stop-color:#3C597D"/>
		</linearGradient>
		<polygon style="fill:url(#SVGID_00000102539232081111663100000009543915324898521504_);" points="67.6,65.3 65.2,64.3 64.2,65.3 
			65.2,67.7 67.6,65.3 		"/>
		
			<linearGradient id="SVGID_00000154422296255306565440000012274233391052836797_" gradientUnits="userSpaceOnUse" x1="64.035" y1="4.69" x2="64.035" y2="7.07" gradientTransform="matrix(1 0 0 -1 0 70)">
			<stop  offset="0" style="stop-color:#6581C3"/>
			<stop  offset="1" style="stop-color:#3C597D"/>
		</linearGradient>
		<polygon style="fill:url(#SVGID_00000154422296255306565440000012274233391052836797_);" points="64.2,65.3 65.2,64.3 62.8,62.9 
			64.2,65.3 		"/>
		
			<linearGradient id="SVGID_00000064314830834966173970000011578232867435169445_" gradientUnits="userSpaceOnUse" x1="1.77" y1="2.3" x2="1.77" y2="5.68" gradientTransform="matrix(1 0 0 -1 0 70)">
			<stop  offset="0" style="stop-color:#6581C3"/>
			<stop  offset="1" style="stop-color:#3C597D"/>
		</linearGradient>
		<polygon style="fill:url(#SVGID_00000064314830834966173970000011578232867435169445_);" points="0.1,65.3 2.5,64.3 3.5,65.3 
			2.5,67.7 0.1,65.3 		"/>
		
			<linearGradient id="SVGID_00000007387518577901789600000005583255518808983947_" gradientUnits="userSpaceOnUse" x1="3.66" y1="4.69" x2="3.66" y2="7.07" gradientTransform="matrix(1 0 0 -1 0 70)">
			<stop  offset="0" style="stop-color:#6581C3"/>
			<stop  offset="1" style="stop-color:#3C597D"/>
		</linearGradient>
		<polygon style="fill:url(#SVGID_00000007387518577901789600000005583255518808983947_);" points="3.5,65.3 2.5,64.3 4.8,62.9 
			3.5,65.3 		"/>
		
			<linearGradient id="SVGID_00000029013791248262108330000003089489941411550895_" gradientUnits="userSpaceOnUse" x1="65.925" y1="66.32" x2="65.925" y2="69.7" gradientTransform="matrix(1 0 0 -1 0 70)">
			<stop  offset="0" style="stop-color:#6581C3"/>
			<stop  offset="1" style="stop-color:#3C597D"/>
		</linearGradient>
		<polygon style="fill:url(#SVGID_00000029013791248262108330000003089489941411550895_);" points="67.6,2.7 65.2,3.7 64.2,2.7 
			65.2,0.3 67.6,2.7 		"/>
		
			<linearGradient id="SVGID_00000067200356879754787840000009868447900533630857_" gradientUnits="userSpaceOnUse" x1="64.035" y1="64.93" x2="64.035" y2="67.31" gradientTransform="matrix(1 0 0 -1 0 70)">
			<stop  offset="0" style="stop-color:#6581C3"/>
			<stop  offset="1" style="stop-color:#3C597D"/>
		</linearGradient>
		<polygon style="fill:url(#SVGID_00000067200356879754787840000009868447900533630857_);" points="64.2,2.7 65.2,3.7 62.8,5.1 
			64.2,2.7 		"/>
		
			<linearGradient id="SVGID_00000066480040950501151690000007803007282845731510_" gradientUnits="userSpaceOnUse" x1="8.000000e-02" y1="36" x2="2.47" y2="36" gradientTransform="matrix(1 0 0 -1 0 70)">
			<stop  offset="0" style="stop-color:#4E76A0"/>
			<stop  offset="1" style="stop-color:#81B0EF"/>
		</linearGradient>
		<polyline style="fill:url(#SVGID_00000066480040950501151690000007803007282845731510_);" points="0.1,53.9 0.1,65.3 2.5,64.3 
			2.5,55.2 2.5,12.8 2.5,3.7 0.1,2.7 0.1,14.1 		"/>
		
			<linearGradient id="SVGID_00000121249383712852810180000007859830705711407292_" gradientUnits="userSpaceOnUse" x1="65.23" y1="35.995" x2="67.61" y2="35.995" gradientTransform="matrix(1 0 0 -1 0 70)">
			<stop  offset="0" style="stop-color:#335D8E"/>
			<stop  offset="1" style="stop-color:#1F4270"/>
		</linearGradient>
		<path style="fill:url(#SVGID_00000121249383712852810180000007859830705711407292_);" d="M67.6,13.4V2.7l-1,0.4
			c-0.9,0.4-1.4,1.2-1.4,2.1v57.5c0,0.9,0.6,1.8,1.4,2.1l1,0.4V54.8"/>
		
			<linearGradient id="SVGID_00000142880208518590044750000007983833199222043054_" gradientUnits="userSpaceOnUse" x1="33.85" y1="2.3" x2="33.85" y2="4.69" gradientTransform="matrix(1 0 0 -1 0 70)">
			<stop  offset="0" style="stop-color:#1F4270"/>
			<stop  offset="1" style="stop-color:#335D8E"/>
		</linearGradient>
		<polyline style="fill:url(#SVGID_00000142880208518590044750000007983833199222043054_);" points="65.2,67.7 64.2,65.3 64.2,65.3 
			3.5,65.3 2.5,67.7 		"/>
		
			<linearGradient id="SVGID_00000000926472666164379030000000414672554802764220_" gradientUnits="userSpaceOnUse" x1="33.85" y1="67.31" x2="33.85" y2="69.7" gradientTransform="matrix(1 0 0 -1 0 70)">
			<stop  offset="0" style="stop-color:#4E76A0"/>
			<stop  offset="1" style="stop-color:#81B0EF"/>
		</linearGradient>
		<polyline style="fill:url(#SVGID_00000000926472666164379030000000414672554802764220_);" points="65.2,0.3 64.2,2.7 64.2,2.7 
			3.5,2.7 2.5,0.3 		"/>
		<line class="st17" x1="67.6" y1="18.5" x2="66.7" y2="17"/>
		<line class="st17" x1="67.6" y1="49.7" x2="66.7" y2="51.2"/>
	</g>
</g>
<linearGradient id="SVGID_00000029038547200111946080000015135160848341806002_" gradientUnits="userSpaceOnUse" x1="24.71" y1="45.215" x2="24.71" y2="47.595" gradientTransform="matrix(-1 0 0 1 58.56 17.72)">
	<stop  offset="0" style="stop-color:#1F4270"/>
	<stop  offset="1" style="stop-color:#335D8E"/>
</linearGradient>
<path style="fill:url(#SVGID_00000029038547200111946080000015135160848341806002_);" d="M64.2,65.3H3.5l0.7-1.2
	c0.4-0.7,1.2-1.1,2-1.1h56.7L64.2,65.3L64.2,65.3L64.2,65.3z"/>
</svg>
