<?xml version="1.0" encoding="UTF-8"?><svg xmlns="http://www.w3.org/2000/svg" xmlns:xlink="http://www.w3.org/1999/xlink" viewBox="0 0 1084 696"><defs><style>.aa{fill:url(#r);}.aa,.ab,.ac,.ad,.ae,.af,.ag,.ah,.ai,.aj,.ak,.al,.am,.an,.ao,.ap,.aq,.ar,.as,.at,.au{fill-rule:evenodd;}.ab{fill:url(#j);}.ac{fill:url(#t);}.ad{fill:url(#g);}.ae{fill:url(#y);opacity:.3;}.ae,.av,.an,.ap{mix-blend-mode:screen;}.aw{fill:url(#c);}.af{fill:url(#p);}.ax{isolation:isolate;}.ay{fill:url(#v);}.ag{fill:url(#q);}.ah{fill:url(#h);}.ai{fill:url(#k);}.aj{fill:url(#f);}.ak{fill:url(#u);}.av{fill:url(#w);}.av,.ap{opacity:.75;}.al{fill:url(#m);}.am{fill:url(#s);}.an{fill:url(#x);}.ao{fill:url(#i);}.ap{fill:url(#a`);}.aq{fill:url(#e);}.ar{fill:url(#l);}.as{fill:url(#d);}.at{fill:url(#n);}.au{fill:url(#o);}</style><linearGradient id="c" x1="38.47" y1="368.89" x2="1045.46" y2="368.89" gradientTransform="matrix(1, 0, 0, 1, 0, 0)" gradientUnits="userSpaceOnUse"><stop offset="0" stop-color="#0a1c4a"/><stop offset=".16" stop-color="#081d4f"/><stop offset=".38" stop-color="#052060"/><stop offset=".49" stop-color="#04226b"/><stop offset=".59" stop-color="#032671"/><stop offset=".73" stop-color="#023182"/><stop offset=".88" stop-color="#01449f"/><stop offset="1" stop-color="#0056b9"/></linearGradient><radialGradient id="d" cx="356.29" cy="-.13" fx="356.29" fy="-.13" r="1001.57" gradientTransform="matrix(1, 0, 0, 1, 0, 0)" gradientUnits="userSpaceOnUse"><stop offset="0" stop-color="#fcdd73"/><stop offset=".08" stop-color="#f3ca5f"/><stop offset=".27" stop-color="#e1a238"/><stop offset=".44" stop-color="#d4861b"/><stop offset=".59" stop-color="#cc750a"/><stop offset=".7" stop-color="#ca6f04"/><stop offset=".7" stop-color="#c76d03"/><stop offset=".77" stop-color="#975302"/><stop offset=".84" stop-color="#713f01"/><stop offset=".9" stop-color="#563000"/><stop offset=".96" stop-color="#452800"/><stop offset="1" stop-color="#402500"/></radialGradient><linearGradient id="e" x1="251.32" y1="56.2" x2="297.79" y2="56.2" gradientTransform="matrix(1, 0, 0, 1, 0, 0)" gradientUnits="userSpaceOnUse"><stop offset="0" stop-color="#fcdd73"/><stop offset=".08" stop-color="#f3ca5f"/><stop offset=".27" stop-color="#e1a238"/><stop offset=".44" stop-color="#d4861b"/><stop offset=".59" stop-color="#cc750a"/><stop offset=".7" stop-color="#ca6f04"/><stop offset=".7" stop-color="#c76d03"/><stop offset=".77" stop-color="#975302"/><stop offset=".84" stop-color="#713f01"/><stop offset=".9" stop-color="#563000"/><stop offset=".96" stop-color="#452800"/><stop offset="1" stop-color="#402500"/></linearGradient><linearGradient id="f" x1="786.14" x2="832.62" xlink:href="#e"/><linearGradient id="g" x1="292.95" x2="308.19" xlink:href="#e"/><linearGradient id="h" x1="303.36" x2="318.6" xlink:href="#e"/><linearGradient id="i" x1="775.73" x2="790.98" xlink:href="#e"/><linearGradient id="j" x1="765.33" x2="780.57" xlink:href="#e"/><linearGradient id="k" x1="134.34" y1="688.94" x2="156.61" y2="688.94" xlink:href="#e"/><linearGradient id="l" x1="220.46" y1="688.94" x2="242.73" y2="688.94" xlink:href="#e"/><linearGradient id="m" x1="841.2" y1="688.94" x2="863.47" y2="688.94" xlink:href="#e"/><linearGradient id="n" x1="927.32" y1="688.94" x2="949.59" y2="688.94" xlink:href="#e"/><linearGradient id="o" x1="336.9" y1="681.45" x2="359.17" y2="681.45" xlink:href="#e"/><linearGradient id="p" x1="724.76" y1="681.45" x2="747.03" y2="681.45" xlink:href="#e"/><linearGradient id="q" x1="353.39" y1="670.71" x2="425.35" y2="670.71" xlink:href="#e"/><linearGradient id="r" x1="658.58" y1="670.71" x2="730.54" y2="670.71" xlink:href="#e"/><linearGradient id="s" x1="19.08" y1="423.62" x2="23.51" y2="423.62" xlink:href="#c"/><linearGradient id="t" x1="1060.42" y1="423.62" x2="1064.85" y2="423.62" xlink:href="#c"/><linearGradient id="u" x1="732.55" y1="68.62" x2="745.31" y2="68.62" xlink:href="#e"/><linearGradient id="v" x1="346.24" y1="43.49" x2="737.7" y2="43.49" xlink:href="#c"/><radialGradient id="w" cx="625.34" cy="118.07" fx="625.34" fy="118.07" r="297.86" gradientTransform="matrix(1, 0, 0, 1, 0, 0)" gradientUnits="userSpaceOnUse"><stop offset="0" stop-color="#1c1c1b"/><stop offset=".09" stop-color="#222524"/><stop offset=".25" stop-color="#343e3d"/><stop offset=".44" stop-color="#516867"/><stop offset=".67" stop-color="#79a1a1"/><stop offset=".93" stop-color="#ace9e9"/><stop offset="1" stop-color="#bff"/></radialGradient><radialGradient id="x" cx="252.5" cy="-250.02" fx="252.5" fy="-250.02" r="839.36" gradientTransform="matrix(1, 0, 0, 1, 0, 0)" gradientUnits="userSpaceOnUse"><stop offset="0" stop-color="#2b1f7a"/><stop offset=".43" stop-color="#191248"/><stop offset="1" stop-color="#000"/></radialGradient><radialGradient id="y" cx="922.38" cy="-13.92" fx="922.38" fy="-13.92" r="691.39" xlink:href="#x"/><radialGradient id="a`" cx="377.02" cy="93.85" fx="377.02" fy="93.85" r="525.24" xlink:href="#x"/></defs><g class="ax"><g id="a"/><g id="b"><rect class="aw" x="38.47" y="86.9" width="1006.99" height="563.98"/><path class="as" d="M855.36,681.8l13.32,9.52h53.44l13.32-9.52h59.61l15.98,11.42h56.63l8.73-8.73v-42.73l7.61-10.66v-77.22l-7.61-10.66v-42.99l7.35-10.29v-132.67l-7.35-10.29v-42.99l7.61-10.66V118.09l-7.61-10.66v-42.73l-8.73-8.73h-172.24l-11.4-8.15h-23.53l-8.74-6.25h-106.43V19.6l-7.61-7.61h-196.85L524.63,.4h-178.39l-7.61,7.61V41.58h-106.43l-8.74,6.25h-23.53l-11.4,8.15H16.27l-8.73,8.73v42.73L-.07,118.09v175.26l7.61,10.66v42.99L.19,357.29v132.67l7.35,10.29v42.99L-.07,553.9v77.22l7.61,10.66v42.73l8.73,8.73h56.63l15.98-11.42h59.61l13.32,9.52h53.44l13.32-9.52h59.61l20.14,14.39h467.28l20.14-14.39h59.61ZM346.24,74.99h380.04l19.03-19.03v-10.57h74.78l20.14,14.39h57.25l17.01,12.16h143.95l1.98,1.98v254h0l12.15,17.01v157.38l-12.15,17.01h0v153.07h-54.02l-9.17-6.55c-85.26,.07-170.52,0-255.78,0l-22.51,16.08h-48.78l-22.5-16.08c-33.03,.03-66.06,.04-99.1,.04h-13.21c-33.03,0-66.07-.02-99.1-.04l-22.51,16.08h-48.78l-22.51-16.08H86.7l-9.17,6.55H23.51v-153.07l-12.16-17.01v-157.38l12.16-17.01V73.92l1.98-1.98H169.44l17.01-12.16h57.25l20.14-14.39h74.78v21.99l7.61,7.61h0Zm-154.45-19.02h20.26l8.74-6.25h-20.26l-8.74,6.25h0Zm671.37-6.25l8.74,6.25h20.26l-8.74-6.25h-20.26Zm213.24,300.53v146.72l5.45-7.62v-131.47l-5.45-7.62h0ZM7.54,496.98v-146.72l-5.45,7.62v131.47l5.45,7.62h0ZM183.19,59.79H17.85l-6.5,6.5V341.67l10.25-14.35V73.13l3.1-3.1H168.84l14.35-10.25h0ZM11.35,505.58v177.34l6.5,6.5h53.85l15.98-11.42h201.7l20.14,14.39h118.87l13.32-9.52h200.5l13.32,9.52h118.87l20.14-14.39h201.7l15.98,11.42h53.85l6.5-6.5v-177.34l-10.25,14.35v157.83l-3.1,3.1h-44.25l-18.34-13.11h-214.81l-11.63,8.31h-39.76l-10.88,7.77h-49.98l-22.51-16.08h-48.51l-5.72,4.09h-101.74l-5.72-4.09h-48.51l-22.51,16.08h-49.98l-10.88-7.77h-39.76l-11.63-8.31H87.3l-18.34,13.11H24.7l-3.1-3.1v-157.83l-10.25-14.35h0Zm1061.23-163.91V66.28l-6.5-6.5h-165.34l14.35,10.25h144.14l3.1,3.1v254.19l10.25,14.35h0ZM347.81,71.19h376.88l16.81-16.81V21.17l-5.38-5.38H347.81l-5.38,5.38v44.63l5.38,5.38h0ZM523.48,3.29h-5.2l12.16,8.69h5.2l-12.16-8.69h0Zm-10.41,0h-5.2l12.16,8.69h5.2l-12.16-8.69h0Zm-10.41,0h-5.2l12.16,8.69h5.2l-12.16-8.69h0Z"/><polygon class="aq" points="261.36 52.61 251.32 59.79 287.74 59.79 297.79 52.61 261.36 52.61 261.36 52.61"/><polygon class="aj" points="822.57 52.61 832.62 59.79 796.19 59.79 786.14 52.61 822.57 52.61 822.57 52.61"/><polygon class="ad" points="302.99 52.61 308.19 52.61 298.15 59.79 292.95 59.79 302.99 52.61 302.99 52.61"/><polygon class="ah" points="313.4 52.61 318.6 52.61 308.56 59.79 303.36 59.79 313.4 52.61 313.4 52.61"/><polygon class="ao" points="780.94 52.61 775.73 52.61 785.78 59.79 790.98 59.79 780.94 52.61 780.94 52.61"/><polygon class="ab" points="770.53 52.61 765.33 52.61 775.37 59.79 780.57 59.79 770.53 52.61 770.53 52.61"/><path class="ai" d="M141,691.32h5.21l-6.66-4.76h-5.2l6.66,4.76h0Zm10.41,0h5.21l-6.66-4.76h-5.2l6.66,4.76h0Z"/><path class="ar" d="M236.07,691.32h-5.2l6.66-4.76h5.2l-6.66,4.76h0Zm-10.41,0h-5.2l6.66-4.76h5.21l-6.66,4.76h0Z"/><path class="al" d="M847.86,691.32h5.21l-6.66-4.76h-5.21l6.66,4.76h0Zm10.41,0h5.21l-6.66-4.76h-5.21l6.66,4.76h0Z"/><path class="at" d="M942.93,691.32h-5.2l6.66-4.76h5.21l-6.66,4.76h0Zm-10.41,0h-5.2l6.66-4.76h5.21l-6.66,4.76h0Z"/><path class="au" d="M352.51,679.07h-5.21l6.66,4.76h5.21l-6.66-4.76h0Zm-10.41,0h-5.21l6.66,4.76h5.21l-6.66-4.76h0Z"/><path class="af" d="M731.42,679.07h5.2l-6.66,4.76h-5.2l6.66-4.76h0Zm10.41,0h5.2l-6.66,4.76h-5.2l6.66-4.76h0Z"/><polygon class="ag" points="425.35 665.84 353.39 665.84 367.01 675.58 411.72 675.58 425.35 665.84 425.35 665.84"/><polygon class="aa" points="730.54 665.84 658.58 665.84 672.21 675.58 716.92 675.58 730.54 665.84 730.54 665.84"/><polygon class="am" points="23.51 350.76 19.08 356.96 19.08 490.28 23.51 496.48 23.51 350.76 23.51 350.76"/><polygon class="ac" points="1060.42 350.76 1064.85 356.96 1064.85 490.28 1060.42 496.48 1060.42 350.76 1060.42 350.76"/><polygon class="ak" points="745.31 62.24 745.31 74.99 732.55 74.99 745.31 62.24 745.31 62.24"/><polygon class="ay" points="349.39 67.38 723.12 67.38 737.7 52.81 737.7 22.75 734.54 19.6 349.39 19.6 346.24 22.75 346.24 64.23 349.39 67.38 349.39 67.38"/><path class="av" d="M351.33,62.7l-.41-.41V24.69l.41-.41h381.27l.41,.41v26.18l-11.83,11.83H351.33Zm368.88-2.34l10.46-10.46V26.62H362.62V60.36h357.6Z"/><g><polygon class="an" points="117.85 650.88 479.82 86.9 772.25 86.9 410.29 650.88 117.85 650.88"/><polygon class="ae" points="471.22 650.88 833.18 86.9 942.59 86.9 580.63 650.88 471.22 650.88"/><polygon class="ap" points="38.47 302.26 176.69 86.9 353.39 86.9 38.47 577.58 38.47 302.26"/></g></g></g></svg>