<?xml version="1.0" encoding="UTF-8"?><svg xmlns="http://www.w3.org/2000/svg" xmlns:xlink="http://www.w3.org/1999/xlink" viewBox="0 0 1578 730"><defs><style>.ch{fill:url(#y);}.ch,.ci,.cj,.ck,.cl,.cm,.cn,.co,.cp,.cq,.cr,.cs,.ct,.cu,.cv,.cw,.cx,.cy,.d`,.da,.db,.dc,.dd,.de,.df,.dg,.dh,.di,.dj,.dk,.dl,.dm,.dn,.do,.dp,.dq,.dr,.ds,.dt,.du,.dv,.dw,.dx,.dy,.e`,.ea,.eb,.ec,.ed,.ee,.ef,.eg,.eh,.ei,.ej,.ek,.el,.em,.en,.eo,.ep,.eq,.er,.es,.et,.eu,.ev,.ew,.ex,.ey{fill-rule:evenodd;}.ci{fill:url(#v);}.cj{fill:url(#r);}.ck{fill:url(#j);}.cl{fill:url(#ak);}.cm{fill:url(#w);}.cn{fill:url(#as);}.f`{fill:url(#bk);}.fa{fill:url(#cd);}.fa,.cr,.cv,.cw,.fb,.db,.dc,.dd,.fc,.dj,.fd,.fe,.dk,.ff,.fg,.dq,.dt,.dv,.fh,.dx,.e`,.ea,.ed,.eg,.ei,.fi,.fj,.er,.fk,.eu{mix-blend-mode:screen;}.fa,.fb,.fc,.fd,.fe,.ff,.fg,.fh{opacity:.75;}.co{fill:url(#ax);}.cp{fill:url(#t);}.cq{fill:url(#ap);}.cr{fill:url(#bp);}.cs{fill:url(#af);}.ct{fill:url(#ae);}.fl{fill:url(#bl);}.cu{fill:#919191;}.cv{fill:url(#bf);}.cw{fill:url(#ah);}.cx{fill:url(#p);}.fm{isolation:isolate;}.cy{fill:url(#bb);}.d`{fill:url(#ay);}.da{fill:url(#q);}.fb{fill:url(#bv);}.db{fill:url(#bt);}.dc{fill:url(#g);}.fn{fill:url(#bh);}.dd{fill:url(#bq);}.de{fill:url(#av);}.df{fill:url(#au);}.dg{fill:url(#k);}.dh{fill:url(#u);}.fc{fill:url(#by);}.di{fill:url(#bn);}.dj{fill:url(#c`);}.fo{fill:url(#bi);}.fd{fill:url(#bu);}.fe{fill:url(#cb);}.dk{fill:url(#bw);}.dl{fill:url(#ac);}.dm{fill:url(#m);}.dn{fill:url(#s);}.ff{fill:url(#ce);}.do{fill:url(#bo);}.dp{fill:url(#ab);}.fg{fill:url(#bx);}.dq{fill:url(#cg);}.dr{fill:url(#ba);}.ds{fill:url(#b`);}.dt{fill:url(#ai);}.du{fill:url(#am);}.dv{fill:url(#cf);}.dw{fill:url(#i);}.fh{fill:url(#ca);}.dx{fill:url(#aj);}.dy{fill:url(#ar);}.e`{fill:url(#e);}.ea{fill:url(#cc);}.eb{fill:url(#ad);}.ec{fill:url(#x);}.ed{fill:url(#be);}.ee{fill:url(#aa);}.ef{fill:url(#at);}.eg{fill:url(#f);}.eh{fill:url(#bm);}.ei{fill:url(#h);}.fi{fill:url(#d);}.ej{fill:url(#l);}.ek{fill:url(#an);}.fj{fill:url(#bs);}.el{fill:url(#al);}.em{fill:url(#aq);}.en{fill:#c4c445;}.eo{fill:url(#bg);}.ep{fill:url(#n);}.eq{fill:url(#bd);}.er{fill:url(#ag);}.es{fill:url(#ao);}.et{fill:url(#bc);}.fk{fill:url(#c);}.eu{fill:url(#br);}.ev{fill:url(#o);}.ew{fill:url(#a`);}.ex{fill:url(#aw);}.ey{fill:url(#bj);}</style><radialGradient id="c" cx="525.46" cy="676.86" fx="525.46" fy="676.86" r="52.43" gradientTransform="translate(632.52 -173.31) rotate(45)" gradientUnits="userSpaceOnUse"><stop offset="0" stop-color="#d7d433"/><stop offset=".25" stop-color="#949223"/><stop offset=".51" stop-color="#555414"/><stop offset=".73" stop-color="#272609"/><stop offset=".9" stop-color="#0a0a02"/><stop offset="1" stop-color="#000"/></radialGradient><radialGradient id="d" cx="1038.79" fx="1038.79" gradientTransform="translate(782.87 -536.29) rotate(45)" xlink:href="#c"/><radialGradient id="e" cx="-13733.8" cy="8784.7" fx="-13733.8" fy="8784.7" r="49.15" gradientTransform="translate(-12205.02 9357.46) rotate(-180)" gradientUnits="userSpaceOnUse"><stop offset="0" stop-color="#c4c435"/><stop offset=".18" stop-color="#8f8f26"/><stop offset=".38" stop-color="#5c5c18"/><stop offset=".57" stop-color="#34340e"/><stop offset=".74" stop-color="#171706"/><stop offset=".89" stop-color="#060601"/><stop offset="1" stop-color="#000"/></radialGradient><radialGradient id="f" cy="9219.47" fy="9219.47" r="49.15" xlink:href="#e"/><radialGradient id="g" cx="49.15" cy="139.31" fx="49.15" fy="139.31" r="49.15" gradientTransform="matrix(1, 0, 0, 1, 0, 0)" xlink:href="#e"/><radialGradient id="h" cx="49.15" cy="574.09" fx="49.15" fy="574.09" r="49.15" gradientTransform="matrix(1, 0, 0, 1, 0, 0)" xlink:href="#e"/><radialGradient id="i" cx="525.46" cy="709.3" fx="525.46" fy="709.3" r="14.08" gradientTransform="matrix(1, 0, 0, 1, 0, 0)" gradientUnits="userSpaceOnUse"><stop offset="0" stop-color="#f2f585"/><stop offset="1" stop-color="#ddc63a"/></radialGradient><radialGradient id="j" cx="1038.79" fx="1038.79" r="14.08" xlink:href="#i"/><linearGradient id="k" x1="27.23" y1="576.21" x2="43.03" y2="576.21" gradientTransform="matrix(1, 0, 0, 1, 0, 0)" gradientUnits="userSpaceOnUse"><stop offset="0" stop-color="#334a54"/><stop offset="1" stop-color="#2a3b42"/></linearGradient><linearGradient id="l" y1="138.22" y2="138.22" xlink:href="#k"/><linearGradient id="m" x1="1534.9" y1="576.21" x2="1550.7" y2="576.21" gradientTransform="matrix(1, 0, 0, 1, 0, 0)" gradientUnits="userSpaceOnUse"><stop offset="0" stop-color="#2a3b42"/><stop offset="1" stop-color="#334a54"/></linearGradient><linearGradient id="n" y1="138.22" y2="138.22" xlink:href="#m"/><linearGradient id="o" x1="788.97" y1="710.71" x2="788.97" y2="3.71" gradientTransform="matrix(1, 0, 0, 1, 0, 0)" gradientUnits="userSpaceOnUse"><stop offset="0" stop-color="#6d80be"/><stop offset="1" stop-color="#47597b"/></linearGradient><radialGradient id="p" cx="790.82" cy="22.78" fx="790.82" fy="22.78" r="1017.42" gradientTransform="matrix(1, 0, 0, 1, 0, 0)" gradientUnits="userSpaceOnUse"><stop offset="0" stop-color="#3157b4"/><stop offset=".11" stop-color="#29489d"/><stop offset=".27" stop-color="#1f3680"/><stop offset=".41" stop-color="#1a2a6f"/><stop offset=".51" stop-color="#182769"/><stop offset=".6" stop-color="#182560"/><stop offset=".83" stop-color="#18224f"/><stop offset="1" stop-color="#18224a"/></radialGradient><linearGradient id="q" x1="41.86" y1="9.39" x2="41.86" xlink:href="#o"/><linearGradient id="r" x1="45.04" y1="11.73" x2="45.04" y2="7.72" xlink:href="#o"/><linearGradient id="s" x1="788.96" y1="710.71" x2="788.96" y2="706.7" gradientTransform="matrix(1, 0, 0, 1, 0, 0)" gradientUnits="userSpaceOnUse"><stop offset="0" stop-color="#30446e"/><stop offset="1" stop-color="#445d8a"/></linearGradient><linearGradient id="t" x1="788.96" y1="706.7" x2="788.96" y2="702.69" gradientTransform="matrix(1, 0, 0, 1, 0, 0)" gradientUnits="userSpaceOnUse"><stop offset="0" stop-color="#8eadeb"/><stop offset="1" stop-color="#5c759c"/></linearGradient><linearGradient id="u" x1="27.23" y1="356.04" x2="43.03" y2="356.04" gradientTransform="matrix(1, 0, 0, 1, 0, 0)" gradientUnits="userSpaceOnUse"><stop offset="0" stop-color="#5c759c"/><stop offset="1" stop-color="#8eadeb"/></linearGradient><linearGradient id="v" x1="1530.89" y1="357.21" x2="1534.9" y2="357.21" xlink:href="#u"/><linearGradient id="w" x1="43.03" y1="357.21" x2="47.04" y2="357.21" gradientTransform="matrix(1, 0, 0, 1, 0, 0)" gradientUnits="userSpaceOnUse"><stop offset="0" stop-color="#445d8a"/><stop offset="1" stop-color="#30446e"/></linearGradient><linearGradient id="x" x1="1534.9" x2="1550.7" xlink:href="#w"/><linearGradient id="y" x1="788.96" y1="11.73" x2="788.96" y2="7.72" xlink:href="#s"/><linearGradient id="a`" x1="1536.07" x2="1536.07" y2="705.04" xlink:href="#o"/><linearGradient id="aa" x1="1532.9" y1="706.7" x2="1532.9" y2="702.69" xlink:href="#o"/><linearGradient id="ab" x1="41.86" x2="41.86" y2="705.04" xlink:href="#o"/><linearGradient id="ac" x1="45.04" y1="706.7" x2="45.04" y2="702.69" xlink:href="#o"/><linearGradient id="ad" x1="1536.07" y1="9.39" x2="1536.07" xlink:href="#o"/><linearGradient id="ae" x1="1532.9" y1="11.73" x2="1532.9" y2="7.72" xlink:href="#o"/><radialGradient id="af" cx="82.38" cy="36.56" fx="82.38" fy="36.56" r="1668.15" gradientTransform="matrix(1, 0, 0, 1, 0, 0)" gradientUnits="userSpaceOnUse"><stop offset="0" stop-color="#8cd3f7"/><stop offset="1" stop-color="#3b68d3"/></radialGradient><linearGradient id="ag" x1="145.42" y1="37.87" x2="514.66" y2="37.87" gradientTransform="matrix(1, 0, 0, 1, 0, 0)" gradientUnits="userSpaceOnUse"><stop offset="0" stop-color="#3e6e77"/><stop offset="1" stop-color="#223c3f"/></linearGradient><linearGradient id="ah" x1="1054.29" x2="1437.22" xlink:href="#ag"/><linearGradient id="ai" x1="1507.18" y1="678.98" x2="1494.49" y2="666.29" gradientTransform="matrix(1, 0, 0, 1, 0, 0)" gradientUnits="userSpaceOnUse"><stop offset="0" stop-color="#223c3f"/><stop offset="1" stop-color="#3e6e77"/></linearGradient><linearGradient id="aj" x1="104.8" y1="93.8" x2="58.6" y2="47.59" xlink:href="#ag"/><linearGradient id="ak" x1="34.98" y1="156.08" x2="34.98" y2="120.35" xlink:href="#o"/><linearGradient id="al" x1="35.69" y1="125.41" x2="35.69" y2="120.35" gradientTransform="matrix(1, 0, 0, 1, 0, 0)" gradientUnits="userSpaceOnUse"><stop offset="0" stop-color="#88805f"/><stop offset="1" stop-color="#3c5178"/></linearGradient><linearGradient id="am" x1="34.98" y1="156.08" x2="34.98" y2="150.26" gradientTransform="matrix(1, 0, 0, 1, 0, 0)" gradientUnits="userSpaceOnUse"><stop offset="0" stop-color="#98a9b6"/><stop offset="1" stop-color="#9db56b"/></linearGradient><linearGradient id="an" x1="38.02" y1="156.08" x2="38.02" y2="120.35" gradientTransform="matrix(1, 0, 0, 1, 0, 0)" gradientUnits="userSpaceOnUse"><stop offset="0" stop-color="#7f94a7"/><stop offset="1" stop-color="#546b8c"/></linearGradient><linearGradient id="ao" x1="34.98" y1="594.08" x2="34.98" y2="558.34" xlink:href="#o"/><linearGradient id="ap" x1="35.69" y1="594.08" x2="35.69" y2="589.02" xlink:href="#am"/><linearGradient id="aq" x1="34.98" y1="564.16" x2="34.98" y2="558.34" xlink:href="#al"/><linearGradient id="ar" y1="594.08" y2="558.34" xlink:href="#an"/><linearGradient id="as" x1="1542.95" y1="156.08" x2="1542.95" y2="120.35" xlink:href="#o"/><radialGradient id="at" cx="1542.92" cy="138.22" fx="1542.92" fy="138.22" r="10.27" xlink:href="#i"/><linearGradient id="au" x1="1542.24" x2="1542.24" xlink:href="#al"/><linearGradient id="av" x1="1542.95" x2="1542.95" xlink:href="#am"/><linearGradient id="aw" x1="1545.31" y1="151.38" x2="1545.31" y2="124.22" xlink:href="#an"/><linearGradient id="ax" x1="1539.91" x2="1539.91" xlink:href="#an"/><linearGradient id="ay" x1="1542.95" y1="594.08" x2="1542.95" y2="558.34" xlink:href="#o"/><radialGradient id="b`" cx="1542.92" cy="576.21" fx="1542.92" fy="576.21" r="10.27" xlink:href="#i"/><linearGradient id="ba" x1="1542.24" y1="594.08" x2="1542.24" y2="589.02" xlink:href="#am"/><linearGradient id="bb" x1="1542.95" y1="564.16" x2="1542.95" y2="558.34" xlink:href="#al"/><linearGradient id="bc" x1="1545.31" y1="590.2" x2="1545.31" y2="563.05" xlink:href="#an"/><linearGradient id="bd" x1="1539.91" y1="594.08" x2="1539.91" y2="558.34" xlink:href="#an"/><linearGradient id="be" x1="66.39" y1="504.68" x2="66.39" y2="209.05" gradientTransform="matrix(1, 0, 0, 1, 0, 0)" gradientUnits="userSpaceOnUse"><stop offset="0" stop-color="#fff"/><stop offset="1" stop-color="#000"/></linearGradient><linearGradient id="bf" x1="542.44" y1="683.34" x2="574.42" y2="683.34" xlink:href="#be"/><linearGradient id="bg" x1="788.96" y1="7.72" x2="788.96" y2="3.71" xlink:href="#u"/><linearGradient id="bh" x1="1165.09" y1="3.71" x2="1165.09" y2="1.71" xlink:href="#an"/><linearGradient id="bi" x1="1132.84" y1="3.71" x2="1132.84" y2="1.71" xlink:href="#an"/><linearGradient id="bj" x1="1148.97" y1="3.71" x2="1148.97" y2="1.71" xlink:href="#am"/><linearGradient id="bk" x1="412.84" y1="3.71" x2="412.84" y2="1.71" xlink:href="#an"/><linearGradient id="bl" x1="445.09" y1="3.71" x2="445.09" y2="1.71" xlink:href="#an"/><linearGradient id="bm" x1="428.96" y1="3.71" x2="428.96" y2="1.71" xlink:href="#am"/><linearGradient id="bn" x1="788.68" y1="3.71" x2="788.68" y2="1.7" gradientTransform="matrix(1, 0, 0, 1, 0, 0)" gradientUnits="userSpaceOnUse"><stop offset="0" stop-color="#adc1d0"/><stop offset="1" stop-color="#648fe2"/></linearGradient><linearGradient id="bo" x1="1015.85" y1="2.07" x2="1015.85" y2="1.7" xlink:href="#an"/><radialGradient id="bp" cx="32766.29" cy="-100311.47" fx="32766.29" fy="-100311.47" r="158.85" gradientTransform="translate(-5318.2 4428.01) scale(.17 .04)" xlink:href="#e"/><radialGradient id="bq" cx="-26870.58" cy="-128661.7" fx="-26870.58" fy="-128661.7" r="64.33" gradientTransform="translate(-6068.94 5936.14) rotate(90) scale(.2 .06)" xlink:href="#e"/><radialGradient id="br" cx="24279.15" cy="-100311.47" fx="24279.15" fy="-100311.47" r="158.85" gradientTransform="translate(-4966.64 4428.01) scale(.23 .04)" xlink:href="#e"/><radialGradient id="bs" cx="28227.42" cy="-100311.47" fx="28227.42" fy="-100311.47" r="158.85" gradientTransform="translate(-4966.64 4428.01) scale(.23 .04)" xlink:href="#e"/><radialGradient id="bt" cx="18077.87" cy="100689.77" fx="18077.87" fy="100689.77" r="158.83" gradientTransform="translate(-6852.07 3578.63) rotate(-90) scale(.17 .07)" xlink:href="#e"/><radialGradient id="bu" cx="-4758.02" cy="-43141.82" fx="-4758.02" fy="-43141.82" r="22.34" gradientTransform="translate(-5745.47 -12318.74) rotate(-90) scale(2.72 -.13)" gradientUnits="userSpaceOnUse"><stop offset="0" stop-color="#f3e537"/><stop offset=".02" stop-color="#eadd35"/><stop offset=".23" stop-color="#a49b25"/><stop offset=".43" stop-color="#696317"/><stop offset=".62" stop-color="#3c380d"/><stop offset=".78" stop-color="#1b1906"/><stop offset=".91" stop-color="#070601"/><stop offset="1" stop-color="#000"/></radialGradient><radialGradient id="bv" cx="-11145.08" cy="189776.91" fx="-11145.08" fy="189776.91" r="35.61" gradientTransform="translate(-6610.34 10108.43) rotate(90) scale(.85 -.04)" xlink:href="#bu"/><radialGradient id="bw" cx="-33824.24" cy="100689.77" fx="-33824.24" fy="100689.77" r="158.83" gradientTransform="translate(-6852.07 5759.58) rotate(90) scale(.17 -.07)" xlink:href="#e"/><radialGradient id="bx" cx="-7933.36" fx="-7933.36" r="22.34" gradientTransform="translate(-5745.47 21656.95) rotate(90) scale(2.72 .13)" xlink:href="#bu"/><radialGradient id="by" cx="-1040.68" cy="189776.91" fx="-1040.68" fy="189776.91" r="35.61" gradientTransform="translate(-6610.34 -770.22) rotate(-90) scale(.85 .04)" xlink:href="#bu"/><radialGradient id="c`" cx="-33940.09" cy="-100815.35" fx="-33940.09" fy="-100815.35" r="158.83" gradientTransform="translate(-5352.96 5778.83) rotate(90) scale(.17 .07)" xlink:href="#e"/><radialGradient id="ca" cx="-7940.45" cy="59716.01" fx="-7940.45" fy="59716.01" r="22.34" gradientTransform="translate(-6459.55 21676.2) rotate(90) scale(2.72 -.13)" xlink:href="#bu"/><radialGradient id="cb" cx="-1018.12" cy="-204021.68" fx="-1018.12" fy="-204021.68" r="35.61" gradientTransform="translate(-5594.68 -750.96) rotate(-90) scale(.85 -.04)" xlink:href="#bu"/><radialGradient id="cc" cx="18193.72" cy="-100815.35" fx="18193.72" fy="-100815.35" r="158.83" gradientTransform="translate(-5352.96 3597.88) rotate(-90) scale(.17 -.07)" xlink:href="#e"/><radialGradient id="cd" cx="-4750.94" cy="59716.01" fx="-4750.94" fy="59716.01" r="22.34" gradientTransform="translate(-6459.55 -12299.49) rotate(-90) scale(2.72 .13)" xlink:href="#bu"/><radialGradient id="ce" cx="-11167.64" cy="-204021.68" fx="-11167.64" fy="-204021.68" r="35.61" gradientTransform="translate(-5594.68 10127.68) rotate(90) scale(.85 .04)" xlink:href="#bu"/><radialGradient id="cf" cx="6327" cy="1888.21" fx="6327" fy="1888.21" r="25.82" gradientTransform="translate(-3171.91 -2078.96) scale(.51 1.44)" gradientUnits="userSpaceOnUse"><stop offset="0" stop-color="#cdaf2b"/><stop offset=".02" stop-color="#bfa328"/><stop offset=".11" stop-color="#937d1e"/><stop offset=".2" stop-color="#6b5b16"/><stop offset=".29" stop-color="#4a3f0f"/><stop offset=".39" stop-color="#2f2809"/><stop offset=".5" stop-color="#1a1605"/><stop offset=".63" stop-color="#0b0902"/><stop offset=".77" stop-color="#020200"/><stop offset="1" stop-color="#000"/></radialGradient><radialGradient id="cg" cx="9173.41" cy="1481.96" fx="9173.41" fy="1481.96" r="25.82" xlink:href="#cf"/></defs><g class="fm"><g id="a"/><g id="b"><g><circle class="fk" cx="525.46" cy="676.86" r="52.43" transform="translate(-324.71 569.8) rotate(-45)"/><circle class="fi" cx="1038.79" cy="676.86" r="52.43" transform="translate(-174.36 932.79) rotate(-45)"/><g><path class="e`" d="M1479.62,572.77c0-27.15,22.01-49.15,49.16-49.15s49.15,22.01,49.15,49.15-22.01,49.16-49.15,49.16-49.16-22.01-49.16-49.16Z"/><path class="eg" d="M1479.62,137.99c0-27.15,22.01-49.15,49.16-49.15s49.15,22.01,49.15,49.15-22.01,49.16-49.15,49.16-49.16-22.01-49.16-49.16Z"/></g><path class="dc" d="M98.31,139.31c0,27.15-22.01,49.15-49.15,49.15S0,166.46,0,139.31s22.01-49.16,49.16-49.16,49.15,22.01,49.15,49.16Z"/><path class="ei" d="M98.31,574.09c0,27.15-22.01,49.15-49.15,49.15S0,601.24,0,574.09s22.01-49.16,49.16-49.16,49.15,22.01,49.15,49.16Z"/><polygon class="dw" points="505.57 708.3 545.34 708.3 545.34 710.31 505.57 710.31 505.57 708.3 505.57 708.3"/><polygon class="ck" points="1018.91 708.3 1058.68 708.3 1058.68 710.31 1018.91 710.31 1018.91 708.3 1018.91 708.3"/><polygon class="dg" points="43.03 616.66 43.03 535.76 27.23 549.7 30.1 604.39 43.03 616.66 43.03 616.66"/><polygon class="ej" points="43.03 97.77 43.03 178.66 27.23 164.73 30.1 110.03 43.03 97.77 43.03 97.77"/><polygon class="dm" points="1534.9 616.66 1534.9 535.76 1550.7 549.7 1547.83 604.39 1534.9 616.66 1534.9 616.66"/><polygon class="ep" points="1534.9 97.77 1534.9 178.66 1550.7 164.73 1547.83 110.03 1534.9 97.77 1534.9 97.77"/><polygon class="ev" points="43.03 3.71 1534.9 3.71 1538.91 7.72 1538.91 706.7 1534.9 710.71 1058.68 710.71 1056.67 708.71 1020.91 708.71 1018.91 710.71 545.34 710.71 543.34 708.71 507.57 708.71 505.57 710.71 43.03 710.71 39.02 706.7 39.02 7.72 43.03 3.71 43.03 3.71"/><polygon class="cx" points="47.04 11.73 1530.89 11.73 1530.89 702.69 47.04 702.69 47.04 11.73 47.04 11.73"/><polygon class="da" points="39.02 7.72 43.03 9.39 44.69 7.72 43.03 3.71 39.02 7.72 39.02 7.72"/><polygon class="cj" points="44.69 7.72 43.03 9.39 47.04 11.73 44.69 7.72 44.69 7.72"/><polygon class="dn" points="1533.24 706.7 44.69 706.7 43.03 710.71 505.57 710.71 507.57 708.71 543.34 708.71 545.34 710.71 1018.91 710.71 1020.91 708.71 1056.67 708.71 1058.68 710.71 1534.9 710.71 1533.24 706.7 1533.24 706.7"/><polygon class="cp" points="44.69 706.7 1533.24 706.7 1530.89 702.69 47.04 702.69 44.69 706.7 44.69 706.7"/><polygon class="dh" points="43.03 703.87 43.03 610.75 43.03 539.32 43.03 172.75 43.03 101.33 43.03 8.21 39.02 6.55 39.02 103.66 30.1 108.86 27.23 163.55 39.02 170.42 39.02 209.96 39.02 541.66 27.23 548.53 30.1 603.22 39.02 608.42 39.02 705.53 43.03 703.87 43.03 703.87"/><polygon class="ci" points="1530.89 11.73 1530.89 702.69 1534.9 705.04 1534.9 9.39 1530.89 11.73 1530.89 11.73"/><polygon class="cm" points="47.04 11.73 47.04 702.69 43.03 705.04 43.03 9.39 47.04 11.73 47.04 11.73"/><polygon class="ec" points="1534.9 705.04 1534.9 611.92 1534.9 540.5 1534.9 173.93 1534.9 102.5 1534.9 9.39 1538.91 7.72 1538.91 104.84 1547.83 110.03 1550.7 164.73 1538.91 171.59 1538.91 503.29 1538.91 542.83 1550.7 549.7 1547.83 604.39 1538.91 609.59 1538.91 706.7 1534.9 705.04 1534.9 705.04"/><polygon class="ch" points="44.69 7.72 1533.24 7.72 1530.89 11.73 47.04 11.73 44.69 7.72 44.69 7.72"/><polygon class="ew" points="1538.91 706.7 1534.9 705.04 1533.24 706.7 1534.9 710.71 1538.91 706.7 1538.91 706.7"/><polygon class="ee" points="1533.24 706.7 1534.9 705.04 1530.89 702.69 1533.24 706.7 1533.24 706.7"/><polygon class="dp" points="39.02 706.7 43.03 705.04 44.69 706.7 43.03 710.71 39.02 706.7 39.02 706.7"/><polygon class="dl" points="44.69 706.7 43.03 705.04 47.04 702.69 44.69 706.7 44.69 706.7"/><polygon class="eb" points="1538.91 7.72 1534.9 9.39 1533.24 7.72 1534.9 3.71 1538.91 7.72 1538.91 7.72"/><polygon class="ct" points="1533.24 7.72 1534.9 9.39 1530.89 11.73 1533.24 7.72 1533.24 7.72"/><path class="cs" d="M765.23,27.73h4.64l-4.71,4.71h4.64l4.71-4.71h114.53l2.35,2.36h119.24l2.35,2.35h420.99l7.87,7.87h60.46v60.46l7.87,7.87v23.24l4.71,4.71v65.37l-4.71,4.71v332.05l-7.87,7.87v9.39l7.87,7.87v118.15h-56.03l-4.71,4.71h-382.77l-4.71-4.71h-10.88l-4.71,4.71h-16.47l-4.71-4.71h-135.06l-5.99-17.26h-204.07l-5.99,17.26h-28.05l-2.34,2.35h-4.64l2.34-2.35h-4.64l-3.71,3.71h-4.64l3.71-3.71h-4.64l-4.71,4.71h-4.64l4.71-4.71h-4.64l-4.71,4.71h-4.64l4.71-4.71h-4.64l-4.71,4.71h-4.64l4.71-4.71h-4.64l-4.71,4.71h-52.41l-4.71-4.71H67.74v-73.12l-4.71-4.71V197.17l4.71-4.71V119.76l-3.75-3.75v-41.27l3.75-3.75V32.43h38.73l7.87,7.87h26.43l7.87-7.87h391.36l7.87,7.87h66.55l7.87-7.87h73.25l2.35-2.35h4.64l-2.35,2.35h4.64l3.71-3.71h4.64l-3.71,3.71h4.64l4.71-4.71h4.64l-4.71,4.71h4.64l4.71-4.71h4.64l-4.71,4.71h4.64l4.71-4.71h4.64l-4.71,4.71h4.64l4.71-4.71h4.64l-4.71,4.71h4.64l4.71-4.71h4.64l-4.71,4.71h4.64l4.71-4.71h0Zm127.05,651.26h584.87l4.86-4.86H895.74l-1.04-3.01-4.95-14.26h-215.25l-5.99,17.26H75.61V127.63l-4.86-4.86V678.98H671.97l5.99-17.26h208.33l5.99,17.26h0Zm5.59-7.87h601.45V43.31H78.62V671.11H666.38l5.99-17.26h219.5l5.99,17.26h0Zm129.35,10.88h21.88l-3.29,3.29h-15.3l-3.29-3.29h0Zm36.76,0h388.18l-3.29,3.29h-381.6l-3.29-3.29h0Zm443.2-116.52v83.48l-4.86,4.86v-93.21l4.86,4.86h0Zm0,88.12v25.39h-25.39l4.86-4.86h15.66v-15.66l4.86-4.86h0ZM70.75,118.13V35.44h34.09l4.86,4.86h-34.09V122.99l-4.86-4.86h0Zm-3.01,76.34v11.75l-3.29,3.29v-11.75l3.29-3.29h0Zm-3.29,356.43l3.29,3.29v52.68l-3.29-3.29v-52.68h0ZM150.28,35.44h388.09l4.86,4.86H145.42l4.86-4.86h0Zm473.64,0h808.43l4.86,4.86H619.06l4.86-4.86h0Zm883.26,74.83v426.8l-4.86,4.86V105.41l4.86,4.86h0Z"/><polygon class="er" points="145.42 40.3 514.66 40.3 509.8 35.44 150.28 35.44 145.42 40.3 145.42 40.3"/><polygon class="cw" points="1054.29 40.3 1437.22 40.3 1432.35 35.44 1059.15 35.44 1054.29 40.3 1054.29 40.3"/><polygon class="dt" points="1486.66 674.12 1481.8 678.98 1507.18 678.98 1507.18 653.6 1502.32 658.46 1502.32 674.12 1486.66 674.12 1486.66 674.12"/><polygon class="en" points="1510.19 559 1510.19 543.54 1506.33 547.41 1506.33 555.14 1510.19 559 1510.19 559"/><polygon class="en" points="139.95 36.29 143.81 32.43 111.31 32.43 115.17 36.29 139.95 36.29 139.95 36.29"/><polygon class="en" points="544.84 32.43 548.7 36.29 613.59 36.29 617.45 32.43 544.84 32.43 544.84 32.43"/><polygon class="dx" points="109.7 40.3 104.84 35.44 70.75 35.44 70.75 118.13 75.61 122.99 75.61 40.3 109.7 40.3 109.7 40.3"/><polygon class="cl" points="30.94 151.38 39.02 156.08 39.02 120.35 32.36 124.22 30.94 151.38 30.94 151.38"/><polygon class="el" points="32.36 124.22 34.31 125.41 37.01 123.83 39.02 120.35 32.36 124.22 32.36 124.22"/><polygon class="du" points="33 150.26 30.94 151.38 39.02 156.08 37.01 152.6 33 150.26 33 150.26"/><polygon class="ek" points="37.01 123.83 37.01 152.6 39.02 156.08 39.02 120.35 37.01 123.83 37.01 123.83"/><polygon class="es" points="30.94 563.05 39.02 558.34 39.02 594.08 32.36 590.2 30.94 563.05 30.94 563.05"/><polygon class="cq" points="32.36 590.2 34.31 589.02 37.01 590.59 39.02 594.08 32.36 590.2 32.36 590.2"/><polygon class="em" points="33 564.16 30.94 563.05 39.02 558.34 37.01 561.83 33 564.16 33 564.16"/><polygon class="dy" points="37.01 590.59 37.01 561.83 39.02 558.34 39.02 594.08 37.01 590.59 37.01 590.59"/><polygon class="cn" points="1546.99 151.38 1538.91 156.08 1538.91 120.35 1545.57 124.22 1546.99 151.38 1546.99 151.38"/><polygon class="ef" points="1544.93 150.26 1540.92 152.6 1540.92 123.83 1543.62 125.41 1544.93 150.26 1544.93 150.26"/><polygon class="df" points="1545.57 124.22 1543.62 125.41 1540.92 123.83 1538.91 120.35 1545.57 124.22 1545.57 124.22"/><polygon class="de" points="1544.93 150.26 1546.99 151.38 1538.91 156.08 1540.92 152.6 1544.93 150.26 1544.93 150.26"/><polygon class="ex" points="1546.99 151.38 1544.93 150.26 1543.62 125.41 1545.57 124.22 1546.99 151.38 1546.99 151.38"/><polygon class="co" points="1540.92 123.83 1540.92 152.6 1538.91 156.08 1538.91 120.35 1540.92 123.83 1540.92 123.83"/><polygon class="d`" points="1546.99 563.05 1538.91 558.34 1538.91 594.08 1545.57 590.2 1546.99 563.05 1546.99 563.05"/><polygon class="ds" points="1544.93 564.16 1540.92 561.83 1540.92 590.59 1543.62 589.02 1544.93 564.16 1544.93 564.16"/><polygon class="dr" points="1545.57 590.2 1543.62 589.02 1540.92 590.59 1538.91 594.08 1545.57 590.2 1545.57 590.2"/><polygon class="cy" points="1544.93 564.16 1546.99 563.05 1538.91 558.34 1540.92 561.83 1544.93 564.16 1544.93 564.16"/><polygon class="et" points="1546.99 563.05 1544.93 564.16 1543.62 589.02 1545.57 590.2 1546.99 563.05 1546.99 563.05"/><polygon class="eq" points="1540.92 590.59 1540.92 561.83 1538.91 558.34 1538.91 594.08 1540.92 590.59 1540.92 590.59"/><polygon class="en" points="1453.45 32.43 1457.31 36.29 1509.34 36.29 1513.2 32.43 1453.45 32.43 1453.45 32.43"/><path class="en" d="M54.39,653.76v-4.64l6,6v4.64l-6-6h0Zm0-9.28v-4.64l6,6v4.64l-6-6h0Zm0-9.28v-4.64l6,6v4.64l-6-6h0Z"/><path class="en" d="M1507.2,69.03v4.64l6-6v-4.64l-6,6h0Zm0-9.28v4.64l6-6v-4.64l-6,6h0Zm0-9.28v4.64l6-6v-4.64l-6,6h0Z"/><polygon class="ed" points="67.74 209.05 65.04 211.76 65.04 501.97 67.74 504.68 67.74 209.05 67.74 209.05"/><polygon class="cv" points="542.44 681.99 545.14 684.7 571.72 684.7 574.42 681.99 542.44 681.99 542.44 681.99"/><polyline class="eo" points="1182.34 3.71 1534.9 3.71 1533.24 7.72 1533.24 7.72 1184.68 7.72 1113.25 7.72 1078.94 7.72 498.59 7.72 464.68 7.72 393.25 7.72 44.69 7.72 43.03 3.71 395.59 3.71"/><line class="fn" x1="1163.35" y1="1.71" x2="1166.83" y2="3.71"/><line class="fo" x1="1131.1" y1="3.71" x2="1134.58" y2="1.71"/><polygon class="ey" points="1163.35 1.71 1134.58 1.71 1131.1 3.71 1166.83 3.71 1163.35 1.71 1163.35 1.71"/><line class="f`" x1="414.58" y1="1.71" x2="411.1" y2="3.71"/><line class="fl" x1="446.83" y1="3.71" x2="443.35" y2="1.71"/><polygon class="eh" points="414.58 1.71 443.35 1.71 446.83 3.71 411.1 3.71 414.58 1.71 414.58 1.71"/><path class="cu" d="M561.58,1.7c.74,1.28,2,2.01,3.48,2.01h447.42c1.47,0,2.74-.73,3.48-2.01"/><path class="di" d="M561.58,1.7c.74,1.28,2,2.01,3.48,2.01h447.42c1.37,0,2.56-.63,3.31-1.75h0"/><path class="do" d="M1015.79,1.97c.06-.08-.23,.42,.16-.26"/><path class="cr" d="M153.96,34.36c0,3.84-11.82,6.96-26.4,6.96s-26.41-3.11-26.41-6.96,11.82-6.96,26.41-6.96,26.4,3.11,26.4,6.96Z"/><path class="dd" d="M1509.23,564.16c-2.09,0-3.79-5.77-3.79-12.89s1.7-12.89,3.79-12.89,3.79,5.77,3.79,12.89-1.7,12.89-3.79,12.89Z"/><path class="eu" d="M617.45,34.36c0,3.84-16.25,6.96-36.3,6.96s-36.3-3.11-36.3-6.96,16.25-6.96,36.3-6.96,36.3,3.11,36.3,6.96Z"/><ellipse class="fj" cx="1483.33" cy="34.36" rx="36.3" ry="6.96"/><g><path class="db" d="M35.12,547.68c6,0,10.86,11.82,10.86,26.41s-4.86,26.4-10.86,26.4-10.86-11.82-10.86-26.4,4.86-26.41,10.86-26.41Z"/><g><ellipse class="fd" cx="35.53" cy="606.91" rx="2.99" ry="60.69"/><path class="fb" d="M31.86,563.49c-.69,0-1.25,13.6-1.25,30.38s.56,30.38,1.25,30.38,1.25-13.6,1.25-30.38-.56-30.38-1.25-30.38Z"/></g></g><g><path class="dk" d="M35.12,164.39c6,0,10.86-11.82,10.86-26.41s-4.86-26.4-10.86-26.4-10.86,11.82-10.86,26.4,4.86,26.41,10.86,26.41Z"/><g><ellipse class="fg" cx="35.53" cy="105.17" rx="2.99" ry="60.69"/><path class="fc" d="M31.86,148.59c-.69,0-1.25-13.6-1.25-30.38s.56-30.38,1.25-30.38,1.25,13.6,1.25,30.38-.56,30.38-1.25,30.38Z"/></g></g><g><g><path class="dj" d="M1542.81,164.39c-6,0-10.86-11.82-10.86-26.41s4.86-26.4,10.86-26.4,10.86,11.82,10.86,26.4-4.86,26.41-10.86,26.41Z"/><g><ellipse class="fh" cx="1542.4" cy="105.17" rx="2.99" ry="60.69"/><path class="fe" d="M1546.07,148.59c.69,0,1.25-13.6,1.25-30.38s-.56-30.38-1.25-30.38-1.25,13.6-1.25,30.38,.56,30.38,1.25,30.38Z"/></g></g><g><path class="ea" d="M1542.81,547.68c-6,0-10.86,11.82-10.86,26.41s4.86,26.4,10.86,26.4,10.86-11.82,10.86-26.4-4.86-26.41-10.86-26.41Z"/><g><ellipse class="fa" cx="1542.4" cy="606.91" rx="2.99" ry="60.69"/><path class="ff" d="M1546.07,563.49c.69,0,1.25,13.6,1.25,30.38s-.56,30.38-1.25,30.38-1.25-13.6-1.25-30.38,.56-30.38,1.25-30.38Z"/></g></g></g><path class="dv" d="M70.57,645.16c0,20.57-5.9,37.25-13.18,37.25s-13.18-16.68-13.18-37.25,5.9-37.25,13.18-37.25,13.18,16.68,13.18,37.25Z"/><path class="dq" d="M1523.38,59.07c0,20.57-5.9,37.25-13.18,37.25s-13.18-16.68-13.18-37.25,5.9-37.25,13.18-37.25,13.18,16.68,13.18,37.25Z"/></g></g></g></svg>