<?xml version="1.0" encoding="utf-8"?>
<!-- Generator: Adobe Illustrator 26.2.1, SVG Export Plug-In . SVG Version: 6.00 Build 0)  -->
<svg version="1.1" id="Capa_1" xmlns="http://www.w3.org/2000/svg" xmlns:xlink="http://www.w3.org/1999/xlink" x="0px" y="0px"
	 viewBox="0 0 1578 730" style="enable-background:new 0 0 1578 730;" xml:space="preserve">
<style type="text/css">
	.st0{fill:url(#SVGID_1_);}
	.st1{fill:url(#SVGID_00000152251730134668173170000013097766259743978678_);}
	.st2{fill:url(#SVGID_00000001664167100612850100000006573153171656255888_);}
	.st3{fill:url(#SVGID_00000029768507090186779240000005342779382357676188_);}
	.st4{fill:url(#SVGID_00000090267907642298046550000004231374069760523709_);}
	.st5{fill:url(#SVGID_00000040537906901937340150000017246068781453201797_);}
	.st6{fill:url(#SVGID_00000178199947436303542870000001153883922227585431_);}
	.st7{fill:url(#SVGID_00000181074683002808693310000004120940685708774302_);}
	.st8{fill:url(#SVGID_00000024700123728548480330000013267450152018924981_);}
	.st9{fill:url(#SVGID_00000014619317410259999950000009106039975715678885_);}
	.st10{fill:url(#SVGID_00000142172009031574039990000002313841881274114701_);}
	.st11{fill:url(#SVGID_00000029038672725145896490000010089661412906184634_);}
	.st12{fill:url(#SVGID_00000013899729400162323060000006925727806809345693_);}
	.st13{fill:url(#SVGID_00000133527181051204481970000003930365669714100135_);}
	.st14{fill:url(#SVGID_00000057847676211501810420000018110964792536451240_);}
	.st15{fill:url(#SVGID_00000129898451049835331450000014034113395097854106_);}
	.st16{fill:url(#SVGID_00000129179856501276650570000002540028507187930271_);}
	.st17{fill:url(#SVGID_00000168796423587932489320000017124189972372667308_);}
	.st18{fill:url(#SVGID_00000152257844257934085070000010454833431293442182_);}
	.st19{fill:url(#SVGID_00000034083733382291897800000003820322124268496776_);}
	.st20{fill:url(#SVGID_00000030462630907742354540000017318855377132577165_);}
	.st21{fill:url(#SVGID_00000051358820537210732270000015514800359592969919_);}
	.st22{fill:url(#SVGID_00000120522586425721492330000008335062720408138912_);}
	.st23{fill:url(#SVGID_00000144335373963127436600000016999651711650684846_);}
	.st24{fill:url(#SVGID_00000134251067122442256980000003576287504530157485_);}
	.st25{fill:url(#SVGID_00000147206123655639464620000003164481871635118994_);}
	.st26{fill:url(#SVGID_00000182515993762988452390000012599337763813679265_);}
	.st27{fill:#C4C445;}
	.st28{fill:url(#SVGID_00000091731371433684831280000015867047239284104622_);}
	.st29{fill:url(#SVGID_00000134240139063530785280000001327993534278127771_);}
	.st30{fill:url(#SVGID_00000103957785362762132060000005170988186089113472_);}
	.st31{fill:url(#SVGID_00000159435937542185215230000005987886388014105507_);}
	.st32{fill:url(#SVGID_00000176030166035001663160000011119977483818584478_);}
	.st33{fill:url(#SVGID_00000011715645419451918880000010178960337274175873_);}
	.st34{fill:url(#SVGID_00000094590382322732638570000007729683858843235712_);}
	.st35{fill:url(#SVGID_00000183211129768575814130000011868806781258168502_);}
	.st36{fill:url(#SVGID_00000111880636507599184020000016040630222306776496_);}
	.st37{fill:url(#SVGID_00000061461879917541864710000009173555304161993652_);}
	.st38{fill:url(#SVGID_00000031175714372115976760000007762733652039959680_);}
	.st39{fill:url(#SVGID_00000016069833323513764620000007824740167550177960_);}
	.st40{fill:url(#SVGID_00000018930067995854310000000012687697009797430417_);}
	.st41{fill:url(#SVGID_00000030483773936300755910000008828556540459717811_);}
	.st42{fill:url(#SVGID_00000132053602660238153970000003730662791856232889_);}
	.st43{fill:url(#SVGID_00000090990133419131872000000013488838834904095161_);}
	.st44{fill:url(#SVGID_00000022536098024837289370000016018780096047963570_);}
	.st45{fill:url(#SVGID_00000163777793636833550540000012367839467563754121_);}
	.st46{fill:url(#SVGID_00000064338712041317957920000007750861769603812751_);}
	.st47{fill:url(#SVGID_00000082356718018348560650000008050891224022367634_);}
	.st48{fill:url(#SVGID_00000113344494078657708060000003684204988731079575_);}
	.st49{fill:url(#SVGID_00000181801286638115952440000018276103133177700535_);}
	.st50{fill:url(#SVGID_00000140695384053524836560000013706820118877225395_);}
	.st51{fill:none;}
	.st52{fill:url(#SVGID_00000137132759143488501920000017725933995031690389_);}
	.st53{fill:url(#SVGID_00000109725513460564572600000005360551172492837052_);}
	.st54{fill:#919191;}
	.st55{fill:url(#SVGID_00000031184392036702711260000009090372393410188676_);}
	.st56{fill:url(#SVGID_00000164508075459155842140000009682199476838415765_);}
</style>
<g>
	<g id="a">
	</g>
	<g id="b">
		<g>
			
				<radialGradient id="SVGID_1_" cx="525.455" cy="22.7" r="14.0786" gradientTransform="matrix(1 0 0 -1 0 732)" gradientUnits="userSpaceOnUse">
				<stop  offset="0" style="stop-color:#F2F585"/>
				<stop  offset="1" style="stop-color:#DDC63A"/>
			</radialGradient>
			<polygon class="st0" points="505.6,708.3 545.3,708.3 545.3,710.3 505.6,710.3 505.6,708.3 			"/>
			
				<radialGradient id="SVGID_00000062877649911730409270000000085891358940396165_" cx="1038.795" cy="22.7" r="14.0786" gradientTransform="matrix(1 0 0 -1 0 732)" gradientUnits="userSpaceOnUse">
				<stop  offset="0" style="stop-color:#F2F585"/>
				<stop  offset="1" style="stop-color:#DDC63A"/>
			</radialGradient>
			<polygon style="fill:url(#SVGID_00000062877649911730409270000000085891358940396165_);" points="1018.9,708.3 1058.7,708.3 
				1058.7,710.3 1018.9,710.3 1018.9,708.3 			"/>
			
				<linearGradient id="SVGID_00000109000384645170277680000003849567491991866557_" gradientUnits="userSpaceOnUse" x1="27.23" y1="155.79" x2="43.03" y2="155.79" gradientTransform="matrix(1 0 0 -1 0 732)">
				<stop  offset="0" style="stop-color:#334A54"/>
				<stop  offset="1" style="stop-color:#2A3B42"/>
			</linearGradient>
			<polygon style="fill:url(#SVGID_00000109000384645170277680000003849567491991866557_);" points="43,616.7 43,535.8 27.2,549.7 
				30.1,604.4 43,616.7 			"/>
			
				<linearGradient id="SVGID_00000054950981334449217540000001088492133603850375_" gradientUnits="userSpaceOnUse" x1="27.23" y1="593.785" x2="43.03" y2="593.785" gradientTransform="matrix(1 0 0 -1 0 732)">
				<stop  offset="0" style="stop-color:#334A54"/>
				<stop  offset="1" style="stop-color:#2A3B42"/>
			</linearGradient>
			<polygon style="fill:url(#SVGID_00000054950981334449217540000001088492133603850375_);" points="43,97.8 43,178.7 27.2,164.7 
				30.1,110 43,97.8 			"/>
			
				<linearGradient id="SVGID_00000021105219293956671660000017610529328727463317_" gradientUnits="userSpaceOnUse" x1="1534.9" y1="155.79" x2="1550.7" y2="155.79" gradientTransform="matrix(1 0 0 -1 0 732)">
				<stop  offset="0" style="stop-color:#2A3B42"/>
				<stop  offset="1" style="stop-color:#334A54"/>
			</linearGradient>
			<polygon style="fill:url(#SVGID_00000021105219293956671660000017610529328727463317_);" points="1534.9,616.7 1534.9,535.8 
				1550.7,549.7 1547.8,604.4 1534.9,616.7 			"/>
			
				<linearGradient id="SVGID_00000132068004642914080880000018403419172366383538_" gradientUnits="userSpaceOnUse" x1="1534.9" y1="593.785" x2="1550.7" y2="593.785" gradientTransform="matrix(1 0 0 -1 0 732)">
				<stop  offset="0" style="stop-color:#2A3B42"/>
				<stop  offset="1" style="stop-color:#334A54"/>
			</linearGradient>
			<polygon style="fill:url(#SVGID_00000132068004642914080880000018403419172366383538_);" points="1534.9,97.8 1534.9,178.7 
				1550.7,164.7 1547.8,110 1534.9,97.8 			"/>
			
				<linearGradient id="SVGID_00000119804004513160699150000016336936676908536754_" gradientUnits="userSpaceOnUse" x1="788.965" y1="21.29" x2="788.965" y2="728.29" gradientTransform="matrix(1 0 0 -1 0 732)">
				<stop  offset="0" style="stop-color:#6D80BE"/>
				<stop  offset="1" style="stop-color:#47597B"/>
			</linearGradient>
			<polygon style="fill:url(#SVGID_00000119804004513160699150000016336936676908536754_);" points="43,3.7 1534.9,3.7 1538.9,7.7 
				1538.9,706.7 1534.9,710.7 1058.7,710.7 1056.7,708.7 1020.9,708.7 1018.9,710.7 545.3,710.7 543.3,708.7 507.6,708.7 
				505.6,710.7 43,710.7 39,706.7 39,7.7 43,3.7 			"/>
			
				<radialGradient id="SVGID_00000167361676111815107310000000756488113681135495_" cx="790.82" cy="709.22" r="1017.42" gradientTransform="matrix(1 0 0 -1 0 732)" gradientUnits="userSpaceOnUse">
				<stop  offset="0" style="stop-color:#3157B4"/>
				<stop  offset="0.11" style="stop-color:#29489D"/>
				<stop  offset="0.27" style="stop-color:#1F3680"/>
				<stop  offset="0.41" style="stop-color:#1A2A6F"/>
				<stop  offset="0.51" style="stop-color:#182769"/>
				<stop  offset="0.6" style="stop-color:#182560"/>
				<stop  offset="0.83" style="stop-color:#18224F"/>
				<stop  offset="1" style="stop-color:#18224A"/>
			</radialGradient>
			<polygon style="fill:url(#SVGID_00000167361676111815107310000000756488113681135495_);" points="47,11.7 1530.9,11.7 
				1530.9,702.7 47,702.7 47,11.7 			"/>
			
				<linearGradient id="SVGID_00000143615941164787640650000017449849681289077125_" gradientUnits="userSpaceOnUse" x1="41.855" y1="722.61" x2="41.855" y2="728.29" gradientTransform="matrix(1 0 0 -1 0 732)">
				<stop  offset="0" style="stop-color:#6D80BE"/>
				<stop  offset="1" style="stop-color:#47597B"/>
			</linearGradient>
			<polygon style="fill:url(#SVGID_00000143615941164787640650000017449849681289077125_);" points="39,7.7 43,9.4 44.7,7.7 43,3.7 
				39,7.7 			"/>
			
				<linearGradient id="SVGID_00000086664026794904036570000017121513732631844761_" gradientUnits="userSpaceOnUse" x1="45.035" y1="720.27" x2="45.035" y2="724.28" gradientTransform="matrix(1 0 0 -1 0 732)">
				<stop  offset="0" style="stop-color:#6D80BE"/>
				<stop  offset="1" style="stop-color:#47597B"/>
			</linearGradient>
			<polygon style="fill:url(#SVGID_00000086664026794904036570000017121513732631844761_);" points="44.7,7.7 43,9.4 47,11.7 
				44.7,7.7 			"/>
			
				<linearGradient id="SVGID_00000124163222153671076750000011380725645643750049_" gradientUnits="userSpaceOnUse" x1="788.965" y1="21.29" x2="788.965" y2="25.3" gradientTransform="matrix(1 0 0 -1 0 732)">
				<stop  offset="0" style="stop-color:#30446E"/>
				<stop  offset="1" style="stop-color:#445D8A"/>
			</linearGradient>
			<polygon style="fill:url(#SVGID_00000124163222153671076750000011380725645643750049_);" points="1533.2,706.7 44.7,706.7 
				43,710.7 505.6,710.7 507.6,708.7 543.3,708.7 545.3,710.7 1018.9,710.7 1020.9,708.7 1056.7,708.7 1058.7,710.7 1534.9,710.7 
				1533.2,706.7 			"/>
			
				<linearGradient id="SVGID_00000127028779604310854020000008787450853091040163_" gradientUnits="userSpaceOnUse" x1="788.965" y1="25.3" x2="788.965" y2="29.31" gradientTransform="matrix(1 0 0 -1 0 732)">
				<stop  offset="0" style="stop-color:#8EADEB"/>
				<stop  offset="1" style="stop-color:#5C759C"/>
			</linearGradient>
			<polygon style="fill:url(#SVGID_00000127028779604310854020000008787450853091040163_);" points="44.7,706.7 1533.2,706.7 
				1530.9,702.7 47,702.7 44.7,706.7 			"/>
			
				<linearGradient id="SVGID_00000170982154987913212980000006599162419996914107_" gradientUnits="userSpaceOnUse" x1="27.23" y1="375.96" x2="43.03" y2="375.96" gradientTransform="matrix(1 0 0 -1 0 732)">
				<stop  offset="0" style="stop-color:#5C759C"/>
				<stop  offset="1" style="stop-color:#8EADEB"/>
			</linearGradient>
			<polygon style="fill:url(#SVGID_00000170982154987913212980000006599162419996914107_);" points="43,703.9 43,610.8 43,539.3 
				43,172.8 43,101.3 43,8.2 39,6.6 39,103.7 30.1,108.9 27.2,163.6 39,170.4 39,210 39,541.7 27.2,548.5 30.1,603.2 39,608.4 
				39,705.5 43,703.9 			"/>
			
				<linearGradient id="SVGID_00000113349830894581404790000003789874260068147605_" gradientUnits="userSpaceOnUse" x1="1530.89" y1="374.785" x2="1534.9" y2="374.785" gradientTransform="matrix(1 0 0 -1 0 732)">
				<stop  offset="0" style="stop-color:#5C759C"/>
				<stop  offset="1" style="stop-color:#8EADEB"/>
			</linearGradient>
			<polygon style="fill:url(#SVGID_00000113349830894581404790000003789874260068147605_);" points="1530.9,11.7 1530.9,702.7 
				1534.9,705 1534.9,9.4 1530.9,11.7 			"/>
			
				<linearGradient id="SVGID_00000109715945866164566010000015709219544892844681_" gradientUnits="userSpaceOnUse" x1="43.03" y1="374.785" x2="47.04" y2="374.785" gradientTransform="matrix(1 0 0 -1 0 732)">
				<stop  offset="0" style="stop-color:#445D8A"/>
				<stop  offset="1" style="stop-color:#30446E"/>
			</linearGradient>
			<polygon style="fill:url(#SVGID_00000109715945866164566010000015709219544892844681_);" points="47,11.7 47,702.7 43,705 
				43,9.4 47,11.7 			"/>
			
				<linearGradient id="SVGID_00000031166815809785812850000000748191981072094111_" gradientUnits="userSpaceOnUse" x1="1534.9" y1="374.79" x2="1550.7" y2="374.79" gradientTransform="matrix(1 0 0 -1 0 732)">
				<stop  offset="0" style="stop-color:#445D8A"/>
				<stop  offset="1" style="stop-color:#30446E"/>
			</linearGradient>
			<polygon style="fill:url(#SVGID_00000031166815809785812850000000748191981072094111_);" points="1534.9,705 1534.9,611.9 
				1534.9,540.5 1534.9,173.9 1534.9,102.5 1534.9,9.4 1538.9,7.7 1538.9,104.8 1547.8,110 1550.7,164.7 1538.9,171.6 1538.9,503.3 
				1538.9,542.8 1550.7,549.7 1547.8,604.4 1538.9,609.6 1538.9,706.7 1534.9,705 			"/>
			
				<linearGradient id="SVGID_00000165921042796167825090000006275102603363244468_" gradientUnits="userSpaceOnUse" x1="788.965" y1="720.27" x2="788.965" y2="724.28" gradientTransform="matrix(1 0 0 -1 0 732)">
				<stop  offset="0" style="stop-color:#30446E"/>
				<stop  offset="1" style="stop-color:#445D8A"/>
			</linearGradient>
			<polygon style="fill:url(#SVGID_00000165921042796167825090000006275102603363244468_);" points="44.7,7.7 1533.2,7.7 
				1530.9,11.7 47,11.7 44.7,7.7 			"/>
			
				<linearGradient id="SVGID_00000168827346232951237020000018420198822370082991_" gradientUnits="userSpaceOnUse" x1="1536.075" y1="21.29" x2="1536.075" y2="26.96" gradientTransform="matrix(1 0 0 -1 0 732)">
				<stop  offset="0" style="stop-color:#6D80BE"/>
				<stop  offset="1" style="stop-color:#47597B"/>
			</linearGradient>
			<polygon style="fill:url(#SVGID_00000168827346232951237020000018420198822370082991_);" points="1538.9,706.7 1534.9,705 
				1533.2,706.7 1534.9,710.7 1538.9,706.7 			"/>
			
				<linearGradient id="SVGID_00000041255227543552188300000010842672996832800934_" gradientUnits="userSpaceOnUse" x1="1532.895" y1="25.3" x2="1532.895" y2="29.31" gradientTransform="matrix(1 0 0 -1 0 732)">
				<stop  offset="0" style="stop-color:#6D80BE"/>
				<stop  offset="1" style="stop-color:#47597B"/>
			</linearGradient>
			<polygon style="fill:url(#SVGID_00000041255227543552188300000010842672996832800934_);" points="1533.2,706.7 1534.9,705 
				1530.9,702.7 1533.2,706.7 			"/>
			
				<linearGradient id="SVGID_00000119091978257998578910000005652375912606690487_" gradientUnits="userSpaceOnUse" x1="41.855" y1="21.29" x2="41.855" y2="26.96" gradientTransform="matrix(1 0 0 -1 0 732)">
				<stop  offset="0" style="stop-color:#6D80BE"/>
				<stop  offset="1" style="stop-color:#47597B"/>
			</linearGradient>
			<polygon style="fill:url(#SVGID_00000119091978257998578910000005652375912606690487_);" points="39,706.7 43,705 44.7,706.7 
				43,710.7 39,706.7 			"/>
			
				<linearGradient id="SVGID_00000070825844556211991730000013316718916269114766_" gradientUnits="userSpaceOnUse" x1="45.035" y1="25.3" x2="45.035" y2="29.31" gradientTransform="matrix(1 0 0 -1 0 732)">
				<stop  offset="0" style="stop-color:#6D80BE"/>
				<stop  offset="1" style="stop-color:#47597B"/>
			</linearGradient>
			<polygon style="fill:url(#SVGID_00000070825844556211991730000013316718916269114766_);" points="44.7,706.7 43,705 47,702.7 
				44.7,706.7 			"/>
			
				<linearGradient id="SVGID_00000086683356519329438520000003719388391108047234_" gradientUnits="userSpaceOnUse" x1="1536.075" y1="722.61" x2="1536.075" y2="728.29" gradientTransform="matrix(1 0 0 -1 0 732)">
				<stop  offset="0" style="stop-color:#6D80BE"/>
				<stop  offset="1" style="stop-color:#47597B"/>
			</linearGradient>
			<polygon style="fill:url(#SVGID_00000086683356519329438520000003719388391108047234_);" points="1538.9,7.7 1534.9,9.4 
				1533.2,7.7 1534.9,3.7 1538.9,7.7 			"/>
			
				<linearGradient id="SVGID_00000017508912104409516750000002011847351938059709_" gradientUnits="userSpaceOnUse" x1="1532.895" y1="720.27" x2="1532.895" y2="724.28" gradientTransform="matrix(1 0 0 -1 0 732)">
				<stop  offset="0" style="stop-color:#6D80BE"/>
				<stop  offset="1" style="stop-color:#47597B"/>
			</linearGradient>
			<polygon style="fill:url(#SVGID_00000017508912104409516750000002011847351938059709_);" points="1533.2,7.7 1534.9,9.4 
				1530.9,11.7 1533.2,7.7 			"/>
			
				<radialGradient id="SVGID_00000003806754706550349030000002721852327720781998_" cx="82.38" cy="695.44" r="1668.15" gradientTransform="matrix(1 0 0 -1 0 732)" gradientUnits="userSpaceOnUse">
				<stop  offset="0" style="stop-color:#8CD3F7"/>
				<stop  offset="1" style="stop-color:#3B68D3"/>
			</radialGradient>
			<path style="fill:url(#SVGID_00000003806754706550349030000002721852327720781998_);" d="M765.2,27.7h4.6l-4.7,4.7h4.6l4.7-4.7
				H889l2.3,2.4h119.2l2.3,2.3h421l7.9,7.9h60.5v60.5l7.9,7.9v23.2l4.7,4.7V202l-4.7,4.7v332l-7.9,7.9v9.4l7.9,7.9V682h-56l-4.7,4.7
				h-382.8l-4.7-4.7h-10.9l-4.7,4.7h-16.5l-4.7-4.7H890.1l-6-17.3H680.1l-6,17.3h-28l-2.3,2.3H639l2.3-2.3h-4.6l-3.7,3.7h-4.6
				l3.7-3.7h-4.6l-4.7,4.7h-4.6l4.7-4.7h-4.6l-4.7,4.7h-4.6l4.7-4.7h-4.6l-4.7,4.7h-4.6l4.7-4.7h-4.6l-4.7,4.7h-52.4l-4.7-4.7h-470
				v-73.1l-4.7-4.7v-407l4.7-4.7v-72.7L64,116V74.7l3.8-3.8V32.4h38.7l7.9,7.9h26.4l7.9-7.9H540l7.9,7.9h66.5l7.9-7.9h73.2l2.3-2.4
				h4.6l-2.3,2.4h4.6l3.7-3.7h4.6l-3.7,3.7h4.6l4.7-4.7h4.6l-4.7,4.7h4.6l4.7-4.7h4.6l-4.7,4.7h4.6l4.7-4.7h4.6l-4.7,4.7h4.6
				l4.7-4.7h4.6l-4.7,4.7h4.6l4.7-4.7h4.6l-4.7,4.7h4.6L765.2,27.7L765.2,27.7L765.2,27.7z M892.3,679h584.9l4.9-4.9H895.7l-1-3
				l-5-14.3H674.5l-6,17.3H75.6V127.6l-4.9-4.9V679H672l6-17.3h208.3L892.3,679L892.3,679L892.3,679z M897.9,671.1h601.5V43.3H78.6
				v627.8h587.8l6-17.3h219.5L897.9,671.1L897.9,671.1L897.9,671.1z M1027.2,682h21.9l-3.3,3.3h-15.3L1027.2,682L1027.2,682
				L1027.2,682z M1064,682h388.2l-3.3,3.3h-381.6L1064,682L1064,682L1064,682z M1507.2,565.5V649l-4.9,4.9v-93.2L1507.2,565.5
				L1507.2,565.5L1507.2,565.5z M1507.2,653.6V679h-25.4l4.9-4.9h15.7v-15.7L1507.2,653.6L1507.2,653.6L1507.2,653.6z M70.8,118.1
				V35.4h34.1l4.9,4.9H75.6V123L70.8,118.1L70.8,118.1z M67.7,194.5v11.8l-3.3,3.3v-11.8L67.7,194.5L67.7,194.5z M64.4,550.9
				l3.3,3.3v52.7l-3.3-3.3V550.9L64.4,550.9z M150.3,35.4h388.1l4.9,4.9H145.4L150.3,35.4L150.3,35.4z M623.9,35.4h808.4l4.9,4.9
				H619.1L623.9,35.4L623.9,35.4L623.9,35.4z M1507.2,110.3v426.8l-4.9,4.9V105.4L1507.2,110.3L1507.2,110.3z"/>
			
				<linearGradient id="SVGID_00000165206409637503342350000004608203497098617279_" gradientUnits="userSpaceOnUse" x1="145.42" y1="694.13" x2="514.66" y2="694.13" gradientTransform="matrix(1 0 0 -1 0 732)">
				<stop  offset="0" style="stop-color:#3E6E77"/>
				<stop  offset="1" style="stop-color:#223C3F"/>
			</linearGradient>
			<polygon style="fill:url(#SVGID_00000165206409637503342350000004608203497098617279_);" points="145.4,40.3 514.7,40.3 
				509.8,35.4 150.3,35.4 145.4,40.3 			"/>
			
				<linearGradient id="SVGID_00000134966584864037182440000007712350959289190294_" gradientUnits="userSpaceOnUse" x1="1054.29" y1="694.13" x2="1437.22" y2="694.13" gradientTransform="matrix(1 0 0 -1 0 732)">
				<stop  offset="0" style="stop-color:#3E6E77"/>
				<stop  offset="1" style="stop-color:#223C3F"/>
			</linearGradient>
			<polygon style="fill:url(#SVGID_00000134966584864037182440000007712350959289190294_);" points="1054.3,40.3 1437.2,40.3 
				1432.3,35.4 1059.2,35.4 1054.3,40.3 			"/>
			
				<linearGradient id="SVGID_00000053540473342007890740000012779190564272282803_" gradientUnits="userSpaceOnUse" x1="1507.1801" y1="53.0201" x2="1494.49" y2="65.7101" gradientTransform="matrix(1 0 0 -1 0 732)">
				<stop  offset="0" style="stop-color:#223C3F"/>
				<stop  offset="1" style="stop-color:#3E6E77"/>
			</linearGradient>
			<polygon style="fill:url(#SVGID_00000053540473342007890740000012779190564272282803_);" points="1486.7,674.1 1481.8,679 
				1507.2,679 1507.2,653.6 1502.3,658.5 1502.3,674.1 1486.7,674.1 			"/>
			<polygon class="st27" points="1510.2,559 1510.2,543.5 1506.3,547.4 1506.3,555.1 1510.2,559 			"/>
			<polygon class="st27" points="139.9,36.3 143.8,32.4 111.3,32.4 115.2,36.3 139.9,36.3 			"/>
			<polygon class="st27" points="544.8,32.4 548.7,36.3 613.6,36.3 617.5,32.4 544.8,32.4 			"/>
			
				<linearGradient id="SVGID_00000119829282652204162400000008340761888486640571_" gradientUnits="userSpaceOnUse" x1="104.8066" y1="638.2003" x2="58.6021" y2="684.4147" gradientTransform="matrix(1 0 0 -1 0 732)">
				<stop  offset="0" style="stop-color:#3E6E77"/>
				<stop  offset="1" style="stop-color:#223C3F"/>
			</linearGradient>
			<polygon style="fill:url(#SVGID_00000119829282652204162400000008340761888486640571_);" points="109.7,40.3 104.8,35.4 
				70.8,35.4 70.8,118.1 75.6,123 75.6,40.3 109.7,40.3 			"/>
			
				<linearGradient id="SVGID_00000078761821637221613430000017478106149395054772_" gradientUnits="userSpaceOnUse" x1="34.98" y1="575.92" x2="34.98" y2="611.65" gradientTransform="matrix(1 0 0 -1 0 732)">
				<stop  offset="0" style="stop-color:#6D80BE"/>
				<stop  offset="1" style="stop-color:#47597B"/>
			</linearGradient>
			<polygon style="fill:url(#SVGID_00000078761821637221613430000017478106149395054772_);" points="30.9,151.4 39,156.1 39,120.3 
				32.4,124.2 30.9,151.4 			"/>
			
				<linearGradient id="SVGID_00000017485938837723102030000005646009496075039149_" gradientUnits="userSpaceOnUse" x1="35.69" y1="606.59" x2="35.69" y2="611.65" gradientTransform="matrix(1 0 0 -1 0 732)">
				<stop  offset="0" style="stop-color:#88805F"/>
				<stop  offset="1" style="stop-color:#3C5178"/>
			</linearGradient>
			<polygon style="fill:url(#SVGID_00000017485938837723102030000005646009496075039149_);" points="32.4,124.2 34.3,125.4 
				37,123.8 39,120.3 32.4,124.2 			"/>
			
				<linearGradient id="SVGID_00000178165388069439983090000006284412447644396463_" gradientUnits="userSpaceOnUse" x1="34.98" y1="575.92" x2="34.98" y2="581.74" gradientTransform="matrix(1 0 0 -1 0 732)">
				<stop  offset="0" style="stop-color:#98A9B6"/>
				<stop  offset="1" style="stop-color:#9DB56B"/>
			</linearGradient>
			<polygon style="fill:url(#SVGID_00000178165388069439983090000006284412447644396463_);" points="33,150.3 30.9,151.4 39,156.1 
				37,152.6 33,150.3 			"/>
			
				<linearGradient id="SVGID_00000168110436071868464320000010477667989927651476_" gradientUnits="userSpaceOnUse" x1="38.015" y1="575.92" x2="38.015" y2="611.65" gradientTransform="matrix(1 0 0 -1 0 732)">
				<stop  offset="0" style="stop-color:#7F94A7"/>
				<stop  offset="1" style="stop-color:#546B8C"/>
			</linearGradient>
			<polygon style="fill:url(#SVGID_00000168110436071868464320000010477667989927651476_);" points="37,123.8 37,152.6 39,156.1 
				39,120.3 37,123.8 			"/>
			
				<linearGradient id="SVGID_00000037653540386706427070000006217129121350412963_" gradientUnits="userSpaceOnUse" x1="34.98" y1="137.92" x2="34.98" y2="173.66" gradientTransform="matrix(1 0 0 -1 0 732)">
				<stop  offset="0" style="stop-color:#6D80BE"/>
				<stop  offset="1" style="stop-color:#47597B"/>
			</linearGradient>
			<polygon style="fill:url(#SVGID_00000037653540386706427070000006217129121350412963_);" points="30.9,563 39,558.3 39,594.1 
				32.4,590.2 30.9,563 			"/>
			
				<linearGradient id="SVGID_00000061455427471674350550000013440002635565111945_" gradientUnits="userSpaceOnUse" x1="35.69" y1="137.92" x2="35.69" y2="142.98" gradientTransform="matrix(1 0 0 -1 0 732)">
				<stop  offset="0" style="stop-color:#98A9B6"/>
				<stop  offset="1" style="stop-color:#9DB56B"/>
			</linearGradient>
			<polygon style="fill:url(#SVGID_00000061455427471674350550000013440002635565111945_);" points="32.4,590.2 34.3,589 37,590.6 
				39,594.1 32.4,590.2 			"/>
			
				<linearGradient id="SVGID_00000132063598688034410130000017860620672289480372_" gradientUnits="userSpaceOnUse" x1="34.98" y1="167.84" x2="34.98" y2="173.66" gradientTransform="matrix(1 0 0 -1 0 732)">
				<stop  offset="0" style="stop-color:#88805F"/>
				<stop  offset="1" style="stop-color:#3C5178"/>
			</linearGradient>
			<polygon style="fill:url(#SVGID_00000132063598688034410130000017860620672289480372_);" points="33,564.2 30.9,563 39,558.3 
				37,561.8 33,564.2 			"/>
			
				<linearGradient id="SVGID_00000021090435480165306000000012881638505881229186_" gradientUnits="userSpaceOnUse" x1="38.015" y1="137.92" x2="38.015" y2="173.66" gradientTransform="matrix(1 0 0 -1 0 732)">
				<stop  offset="0" style="stop-color:#7F94A7"/>
				<stop  offset="1" style="stop-color:#546B8C"/>
			</linearGradient>
			<polygon style="fill:url(#SVGID_00000021090435480165306000000012881638505881229186_);" points="37,590.6 37,561.8 39,558.3 
				39,594.1 37,590.6 			"/>
			
				<linearGradient id="SVGID_00000171686799946626314530000011512049194209780876_" gradientUnits="userSpaceOnUse" x1="1542.95" y1="575.92" x2="1542.95" y2="611.65" gradientTransform="matrix(1 0 0 -1 0 732)">
				<stop  offset="0" style="stop-color:#6D80BE"/>
				<stop  offset="1" style="stop-color:#47597B"/>
			</linearGradient>
			<polygon style="fill:url(#SVGID_00000171686799946626314530000011512049194209780876_);" points="1547,151.4 1538.9,156.1 
				1538.9,120.3 1545.6,124.2 1547,151.4 			"/>
			
				<radialGradient id="SVGID_00000077313707519151738950000010927122687336193688_" cx="1542.92" cy="593.785" r="10.2706" gradientTransform="matrix(1 0 0 -1 0 732)" gradientUnits="userSpaceOnUse">
				<stop  offset="0" style="stop-color:#F2F585"/>
				<stop  offset="1" style="stop-color:#DDC63A"/>
			</radialGradient>
			<polygon style="fill:url(#SVGID_00000077313707519151738950000010927122687336193688_);" points="1544.9,150.3 1540.9,152.6 
				1540.9,123.8 1543.6,125.4 1544.9,150.3 			"/>
			
				<linearGradient id="SVGID_00000163753412921546124630000011471812123073990299_" gradientUnits="userSpaceOnUse" x1="1542.24" y1="606.59" x2="1542.24" y2="611.65" gradientTransform="matrix(1 0 0 -1 0 732)">
				<stop  offset="0" style="stop-color:#88805F"/>
				<stop  offset="1" style="stop-color:#3C5178"/>
			</linearGradient>
			<polygon style="fill:url(#SVGID_00000163753412921546124630000011471812123073990299_);" points="1545.6,124.2 1543.6,125.4 
				1540.9,123.8 1538.9,120.3 1545.6,124.2 			"/>
			
				<linearGradient id="SVGID_00000000911152156023852630000012844524275365297307_" gradientUnits="userSpaceOnUse" x1="1542.95" y1="575.92" x2="1542.95" y2="581.74" gradientTransform="matrix(1 0 0 -1 0 732)">
				<stop  offset="0" style="stop-color:#98A9B6"/>
				<stop  offset="1" style="stop-color:#9DB56B"/>
			</linearGradient>
			<polygon style="fill:url(#SVGID_00000000911152156023852630000012844524275365297307_);" points="1544.9,150.3 1547,151.4 
				1538.9,156.1 1540.9,152.6 1544.9,150.3 			"/>
			
				<linearGradient id="SVGID_00000124854301409378063040000013620405895383404178_" gradientUnits="userSpaceOnUse" x1="1545.3049" y1="580.62" x2="1545.3049" y2="607.78" gradientTransform="matrix(1 0 0 -1 0 732)">
				<stop  offset="0" style="stop-color:#7F94A7"/>
				<stop  offset="1" style="stop-color:#546B8C"/>
			</linearGradient>
			<polygon style="fill:url(#SVGID_00000124854301409378063040000013620405895383404178_);" points="1547,151.4 1544.9,150.3 
				1543.6,125.4 1545.6,124.2 1547,151.4 			"/>
			
				<linearGradient id="SVGID_00000008834548735618894190000011901833905808457104_" gradientUnits="userSpaceOnUse" x1="1539.915" y1="575.92" x2="1539.915" y2="611.65" gradientTransform="matrix(1 0 0 -1 0 732)">
				<stop  offset="0" style="stop-color:#7F94A7"/>
				<stop  offset="1" style="stop-color:#546B8C"/>
			</linearGradient>
			<polygon style="fill:url(#SVGID_00000008834548735618894190000011901833905808457104_);" points="1540.9,123.8 1540.9,152.6 
				1538.9,156.1 1538.9,120.3 1540.9,123.8 			"/>
			<polygon points="1547,563 1538.9,558.3 1538.9,594.1 1545.6,590.2 1547,563 			"/>
			
				<radialGradient id="SVGID_00000026884273091488501890000014613180376084155583_" cx="1542.92" cy="155.79" r="10.2671" gradientTransform="matrix(1 0 0 -1 0 732)" gradientUnits="userSpaceOnUse">
				<stop  offset="0" style="stop-color:#F2F585"/>
				<stop  offset="1" style="stop-color:#DDC63A"/>
			</radialGradient>
			<polygon style="fill:url(#SVGID_00000026884273091488501890000014613180376084155583_);" points="1544.9,564.2 1540.9,561.8 
				1540.9,590.6 1543.6,589 1544.9,564.2 			"/>
			
				<linearGradient id="SVGID_00000101785129807861611890000017061379677033420160_" gradientUnits="userSpaceOnUse" x1="1542.24" y1="137.92" x2="1542.24" y2="142.98" gradientTransform="matrix(1 0 0 -1 0 732)">
				<stop  offset="0" style="stop-color:#98A9B6"/>
				<stop  offset="1" style="stop-color:#9DB56B"/>
			</linearGradient>
			<polygon style="fill:url(#SVGID_00000101785129807861611890000017061379677033420160_);" points="1545.6,590.2 1543.6,589 
				1540.9,590.6 1538.9,594.1 1545.6,590.2 			"/>
			
				<linearGradient id="SVGID_00000120554779223822708190000005812152999142764967_" gradientUnits="userSpaceOnUse" x1="1542.95" y1="167.84" x2="1542.95" y2="173.66" gradientTransform="matrix(1 0 0 -1 0 732)">
				<stop  offset="0" style="stop-color:#88805F"/>
				<stop  offset="1" style="stop-color:#3C5178"/>
			</linearGradient>
			<polygon style="fill:url(#SVGID_00000120554779223822708190000005812152999142764967_);" points="1544.9,564.2 1547,563 
				1538.9,558.3 1540.9,561.8 1544.9,564.2 			"/>
			
				<linearGradient id="SVGID_00000021816248996945343610000001299191462349617292_" gradientUnits="userSpaceOnUse" x1="1545.3049" y1="141.8" x2="1545.3049" y2="168.95" gradientTransform="matrix(1 0 0 -1 0 732)">
				<stop  offset="0" style="stop-color:#7F94A7"/>
				<stop  offset="1" style="stop-color:#546B8C"/>
			</linearGradient>
			<polygon style="fill:url(#SVGID_00000021816248996945343610000001299191462349617292_);" points="1547,563 1544.9,564.2 
				1543.6,589 1545.6,590.2 1547,563 			"/>
			
				<linearGradient id="SVGID_00000040557933892040709230000000214827818296034182_" gradientUnits="userSpaceOnUse" x1="1539.915" y1="137.92" x2="1539.915" y2="173.66" gradientTransform="matrix(1 0 0 -1 0 732)">
				<stop  offset="0" style="stop-color:#7F94A7"/>
				<stop  offset="1" style="stop-color:#546B8C"/>
			</linearGradient>
			<polygon style="fill:url(#SVGID_00000040557933892040709230000000214827818296034182_);" points="1540.9,590.6 1540.9,561.8 
				1538.9,558.3 1538.9,594.1 1540.9,590.6 			"/>
			<polygon class="st27" points="1453.4,32.4 1457.3,36.3 1509.3,36.3 1513.2,32.4 1453.4,32.4 			"/>
			<path class="st27" d="M54.4,653.8v-4.6l6,6v4.6L54.4,653.8L54.4,653.8z M54.4,644.5v-4.6l6,6v4.6L54.4,644.5L54.4,644.5z
				 M54.4,635.2v-4.6l6,6v4.6L54.4,635.2L54.4,635.2z"/>
			<path class="st27" d="M1507.2,69v4.6l6-6V63L1507.2,69L1507.2,69z M1507.2,59.8v4.6l6-6v-4.6L1507.2,59.8L1507.2,59.8z
				 M1507.2,50.5v4.6l6-6v-4.6L1507.2,50.5L1507.2,50.5z"/>
			
				<linearGradient id="SVGID_00000158740010665477857350000005791165448020002465_" gradientUnits="userSpaceOnUse" x1="66.39" y1="227.32" x2="66.39" y2="522.95" gradientTransform="matrix(1 0 0 -1 0 732)">
				<stop  offset="0" style="stop-color:#FFFFFF"/>
				<stop  offset="1" style="stop-color:#000000"/>
			</linearGradient>
			<polygon style="fill:url(#SVGID_00000158740010665477857350000005791165448020002465_);" points="67.7,209.1 65,211.8 65,502 
				67.7,504.7 67.7,209.1 			"/>
			
				<linearGradient id="SVGID_00000182499746487999260370000011655380345627822008_" gradientUnits="userSpaceOnUse" x1="542.44" y1="48.655" x2="574.42" y2="48.655" gradientTransform="matrix(1 0 0 -1 0 732)">
				<stop  offset="0" style="stop-color:#FFFFFF"/>
				<stop  offset="1" style="stop-color:#000000"/>
			</linearGradient>
			<polygon style="fill:url(#SVGID_00000182499746487999260370000011655380345627822008_);" points="542.4,682 545.1,684.7 
				571.7,684.7 574.4,682 542.4,682 			"/>
			
				<linearGradient id="SVGID_00000119817312262612856680000015260772205092848261_" gradientUnits="userSpaceOnUse" x1="788.965" y1="724.28" x2="788.965" y2="728.29" gradientTransform="matrix(1 0 0 -1 0 732)">
				<stop  offset="0" style="stop-color:#5C759C"/>
				<stop  offset="1" style="stop-color:#8EADEB"/>
			</linearGradient>
			<polyline style="fill:url(#SVGID_00000119817312262612856680000015260772205092848261_);" points="1182.3,3.7 1534.9,3.7 
				1533.2,7.7 1533.2,7.7 1184.7,7.7 1113.2,7.7 1078.9,7.7 498.6,7.7 464.7,7.7 393.2,7.7 44.7,7.7 43,3.7 395.6,3.7 			"/>
			<line class="st51" x1="1163.3" y1="1.7" x2="1166.8" y2="3.7"/>
			<line class="st51" x1="1131.1" y1="3.7" x2="1134.6" y2="1.7"/>
			
				<linearGradient id="SVGID_00000016776040697243347820000005300227687331592377_" gradientUnits="userSpaceOnUse" x1="1148.965" y1="728.29" x2="1148.965" y2="730.29" gradientTransform="matrix(1 0 0 -1 0 732)">
				<stop  offset="0" style="stop-color:#98A9B6"/>
				<stop  offset="1" style="stop-color:#9DB56B"/>
			</linearGradient>
			<polygon style="fill:url(#SVGID_00000016776040697243347820000005300227687331592377_);" points="1163.3,1.7 1134.6,1.7 
				1131.1,3.7 1166.8,3.7 1163.3,1.7 			"/>
			<line class="st51" x1="414.6" y1="1.7" x2="411.1" y2="3.7"/>
			<line class="st51" x1="446.8" y1="3.7" x2="443.4" y2="1.7"/>
			
				<linearGradient id="SVGID_00000103945946405326385200000006099435187016503470_" gradientUnits="userSpaceOnUse" x1="428.965" y1="728.29" x2="428.965" y2="730.29" gradientTransform="matrix(1 0 0 -1 0 732)">
				<stop  offset="0" style="stop-color:#98A9B6"/>
				<stop  offset="1" style="stop-color:#9DB56B"/>
			</linearGradient>
			<polygon style="fill:url(#SVGID_00000103945946405326385200000006099435187016503470_);" points="414.6,1.7 443.4,1.7 446.8,3.7 
				411.1,3.7 414.6,1.7 			"/>
			<path class="st54" d="M561.6,1.7c0.7,1.3,2,2,3.5,2h447.4c1.5,0,2.7-0.7,3.5-2"/>
			
				<linearGradient id="SVGID_00000046318955493511448340000004513730209016854686_" gradientUnits="userSpaceOnUse" x1="788.685" y1="728.29" x2="788.685" y2="730.3" gradientTransform="matrix(1 0 0 -1 0 732)">
				<stop  offset="0" style="stop-color:#ADC1D0"/>
				<stop  offset="1" style="stop-color:#648FE2"/>
			</linearGradient>
			<path style="fill:url(#SVGID_00000046318955493511448340000004513730209016854686_);" d="M561.6,1.7c0.7,1.3,2,2,3.5,2h447.4
				c1.4,0,2.6-0.6,3.3-1.8l0,0"/>
			
				<linearGradient id="SVGID_00000121269747940226789110000017267644171955083920_" gradientUnits="userSpaceOnUse" x1="1015.846" y1="729.93" x2="1015.846" y2="730.3" gradientTransform="matrix(1 0 0 -1 0 732)">
				<stop  offset="0" style="stop-color:#7F94A7"/>
				<stop  offset="1" style="stop-color:#546B8C"/>
			</linearGradient>
			<path style="fill:url(#SVGID_00000121269747940226789110000017267644171955083920_);" d="M1015.8,2c0.1-0.1-0.2,0.4,0.2-0.3"/>
		</g>
	</g>
</g>
</svg>
