<?xml version="1.0" encoding="UTF-8"?><svg xmlns="http://www.w3.org/2000/svg" viewBox="0 0 16 26"><defs><style>.c{fill:#fff;}</style></defs><g id="a"/><g id="b"><path class="c" d="M1.15,24.62c-1.07-2.18-.95-5.8,.26-7.79l.5-.82,.44,.4c1.07,.97,2.58,.13,2.58-1.43,0-1.71-1.32-3.41-2.66-3.41h-.39V5.77L1.9-.03l.45,1.25c.66,1.84,1.21,2.81,2.24,3.96,.51,.57,1.08,1.24,1.27,1.48l.35,.45-.67-.17c-.4-.1-.82-.05-1.04,.14-.54,.45-.46,2.16,.15,3.15,1.25,2.03,3.17,.9,2.38-1.39l-.33-.97,.53,.29c1.31,.72,2.1,1.85,2.5,3.54,.14,.6,.12,.69-.14,.44-.45-.44-1.13-.39-1.32,.11-.1,.26,.03,.61,.32,.91,1.09,1.09,3.3-.26,3.67-2.22,.18-.96,.03-2.93-.28-3.72l-.2-.5,.54,.47c2.03,1.78,2.07,5.92,.1,9.79-.92,1.81-2.51,3.55-4.41,4.83-1.95,1.32-2.47,1.55-1.83,.82,1.14-1.3,1.04-3.4-.17-3.7-1.54-.39-3.81,2.86-3.94,5.63-.03,.69-.12,1.25-.2,1.25-.08,0-.4-.53-.72-1.18h0Zm.98-9.67c-.42-.5-.12-1.55,.49-1.75,1.11-.35,2.01,1.01,1.21,1.82-.41,.41-1.32,.38-1.69-.07Z"/></g></svg>