<?xml version="1.0" encoding="UTF-8"?><svg xmlns="http://www.w3.org/2000/svg" xmlns:xlink="http://www.w3.org/1999/xlink" viewBox="0 0 230 45"><defs><style>.at{fill:url(#y);}.at,.au,.av,.aw,.ax,.ay,.ba,.bb,.bc,.bd,.be,.bf,.bg,.bh,.bi,.bj,.bk,.bl,.bm,.bn,.bo,.bp,.bq,.br,.bs,.bt,.bu,.bv,.bw,.bx,.by,.c`,.ca,.cb,.cc,.cd,.ce,.cf,.cg{fill-rule:evenodd;}.au{fill:url(#v);}.av{fill:url(#r);}.aw{fill:url(#ak);}.ch{fill:#fff;}.ax{fill:url(#w);}.ci{fill:url(#an);}.ci,.ay,.bf,.bi,.cj,.bs,.bt,.ck,.cl,.bx,.cc{mix-blend-mode:screen;}.ci,.cj,.ck,.cl{opacity:.75;}.ay{fill:url(#j);}.bd{fill:url(#ae);}.be{fill:url(#aj);}.bf{fill:url(#am);}.bg{fill:url(#p);}.cm{isolation:isolate;}.bh{fill:url(#q);}.bi{fill:url(#c);}.cj{fill:url(#aq);}.bj{fill:url(#h);}.bk{fill:url(#k);}.bl{fill:url(#u);}.bm{fill:url(#ac);}.bn{fill:url(#m);}.bo{fill:url(#s);}.bp{fill:url(#ab);}.bq{fill:url(#ag);}.br{fill:url(#i);}.bs{fill:url(#d);}.bt{fill:url(#e);}.bu{fill:url(#ad);}.bv{fill:url(#x);}.bw{fill:url(#aa);}.ck{fill:url(#ar);}.cl{fill:url(#ao);}.bx{fill:url(#f);}.by{fill:url(#l);}.c`{fill:url(#al);}.ca{fill:url(#n);}.cb{fill:#c8c860;}.cc{fill:url(#ap);}.cd{fill:url(#ah);.bbc{fill:#fff;}.ce{fill:url(#ai);}.cf{fill:url(#o);}.cg{fill:url(#a`);}</style><radialGradient id="c" cx="50.47" cy="37.53" fx="50.47" fy="37.53" r="7.38" gradientTransform="matrix(1, 0, 0, 1, 0, 0)" gradientUnits="userSpaceOnUse"><stop offset="0" stop-color="#dad604"/><stop offset=".25" stop-color="#949202"/><stop offset=".51" stop-color="#555301"/><stop offset=".73" stop-color="#272600"/><stop offset=".9" stop-color="#0a0a00"/><stop offset="1" stop-color="#000"/></radialGradient><radialGradient id="d" cy="7.47" fy="7.47" r="7.38" xlink:href="#c"/><radialGradient id="e" cx="179.91" fx="179.91" r="7.38" xlink:href="#c"/><radialGradient id="f" cx="179.91" cy="7.47" fx="179.91" fy="7.47" xlink:href="#c"/><linearGradient id="g" x1="225.01" y1="22.5" x2="228.62" y2="22.5" gradientTransform="matrix(1, 0, 0, 1, 0, 0)" gradientUnits="userSpaceOnUse"><stop offset="0" stop-color="#1a3840"/><stop offset="1" stop-color="#204954"/></linearGradient><linearGradient id="h" x1="1.38" y1="22.46" x2="4.99" y2="22.46" gradientTransform="matrix(1, 0, 0, 1, 0, 0)" gradientUnits="userSpaceOnUse"><stop offset="0" stop-color="#204954"/><stop offset="1" stop-color="#1a3840"/></linearGradient><linearGradient id="i" x1="115.19" y1="39.76" x2="115.19" y2="5.24" gradientTransform="matrix(1, 0, 0, 1, 0, 0)" gradientUnits="userSpaceOnUse"><stop offset="0" stop-color="#0a1c4a"/><stop offset=".16" stop-color="#081d4f"/><stop offset=".38" stop-color="#052060"/><stop offset=".49" stop-color="#04226b"/><stop offset=".59" stop-color="#032671"/><stop offset=".73" stop-color="#023182"/><stop offset=".88" stop-color="#01449f"/><stop offset="1" stop-color="#0056b9"/></linearGradient><radialGradient id="j" cx="115.19" cy="22.5" fx="115.19" fy="22.5" r="130.47" gradientTransform="matrix(1, 0, 0, 1, 0, 0)" gradientUnits="userSpaceOnUse"><stop offset=".59" stop-color="#000"/><stop offset=".68" stop-color="#000102"/><stop offset=".74" stop-color="#00040b"/><stop offset=".78" stop-color="#010b1a"/><stop offset=".83" stop-color="#02142f"/><stop offset=".87" stop-color="#04204a"/><stop offset=".9" stop-color="#052e6b"/><stop offset=".94" stop-color="#083f93"/><stop offset=".97" stop-color="#0a52bf"/><stop offset="1" stop-color="#0d65ea"/></radialGradient><linearGradient id="k" x1="5.07" y1="5.45" x2="5.07" y2="4.02" gradientTransform="matrix(1, 0, 0, 1, 0, 0)" gradientUnits="userSpaceOnUse"><stop offset="0" stop-color="#6581c3"/><stop offset="1" stop-color="#3c597d"/></linearGradient><linearGradient id="l" x1="5.87" y1="6.04" x2="5.87" y2="5.03" xlink:href="#k"/><linearGradient id="m" x1="115.19" y1="39.97" x2="115.19" y2="38.96" gradientTransform="matrix(1, 0, 0, 1, 0, 0)" gradientUnits="userSpaceOnUse"><stop offset="0" stop-color="#81b0ef"/><stop offset="1" stop-color="#4e76a0"/></linearGradient><linearGradient id="n" x1="224" y1="22.5" x2="225.01" y2="22.5" gradientTransform="matrix(1, 0, 0, 1, 0, 0)" gradientUnits="userSpaceOnUse"><stop offset="0" stop-color="#4e76a0"/><stop offset="1" stop-color="#81b0ef"/></linearGradient><linearGradient id="o" x1="5.36" y1="22.5" x2="6.38" y2="22.5" gradientTransform="matrix(1, 0, 0, 1, 0, 0)" gradientUnits="userSpaceOnUse"><stop offset="0" stop-color="#335d8e"/><stop offset="1" stop-color="#1f4270"/></linearGradient><linearGradient id="p" x1="115.19" y1="6.04" x2="115.19" y2="5.03" gradientTransform="matrix(1, 0, 0, 1, 0, 0)" gradientUnits="userSpaceOnUse"><stop offset="0" stop-color="#1f4270"/><stop offset="1" stop-color="#335d8e"/></linearGradient><linearGradient id="q" x1="225.31" y1="40.98" x2="225.31" y2="39.55" xlink:href="#k"/><linearGradient id="r" x1="224.51" y1="39.97" x2="224.51" y2="38.96" xlink:href="#k"/><linearGradient id="s" y1="40.98" y2="39.55" xlink:href="#k"/><linearGradient id="t" x1="5.87" y1="39.97" x2="5.87" y2="38.96" xlink:href="#k"/><linearGradient id="u" x1="225.31" x2="225.31" xlink:href="#k"/><linearGradient id="v" x1="224.51" y1="6.04" x2="224.51" y2="5.03" xlink:href="#k"/><linearGradient id="w" x1="1.38" y1="22.5" x2="5.36" y2="22.5" xlink:href="#n"/><linearGradient id="x" x1="3.37" y1="33.95" x2="3.37" y2="11.05" xlink:href="#k"/><radialGradient id="y" cx="3.37" cy="22.5" fx="3.37" fy="22.5" r="7.48" gradientTransform="matrix(1, 0, 0, 1, 0, 0)" gradientUnits="userSpaceOnUse"><stop offset="0" stop-color="#f2f680"/><stop offset="1" stop-color="#e7c821"/></radialGradient><linearGradient id="a`" x1="225.01" y1="22.5" x2="228.62" y2="22.5" xlink:href="#o"/><linearGradient id="aa" x1="115.19" y1="40.98" x2="115.19" y2="39.97" xlink:href="#p"/><linearGradient id="ab" x1="115.19" y1="5.03" x2="115.19" y2="4.02" xlink:href="#n"/><linearGradient id="ac" x1="3.37" y1="12.49" x2="3.37" y2="11.05" gradientTransform="matrix(1, 0, 0, 1, 0, 0)" gradientUnits="userSpaceOnUse"><stop offset="0" stop-color="#8d825d"/><stop offset="1" stop-color="#2d507a"/></linearGradient><linearGradient id="ad" x1="3.37" y1="33.95" x2="3.37" y2="32.51" gradientTransform="matrix(1, 0, 0, 1, 0, 0)" gradientUnits="userSpaceOnUse"><stop offset="0" stop-color="#93acb9"/><stop offset="1" stop-color="#95b767"/></linearGradient><linearGradient id="ae" x1="2.64" y1="32.8" x2="2.64" y2="12.2" gradientTransform="matrix(1, 0, 0, 1, 0, 0)" gradientUnits="userSpaceOnUse"><stop offset="0" stop-color="#7596aa"/><stop offset="1" stop-color="#476b90"/></linearGradient><linearGradient id="af" x1="4.1" y1="33.95" x2="4.1" y2="11.05" xlink:href="#ae"/><linearGradient id="ag" x1="226.63" y1="33.99" x2="226.63" y2="11.09" xlink:href="#k"/><radialGradient id="ah" cx="226.63" cy="22.54" fx="226.63" fy="22.54" r="7.48" xlink:href="#y"/><linearGradient id="ai" x1="226.63" y1="12.53" x2="226.63" y2="11.09" xlink:href="#ac"/><linearGradient id="aj" x1="226.63" y1="33.99" x2="226.63" y2="32.55" xlink:href="#ad"/><linearGradient id="ak" x1="227.36" y1="32.84" x2="227.36" y2="12.24" xlink:href="#ae"/><linearGradient id="al" x1="225.9" y1="33.99" x2="225.9" y2="11.09" xlink:href="#ae"/><radialGradient id="am" cx="6841.5" cy="66591.93" fx="6841.5" fy="66591.93" r="59.54" gradientTransform="translate(-4551.52 1159.56) rotate(-90) scale(.17 .07)" gradientUnits="userSpaceOnUse"><stop offset="0" stop-color="#c6c617"/><stop offset=".19" stop-color="#8f8f10"/><stop offset=".39" stop-color="#5c5c0a"/><stop offset=".57" stop-color="#343406"/><stop offset=".74" stop-color="#171702"/><stop offset=".89" stop-color="#060600"/><stop offset="1" stop-color="#000"/></radialGradient><radialGradient id="an" cx="-3461.85" cy="-30163.06" fx="-3461.85" fy="-30163.06" r="7.22" gradientTransform="translate(-4038.36 -9381.97) rotate(-90) scale(2.72 -.13)" gradientUnits="userSpaceOnUse"><stop offset="0" stop-color="#f9e704"/><stop offset=".04" stop-color="#ead903"/><stop offset=".25" stop-color="#a49802"/><stop offset=".44" stop-color="#696201"/><stop offset=".62" stop-color="#3c3700"/><stop offset=".78" stop-color="#1b1900"/><stop offset=".91" stop-color="#070600"/><stop offset="1" stop-color="#000"/></radialGradient><radialGradient id="ao" cx="-6476.28" cy="126004.38" fx="-6476.28" fy="126004.38" r="12.91" gradientTransform="translate(-4407.72 5547.56) rotate(90) scale(.85 -.04)" xlink:href="#an"/><radialGradient id="ap" cy="-61358.78" fy="-61358.78" r="59.54" gradientTransform="translate(-3970.31 1159.56) rotate(-90) scale(.17 -.07)" xlink:href="#am"/><radialGradient id="aq" cy="35149.1" fy="35149.1" r="7.22" gradientTransform="translate(-4483.47 -9381.97) rotate(-90) scale(2.72 .13)" xlink:href="#an"/><radialGradient id="ar" cx="-6476.28" cy="-124047.87" fx="-6476.28" fy="-124047.87" r="12.91" gradientTransform="translate(-4114.11 5547.56) rotate(90) scale(.85 .04)" xlink:href="#an"/><radialGradient id="as" cx="115.19" cy="22.5" fx="115.19" fy="22.5" r="108.33" gradientTransform="matrix(1, 0, 0, 1, 0, 0)" gradientUnits="userSpaceOnUse"><stop offset="0" stop-color="#60d5fa"/><stop offset="1" stop-color="#0268d8"/></radialGradient></defs><g class="cm"><g id="a"/><g id="b"><g><g><g><g><path class="bi" d="M57.85,37.53c0,4.08-3.3,7.38-7.38,7.38s-7.38-3.3-7.38-7.38,3.3-7.38,7.38-7.38,7.38,3.3,7.38,7.38Z"/><path class="bs" d="M57.85,7.47c0,4.08-3.3,7.38-7.38,7.38s-7.38-3.3-7.38-7.38S46.39,.09,50.47,.09s7.38,3.3,7.38,7.38Z"/></g><g><path class="bt" d="M187.29,37.53c0,4.08-3.3,7.38-7.38,7.38s-7.38-3.3-7.38-7.38,3.3-7.38,7.38-7.38,7.38,3.3,7.38,7.38Z"/><path class="bx" d="M187.29,7.47c0,4.08-3.3,7.38-7.38,7.38s-7.38-3.3-7.38-7.38S175.83,.09,179.91,.09s7.38,3.3,7.38,7.38Z"/></g><polygon class="bb" points="225.01 8.47 225.01 36.53 228.62 33.43 228.62 11.66 225.01 8.47 225.01 8.47"/><polygon class="bj" points="4.99 8.43 4.99 36.49 1.38 33.38 1.38 11.62 4.99 8.43 4.99 8.43"/><polygon class="br" points="5.57 5.24 224.8 5.24 224.8 39.76 5.57 39.76 5.57 5.24 5.57 5.24"/><polygon class="ay" points="5.57 5.24 224.8 5.24 224.8 39.76 5.57 39.76 5.57 5.24 5.57 5.24"/><polygon class="bk" points="4.35 5.03 5.36 5.45 5.78 5.03 5.36 4.02 4.35 5.03 4.35 5.03"/><polygon class="by" points="5.78 5.03 5.36 5.45 6.38 6.04 5.78 5.03 5.78 5.03"/><polygon class="bn" points="5.78 39.97 224.59 39.97 224 38.96 6.38 38.96 5.78 39.97 5.78 39.97"/><polygon class="ca" points="224 6.04 224 38.96 225.01 39.55 225.01 5.45 224 6.04 224 6.04"/><polygon class="cf" points="6.38 6.04 6.38 38.96 5.36 39.55 5.36 5.45 6.38 6.04 6.38 6.04"/><polygon class="bg" points="5.78 5.03 224.59 5.03 224 6.04 6.38 6.04 5.78 5.03 5.78 5.03"/><polygon class="bh" points="226.02 39.97 225.01 39.55 224.59 39.97 225.01 40.98 226.02 39.97 226.02 39.97"/><polygon class="av" points="224.59 39.97 225.01 39.55 224 38.96 224.59 39.97 224.59 39.97"/><polygon class="bo" points="4.35 39.97 5.36 39.55 5.78 39.97 5.36 40.98 4.35 39.97 4.35 39.97"/><polygon class="ba" points="5.78 39.97 5.36 39.55 6.38 38.96 5.78 39.97 5.78 39.97"/><polygon class="bl" points="226.02 5.03 225.01 5.45 224.59 5.03 225.01 4.02 226.02 5.03 226.02 5.03"/><polygon class="au" points="224.59 5.03 225.01 5.45 224 6.04 224.59 5.03 224.59 5.03"/><polygon class="ax" points="4.35 5.03 4.35 9.88 1.38 11.62 1.38 33.38 4.35 35.12 4.35 39.97 5.36 39.55 5.36 35.71 5.36 9.29 5.36 5.45 4.35 5.03"/><polygon class="bv" points="4.35 11.05 2.39 12.2 2.39 32.8 4.35 33.95 4.35 11.05 4.35 11.05"/><polygon class="at" points="3.85 11.93 2.9 12.49 2.9 32.51 3.85 33.07 3.85 11.93 3.85 11.93"/><polygon class="cg" points="228.62 11.66 226.02 10.14 226.02 5.03 225.01 5.45 225.01 9.55 225.01 35.53 225.01 39.55 226.02 39.97 226.02 34.94 228.62 33.43 228.62 11.66"/><polygon class="cb" points="45.45 40.37 55.48 40.37 55.48 40.88 45.45 40.88 45.45 40.37 45.45 40.37"/><polygon class="cb" points="174.89 40.37 184.92 40.37 184.92 40.88 174.89 40.88 174.89 40.37 174.89 40.37"/><polygon class="bw" points="224.59 39.97 5.78 39.97 5.36 40.98 45.45 40.98 45.96 40.47 54.98 40.47 55.48 40.98 174.89 40.98 175.4 40.47 184.42 40.47 184.92 40.98 225.01 40.98 224.59 39.97 224.59 39.97"/><polygon class="cb" points="45.45 4.63 55.48 4.63 55.48 4.12 45.45 4.12 45.45 4.63 45.45 4.63"/><polygon class="cb" points="174.89 4.63 184.92 4.63 184.92 4.12 174.89 4.12 174.89 4.63 174.89 4.63"/><polygon class="bp" points="224.59 5.03 5.78 5.03 5.36 4.02 45.45 4.02 45.96 4.53 54.98 4.53 55.48 4.02 174.89 4.02 175.4 4.53 184.42 4.53 184.92 4.02 225.01 4.02 224.59 5.03 224.59 5.03"/><polygon class="bm" points="2.39 12.2 2.9 12.49 3.85 11.93 4.35 11.05 2.39 12.2 2.39 12.2"/><polygon class="bu" points="2.39 32.8 2.9 32.51 3.85 33.07 4.35 33.95 2.39 32.8 2.39 32.8"/><polygon class="bd" points="2.39 32.8 2.9 32.51 2.9 12.49 2.39 12.2 2.39 32.8 2.39 32.8"/><polygon class="bc" points="3.85 11.93 3.85 33.07 4.35 33.95 4.35 11.05 3.85 11.93 3.85 11.93"/><polygon class="bq" points="225.65 11.09 227.61 12.24 227.61 32.84 225.65 33.99 225.65 11.09 225.65 11.09"/><polygon class="cd" points="226.15 11.97 227.1 12.53 227.1 32.55 226.15 33.11 226.15 11.97 226.15 11.97"/><polygon class="ce" points="227.61 12.24 227.1 12.53 226.15 11.97 225.65 11.09 227.61 12.24 227.61 12.24"/><polygon class="be" points="227.61 32.84 227.1 32.55 226.15 33.11 225.65 33.99 227.61 32.84 227.61 32.84"/><polygon class="aw" points="227.61 32.84 227.1 32.55 227.1 12.53 227.61 12.24 227.61 32.84 227.61 32.84"/><polygon class="c`" points="226.15 11.97 226.15 33.11 225.65 33.99 225.65 11.09 226.15 11.97 226.15 11.97"/><path class="bf" d="M3.37,10.73c1.72,0,3.11,3.39,3.11,7.57s-1.39,15.97-3.11,15.97S.26,22.48,.26,18.3s1.39-7.57,3.11-7.57Z"/><g><path class="ci" d="M3.49,44.1c.47,0,.86-16.19,.86-25.8S3.97,.9,3.49,.9s-.86,7.79-.86,17.4,.38,25.8,.86,25.8Z"/><path class="cl" d="M2.44,5.85c-.2,0-.36,3.9-.36,8.71s.16,17.11,.36,17.11,.36-12.3,.36-17.11-.16-8.71-.36-8.71Z"/></g><path class="cc" d="M226.63,10.73c-1.72,0-3.11,3.39-3.11,7.57s1.39,15.97,3.11,15.97,3.11-11.79,3.11-15.97-1.39-7.57-3.11-7.57Z"/><g><path class="cj" d="M226.51,44.1c-.47,0-.86-16.19-.86-25.8s.38-17.4,.86-17.4,.86,7.79,.86,17.4-.38,25.8-.86,25.8Z"/><path class="ck" d="M227.56,5.85c.2,0,.36,3.9,.36,8.71s-.16,17.11-.36,17.11-.36-12.3-.36-17.11,.16-8.71,.36-8.71Z"/></g></g><path class="bbc" d="M9.75,8.15H220.63l1.26,1.26v2.69l-1.56,1.07V31.83l1.56,1.07v2.69l-1.26,1.26H9.75l-1.26-1.26v-2.69l1.56-1.07V13.17l-1.56-1.07v-2.69l1.26-1.26h0Zm.21,.51l-.97,.97v2.21l1.56,1.07v19.19l-1.56,1.07v2.21l.97,.97H220.42l.97-.97v-2.21l-1.56-1.07V12.91l1.56-1.07v-2.21l-.97-.97H9.96Z"/></g><polygon class="ch" points="195.93 16.46 202.62 23.15 209.3 16.46 212 19.16 202.62 28.54 193.23 19.16 195.93 16.46 195.93 16.46"/></g></g></g></svg>