<?xml version="1.0" encoding="UTF-8"?><svg xmlns="http://www.w3.org/2000/svg" xmlns:xlink="http://www.w3.org/1999/xlink" viewBox="0 0 281 376"><defs><style>.e{fill:url(#c);}.e,.f{fill-rule:evenodd;}.f{fill:url(#d);}</style><radialGradient id="c" cx="6798.05" cy="-1750.92" fx="6798.05" fy="-1750.92" r="600.45" gradientTransform="translate(-1416.55 941.67) scale(.23 .54)" gradientUnits="userSpaceOnUse"><stop offset="0" stop-color="#0056b9"/><stop offset=".12" stop-color="#01449f"/><stop offset=".27" stop-color="#023182"/><stop offset=".41" stop-color="#032671"/><stop offset=".51" stop-color="#04226b"/><stop offset=".62" stop-color="#052060"/><stop offset=".84" stop-color="#081d4f"/><stop offset="1" stop-color="#0a1c4a"/></radialGradient><radialGradient id="d" cx="1.19" cy=".68" fx="1.19" fy=".68" r="345.81" gradientTransform="matrix(1, 0, 0, 1, 0, 0)" gradientUnits="userSpaceOnUse"><stop offset="0" stop-color="#60d5fa"/><stop offset="1" stop-color="#0268d8"/></radialGradient></defs><g id="a"/><g id="b"><polygon class="e" points="7.67 4.4 266.05 4.4 273.33 11.69 273.33 372.75 7.67 372.75 7.67 .75 7.67 4.4"/><path class="f" d="M140.5,368.51h126.66V12.19l-3.02-3.32H13.84V368.51h126.66Zm-141.53-1.39v-108.83l8.13-8.13v-6.24l-8.13,8.13v-6.24l8.13-8.13v-6.24l-8.13,8.13v-6.24l8.13-8.13v-6.24l-8.13,8.13v-6.24l8.13-8.13v-6.24l-8.13,8.13v-6.24l8.13-8.13v-6.24l-8.13,8.13v-6.24l8.13-8.13v-6.24l-8.13,8.13v-6.24l8.13-8.13v-6.24l-6.79,6.79v-6.24l6.79-6.79v-6.24l-4.95,4.95v-6.24l4.95-4.95V2.14H266.94l15.09,15.09v240.54l-8.13,8.13v19.9l5.64,5.64v78.72l-5.01,5.09H7.1l-8.13-8.13h0ZM142.37,4.83H9.79V372.55H271.21V10.21l-5.38-5.38h-123.45Zm-1.87,5.39h123.05l2.26,2.49V367.16H15.19V10.22h125.31Zm133.4,361.82v-82.43l2.94,2.94v76.5l-2.94,2.99h0ZM7.1,307.81v-53.84l-5.43,5.43v42.97l5.43,5.43h0ZM279.33,144.1v33.62l-5.43,5.43v-33.62l5.43-5.43h0Zm0-125.76v123.06l-5.43,5.43V12.91l5.43,5.43h0Z"/></g></svg>