<?xml version="1.0" encoding="UTF-8"?><svg xmlns="http://www.w3.org/2000/svg" viewBox="0 0 19 20"><defs><style>.c{fill:#fff;}</style></defs><g id="a"/><g id="b"><path class="c" d="M5.97,16.22c1.36-2.72,1.57-3.28,.95-2.51-.26,.32-.4,.37-.49,.16-.21-.5-.59-.32-.43,.2,.12,.39,.07,.47-.28,.41-.32-.06-.43-.29-.43-.9,0-.69,.09-.83,.58-.89,.66-.09,1.23-.51,.7-.51-.21,0-.14-.14,.19-.36,.29-.2,.52-.52,.52-.7,0-.6-.89-.36-1.42,.39l-.52,.72-.58-.58-.58-.58,.38-.57c.21-.32,.31-.64,.22-.73-.39-.39-.82-.07-1.48,1.07l-.7,1.23v-3.91l.56,.14c.74,.19,1.45-.45,1.05-.94-.55-.67-1.91-.18-2.97,1.07l-.3,.36,.12-.47c.07-.26,.34-1.18,.61-2.05l.48-1.58h3.43c3.65,0-.22,.01,3.5,0-.54,.31-.73,.4-1.01,.58-.6,.39-1.7,.99-1.7,1.38,0,.14,.12,.12,.28-.04,.15-.15,.43-.27,.61-.28h.3l-.32,.38c-.25,.31-.25,.35-.01,.21,.22-.13,.29-.06,.23,.24-.09,.51,.71,.75,.99,.3,.27-.44-.22-.52-.39-.43-.08,.04-.13,.16-.19,.25-.06,.09-.13-.2-.14-.3-.04-.29,.31-.86,1.04-1.14,.98-.37,1.72-.12,1.9,.65,.19,.78,.54,1.26,.81,1.1,.11-.07,.13-.29,.05-.5-.11-.28-.06-.33,.19-.18l.33,.2-.32-.4-.32-.4h.33c.18,0,.46,.13,.61,.28,.17,.17,.28,.18,.28,.04,0-.39-1.07-1.05-1.7-1.38-1.16-.62,.1,.05-1.06-.57,3.78-.02-.35,.02,3.55,0h3.4l.48,1.58c.27,.87,.55,1.79,.63,2.05,.11,.36-.04,.29-.65-.3-1.19-1.16-2.55-1.33-2.55-.32,0,.53,.46,.75,1.15,.57l.49-.13v3.92l-.71-1.23c-.65-1.14-1.09-1.46-1.48-1.07-.09,.09,.01,.42,.22,.73l.38,.57-.58,.58-.58,.58-.52-.72c-.53-.74-1.42-.99-1.42-.39,0,.19,.23,.5,.52,.7,.32,.23,.39,.36,.19,.36-.54,0,.04,.42,.7,.51,.5,.07,.58,.2,.58,.89,0,.61-.11,.84-.43,.9-.34,.07-.4-.02-.28-.41,.16-.52-.22-.7-.43-.2-.09,.21-.23,.16-.49-.16-.62-.77-.41-.22,.95,2.51,1.01,2.02,1.65,2.86,.76,2.13-.88-.73-2.37-1.03-3.79-.88-.14,.01-.17-.26-.32-.72l-.23-.7-.16,.72c-.07,.32-.15,.74-.37,.72-1.63-.15-3.07,.29-3.72,.87-.65,.58-.25-.11,.76-2.13h0Zm-4.46,.11c.44-.8,1.19-2.24,1.67-3.19l.87-1.73,.58,.58,.58,.58-.96,1.91-.96,1.91h2.12l-.36,.7-.36,.7H.71l.8-1.46Zm12.44,.76l-.36-.7h2.12l-.96-1.91-.96-1.91,.58-.58,.58-.58,.87,1.73c.48,.95,1.21,2.43,1.65,3.24l.8,1.46h-2l-1.98-.05-.36-.7ZM8.55,2.81c.43-.78,.87-1.42,.96-1.42s.53,.64,.96,1.42l.79,1.42h-1.37l-.38-.61-.37,.61c-.68,0-.38,0-1.38,0l.79-1.42Z"/></g></svg>