<?xml version="1.0" encoding="UTF-8"?><svg xmlns="http://www.w3.org/2000/svg" viewBox="0 0 19 20"><defs><style>.c{fill:#fff;}</style></defs><g id="a"/><g id="b"><path class="c" d="M5.16,19.74c-.82-.15-2.19-1.15-2.57-1.86l-.24-.45,.84,.57c.56,.38,1.15,.57,1.78,.57,1.13,0,1.41-.16,1.72-.96,.19-.49,.14-.72-.23-1.2-.54-.69-1.13-.75-1.65-.17-.43,.48-.48,.96-.15,1.37,.12,.15-.09-.02-.47-.38-.52-.48-.73-.92-.81-1.66-.09-.79-.06-.92,.14-.62,.5,.78,1.35-.22,.88-1.05-.58-1.03-1.79,.02-1.79,1.56,0,1.1-.35,.73-.58-.62-.15-.87,.11-3.06,.29-2.52,.13,.36,.8,.37,1.16,.01,.39-.39,.34-1.09-.1-1.26-.76-.29-1.55,.24-1.96,1.31l-.39,1.03v-.92c-.02-1,.6-2.57,1.2-3.06l.38-.31v.35c0,.46,.67,.7,1.06,.37,.42-.35,.4-1.33-.03-1.5-.53-.2-1.38,.09-2.13,.72-.37,.31-.75,.57-.83,.57-.22,0,.47-1.24,1.15-2.04,.69-.82,2.05-1.64,1.87-1.13-.3,.85,.84,1.48,1.42,.77,.4-.48,.21-1.1-.45-1.43-.7-.35-2.37-.38-3.05-.06-.31,.15-.2-.03,.29-.45,1.03-.91,2.76-1.48,3.86-1.28,.69,.13,.77,.2,.44,.38-.98,.55,.01,1.86,1.01,1.33,.4-.21,.46-.4,.35-1.07-.21-1.28-1.11-2.07-2.67-2.35l-.8-.14,1.15-.26c1.37-.31,2.84-.05,3.92,.69l.72,.49-.49,.25c-.59,.29-.76,.93-.37,1.39,.71,.86,1.87-.12,1.87-1.58,0-.87-.32-1.6-1.05-2.4l-.49-.54,.88,.36c1.2,.5,2.2,1.37,2.97,2.6,.35,.56,.53,.95,.39,.87-.43-.27-1.34,.09-1.49,.58-.33,1.03,1.05,1.54,1.83,.68,.52-.58,.72-2.29,.35-3.01l-.29-.55,.6,.55c.9,.83,1.44,2.5,1.33,4.13l-.04,.56-.29-.4c-.57-.78-1.54,.14-1.07,1.02,.6,1.12,2.25-.32,2.3-2.01l.02-.64,.2,.46c.29,.66,.27,2.33-.03,3.34l-.26,.87-.34-.34c-.39-.39-.73-.33-1.06,.19-.26,.42,.16,1.09,.68,1.09s1.7-1.23,2.04-2.18l.32-.92v.64c.04,1.79-1.67,4.89-3.9,7.08l-1.33,1.3-.87-.24c-2.56-.7-4.94-2.63-5.21-4.25-.41-2.41,1.91-4.41,3.56-3.07,.72,.58,.73,1.91,.01,2.61l-.52,.51,.15-.6c.17-.69-.39-1.41-.93-1.2-1,.38-.9,1.95,.15,2.5,.85,.44,1.66,.23,2.37-.62,2.08-2.47-.49-6.13-3.44-4.9-2.61,1.09-3.59,4.03-2.24,6.74,.68,1.37,1.79,2.29,3.83,3.18l1.34,.59-.54,.41c-.7,.54-3.07,1.48-4.09,1.62-.44,.06-1.14,.05-1.55-.03h0Z"/></g></svg>